<?xml version="1.0" encoding="utf-8" standalone="no"?>
<!DOCTYPE svg PUBLIC "-//W3C//DTD SVG 1.1//EN"
  "http://www.w3.org/Graphics/SVG/1.1/DTD/svg11.dtd">
<!-- Created with matplotlib (https://matplotlib.org/) -->
<svg height="288pt" version="1.1" viewBox="0 0 576 288" width="576pt" xmlns="http://www.w3.org/2000/svg" xmlns:xlink="http://www.w3.org/1999/xlink">
 <defs>
  <style type="text/css">
*{stroke-linecap:butt;stroke-linejoin:round;}
  </style>
 </defs>
 <g id="figure_1">
  <g id="patch_1">
   <path d="M 0 288 
L 576 288 
L 576 0 
L 0 0 
z
" style="fill:#ffffff;"/>
  </g>
  <g id="axes_1">
   <g id="patch_2">
    <path d="M 72 252 
L 518.4 252 
L 518.4 34.56 
L 72 34.56 
z
" style="fill:#ffffff;"/>
   </g>
   <g id="patch_3">
    <path clip-path="url(#p7898be37fd)" d="M 151.731293 252 
L 157.470042 252 
L 157.470042 122.571429 
L 151.731293 122.571429 
z
" style="fill:#1f77b4;opacity:0.4;"/>
   </g>
   <g id="patch_4">
    <path clip-path="url(#p7898be37fd)" d="M 157.470042 252 
L 163.20879 252 
L 163.20879 252 
L 157.470042 252 
z
" style="fill:#1f77b4;opacity:0.4;"/>
   </g>
   <g id="patch_5">
    <path clip-path="url(#p7898be37fd)" d="M 163.20879 252 
L 168.947538 252 
L 168.947538 252 
L 163.20879 252 
z
" style="fill:#1f77b4;opacity:0.4;"/>
   </g>
   <g id="patch_6">
    <path clip-path="url(#p7898be37fd)" d="M 168.947538 252 
L 174.686286 252 
L 174.686286 252 
L 168.947538 252 
z
" style="fill:#1f77b4;opacity:0.4;"/>
   </g>
   <g id="patch_7">
    <path clip-path="url(#p7898be37fd)" d="M 174.686286 252 
L 180.425035 252 
L 180.425035 252 
L 174.686286 252 
z
" style="fill:#1f77b4;opacity:0.4;"/>
   </g>
   <g id="patch_8">
    <path clip-path="url(#p7898be37fd)" d="M 180.425035 252 
L 186.163783 252 
L 186.163783 252 
L 180.425035 252 
z
" style="fill:#1f77b4;opacity:0.4;"/>
   </g>
   <g id="patch_9">
    <path clip-path="url(#p7898be37fd)" d="M 186.163783 252 
L 191.902531 252 
L 191.902531 252 
L 186.163783 252 
z
" style="fill:#1f77b4;opacity:0.4;"/>
   </g>
   <g id="patch_10">
    <path clip-path="url(#p7898be37fd)" d="M 191.902531 252 
L 197.641279 252 
L 197.641279 252 
L 191.902531 252 
z
" style="fill:#1f77b4;opacity:0.4;"/>
   </g>
   <g id="patch_11">
    <path clip-path="url(#p7898be37fd)" d="M 197.641279 252 
L 203.380028 252 
L 203.380028 243.371429 
L 197.641279 243.371429 
z
" style="fill:#1f77b4;opacity:0.4;"/>
   </g>
   <g id="patch_12">
    <path clip-path="url(#p7898be37fd)" d="M 203.380028 252 
L 209.118776 252 
L 209.118776 252 
L 203.380028 252 
z
" style="fill:#1f77b4;opacity:0.4;"/>
   </g>
   <g id="patch_13">
    <path clip-path="url(#p7898be37fd)" d="M 209.118776 252 
L 214.857524 252 
L 214.857524 252 
L 209.118776 252 
z
" style="fill:#1f77b4;opacity:0.4;"/>
   </g>
   <g id="patch_14">
    <path clip-path="url(#p7898be37fd)" d="M 214.857524 252 
L 220.596273 252 
L 220.596273 252 
L 214.857524 252 
z
" style="fill:#1f77b4;opacity:0.4;"/>
   </g>
   <g id="patch_15">
    <path clip-path="url(#p7898be37fd)" d="M 220.596273 252 
L 226.335021 252 
L 226.335021 252 
L 220.596273 252 
z
" style="fill:#1f77b4;opacity:0.4;"/>
   </g>
   <g id="patch_16">
    <path clip-path="url(#p7898be37fd)" d="M 226.335021 252 
L 232.073769 252 
L 232.073769 252 
L 226.335021 252 
z
" style="fill:#1f77b4;opacity:0.4;"/>
   </g>
   <g id="patch_17">
    <path clip-path="url(#p7898be37fd)" d="M 232.073769 252 
L 237.812517 252 
L 237.812517 252 
L 232.073769 252 
z
" style="fill:#1f77b4;opacity:0.4;"/>
   </g>
   <g id="patch_18">
    <path clip-path="url(#p7898be37fd)" d="M 237.812517 252 
L 243.551266 252 
L 243.551266 252 
L 237.812517 252 
z
" style="fill:#1f77b4;opacity:0.4;"/>
   </g>
   <g id="patch_19">
    <path clip-path="url(#p7898be37fd)" d="M 243.551266 252 
L 249.290014 252 
L 249.290014 243.371429 
L 243.551266 243.371429 
z
" style="fill:#1f77b4;opacity:0.4;"/>
   </g>
   <g id="patch_20">
    <path clip-path="url(#p7898be37fd)" d="M 249.290014 252 
L 255.028762 252 
L 255.028762 252 
L 249.290014 252 
z
" style="fill:#1f77b4;opacity:0.4;"/>
   </g>
   <g id="patch_21">
    <path clip-path="url(#p7898be37fd)" d="M 255.028762 252 
L 260.76751 252 
L 260.76751 252 
L 255.028762 252 
z
" style="fill:#1f77b4;opacity:0.4;"/>
   </g>
   <g id="patch_22">
    <path clip-path="url(#p7898be37fd)" d="M 260.76751 252 
L 266.506259 252 
L 266.506259 252 
L 260.76751 252 
z
" style="fill:#1f77b4;opacity:0.4;"/>
   </g>
   <g id="patch_23">
    <path clip-path="url(#p7898be37fd)" d="M 266.506259 252 
L 272.245007 252 
L 272.245007 234.742857 
L 266.506259 234.742857 
z
" style="fill:#1f77b4;opacity:0.4;"/>
   </g>
   <g id="patch_24">
    <path clip-path="url(#p7898be37fd)" d="M 272.245007 252 
L 277.983755 252 
L 277.983755 243.371429 
L 272.245007 243.371429 
z
" style="fill:#1f77b4;opacity:0.4;"/>
   </g>
   <g id="patch_25">
    <path clip-path="url(#p7898be37fd)" d="M 277.983755 252 
L 283.722503 252 
L 283.722503 243.371429 
L 277.983755 243.371429 
z
" style="fill:#1f77b4;opacity:0.4;"/>
   </g>
   <g id="patch_26">
    <path clip-path="url(#p7898be37fd)" d="M 283.722503 252 
L 289.461252 252 
L 289.461252 243.371429 
L 283.722503 243.371429 
z
" style="fill:#1f77b4;opacity:0.4;"/>
   </g>
   <g id="patch_27">
    <path clip-path="url(#p7898be37fd)" d="M 289.461252 252 
L 295.2 252 
L 295.2 208.857143 
L 289.461252 208.857143 
z
" style="fill:#1f77b4;opacity:0.4;"/>
   </g>
   <g id="patch_28">
    <path clip-path="url(#p7898be37fd)" d="M 295.2 252 
L 300.938748 252 
L 300.938748 174.342857 
L 295.2 174.342857 
z
" style="fill:#1f77b4;opacity:0.4;"/>
   </g>
   <g id="patch_29">
    <path clip-path="url(#p7898be37fd)" d="M 300.938748 252 
L 306.677497 252 
L 306.677497 122.571429 
L 300.938748 122.571429 
z
" style="fill:#1f77b4;opacity:0.4;"/>
   </g>
   <g id="patch_30">
    <path clip-path="url(#p7898be37fd)" d="M 306.677497 252 
L 312.416245 252 
L 312.416245 165.714286 
L 306.677497 165.714286 
z
" style="fill:#1f77b4;opacity:0.4;"/>
   </g>
   <g id="patch_31">
    <path clip-path="url(#p7898be37fd)" d="M 312.416245 252 
L 318.154993 252 
L 318.154993 44.914286 
L 312.416245 44.914286 
z
" style="fill:#1f77b4;opacity:0.4;"/>
   </g>
   <g id="patch_32">
    <path clip-path="url(#p7898be37fd)" d="M 318.154993 252 
L 323.893741 252 
L 323.893741 148.457143 
L 318.154993 148.457143 
z
" style="fill:#1f77b4;opacity:0.4;"/>
   </g>
   <g id="patch_33">
    <path clip-path="url(#p7898be37fd)" d="M 323.893741 252 
L 329.63249 252 
L 329.63249 226.114286 
L 323.893741 226.114286 
z
" style="fill:#1f77b4;opacity:0.4;"/>
   </g>
   <g id="patch_34">
    <path clip-path="url(#p7898be37fd)" d="M 329.63249 252 
L 335.371238 252 
L 335.371238 148.457143 
L 329.63249 148.457143 
z
" style="fill:#1f77b4;opacity:0.4;"/>
   </g>
   <g id="patch_35">
    <path clip-path="url(#p7898be37fd)" d="M 335.371238 252 
L 341.109986 252 
L 341.109986 105.314286 
L 335.371238 105.314286 
z
" style="fill:#1f77b4;opacity:0.4;"/>
   </g>
   <g id="patch_36">
    <path clip-path="url(#p7898be37fd)" d="M 341.109986 252 
L 346.848734 252 
L 346.848734 105.314286 
L 341.109986 105.314286 
z
" style="fill:#1f77b4;opacity:0.4;"/>
   </g>
   <g id="patch_37">
    <path clip-path="url(#p7898be37fd)" d="M 346.848734 252 
L 352.587483 252 
L 352.587483 131.2 
L 346.848734 131.2 
z
" style="fill:#1f77b4;opacity:0.4;"/>
   </g>
   <g id="patch_38">
    <path clip-path="url(#p7898be37fd)" d="M 352.587483 252 
L 358.326231 252 
L 358.326231 226.114286 
L 352.587483 226.114286 
z
" style="fill:#1f77b4;opacity:0.4;"/>
   </g>
   <g id="patch_39">
    <path clip-path="url(#p7898be37fd)" d="M 358.326231 252 
L 364.064979 252 
L 364.064979 234.742857 
L 358.326231 234.742857 
z
" style="fill:#1f77b4;opacity:0.4;"/>
   </g>
   <g id="patch_40">
    <path clip-path="url(#p7898be37fd)" d="M 364.064979 252 
L 369.803727 252 
L 369.803727 243.371429 
L 364.064979 243.371429 
z
" style="fill:#1f77b4;opacity:0.4;"/>
   </g>
   <g id="patch_41">
    <path clip-path="url(#p7898be37fd)" d="M 369.803727 252 
L 375.542476 252 
L 375.542476 217.485714 
L 369.803727 217.485714 
z
" style="fill:#1f77b4;opacity:0.4;"/>
   </g>
   <g id="patch_42">
    <path clip-path="url(#p7898be37fd)" d="M 375.542476 252 
L 381.281224 252 
L 381.281224 234.742857 
L 375.542476 234.742857 
z
" style="fill:#1f77b4;opacity:0.4;"/>
   </g>
   <g id="patch_43">
    <path clip-path="url(#p7898be37fd)" d="M 381.281224 252 
L 387.019972 252 
L 387.019972 243.371429 
L 381.281224 243.371429 
z
" style="fill:#1f77b4;opacity:0.4;"/>
   </g>
   <g id="patch_44">
    <path clip-path="url(#p7898be37fd)" d="M 387.019972 252 
L 392.758721 252 
L 392.758721 234.742857 
L 387.019972 234.742857 
z
" style="fill:#1f77b4;opacity:0.4;"/>
   </g>
   <g id="patch_45">
    <path clip-path="url(#p7898be37fd)" d="M 392.758721 252 
L 398.497469 252 
L 398.497469 252 
L 392.758721 252 
z
" style="fill:#1f77b4;opacity:0.4;"/>
   </g>
   <g id="patch_46">
    <path clip-path="url(#p7898be37fd)" d="M 398.497469 252 
L 404.236217 252 
L 404.236217 243.371429 
L 398.497469 243.371429 
z
" style="fill:#1f77b4;opacity:0.4;"/>
   </g>
   <g id="patch_47">
    <path clip-path="url(#p7898be37fd)" d="M 404.236217 252 
L 409.974965 252 
L 409.974965 252 
L 404.236217 252 
z
" style="fill:#1f77b4;opacity:0.4;"/>
   </g>
   <g id="patch_48">
    <path clip-path="url(#p7898be37fd)" d="M 409.974965 252 
L 415.713714 252 
L 415.713714 252 
L 409.974965 252 
z
" style="fill:#1f77b4;opacity:0.4;"/>
   </g>
   <g id="patch_49">
    <path clip-path="url(#p7898be37fd)" d="M 415.713714 252 
L 421.452462 252 
L 421.452462 243.371429 
L 415.713714 243.371429 
z
" style="fill:#1f77b4;opacity:0.4;"/>
   </g>
   <g id="patch_50">
    <path clip-path="url(#p7898be37fd)" d="M 421.452462 252 
L 427.19121 252 
L 427.19121 252 
L 421.452462 252 
z
" style="fill:#1f77b4;opacity:0.4;"/>
   </g>
   <g id="patch_51">
    <path clip-path="url(#p7898be37fd)" d="M 427.19121 252 
L 432.929958 252 
L 432.929958 252 
L 427.19121 252 
z
" style="fill:#1f77b4;opacity:0.4;"/>
   </g>
   <g id="patch_52">
    <path clip-path="url(#p7898be37fd)" d="M 432.929958 252 
L 438.668707 252 
L 438.668707 243.371429 
L 432.929958 243.371429 
z
" style="fill:#1f77b4;opacity:0.4;"/>
   </g>
   <g id="matplotlib.axis_1">
    <g id="xtick_1">
     <g id="line2d_1">
      <defs>
       <path d="M 0 0 
L 0 3.5 
" id="m90a1828819" style="stroke:#000000;stroke-width:0.8;"/>
      </defs>
      <g>
       <use style="stroke:#000000;stroke-width:0.8;" x="151.731293" xlink:href="#m90a1828819" y="252"/>
      </g>
     </g>
     <g id="text_1">
      <!-- −1.0 -->
      <defs>
       <path d="M 10.59375 35.5 
L 73.1875 35.5 
L 73.1875 27.203125 
L 10.59375 27.203125 
z
" id="DejaVuSans-8722"/>
       <path d="M 12.40625 8.296875 
L 28.515625 8.296875 
L 28.515625 63.921875 
L 10.984375 60.40625 
L 10.984375 69.390625 
L 28.421875 72.90625 
L 38.28125 72.90625 
L 38.28125 8.296875 
L 54.390625 8.296875 
L 54.390625 0 
L 12.40625 0 
z
" id="DejaVuSans-49"/>
       <path d="M 10.6875 12.40625 
L 21 12.40625 
L 21 0 
L 10.6875 0 
z
" id="DejaVuSans-46"/>
       <path d="M 31.78125 66.40625 
Q 24.171875 66.40625 20.328125 58.90625 
Q 16.5 51.421875 16.5 36.375 
Q 16.5 21.390625 20.328125 13.890625 
Q 24.171875 6.390625 31.78125 6.390625 
Q 39.453125 6.390625 43.28125 13.890625 
Q 47.125 21.390625 47.125 36.375 
Q 47.125 51.421875 43.28125 58.90625 
Q 39.453125 66.40625 31.78125 66.40625 
z
M 31.78125 74.21875 
Q 44.046875 74.21875 50.515625 64.515625 
Q 56.984375 54.828125 56.984375 36.375 
Q 56.984375 17.96875 50.515625 8.265625 
Q 44.046875 -1.421875 31.78125 -1.421875 
Q 19.53125 -1.421875 13.0625 8.265625 
Q 6.59375 17.96875 6.59375 36.375 
Q 6.59375 54.828125 13.0625 64.515625 
Q 19.53125 74.21875 31.78125 74.21875 
z
" id="DejaVuSans-48"/>
      </defs>
      <g transform="translate(139.589887 266.598437)scale(0.1 -0.1)">
       <use xlink:href="#DejaVuSans-8722"/>
       <use x="83.789062" xlink:href="#DejaVuSans-49"/>
       <use x="147.412109" xlink:href="#DejaVuSans-46"/>
       <use x="179.199219" xlink:href="#DejaVuSans-48"/>
      </g>
     </g>
    </g>
    <g id="xtick_2">
     <g id="line2d_2">
      <g>
       <use style="stroke:#000000;stroke-width:0.8;" x="238.654415" xlink:href="#m90a1828819" y="252"/>
      </g>
     </g>
     <g id="text_2">
      <!-- −0.5 -->
      <defs>
       <path d="M 10.796875 72.90625 
L 49.515625 72.90625 
L 49.515625 64.59375 
L 19.828125 64.59375 
L 19.828125 46.734375 
Q 21.96875 47.46875 24.109375 47.828125 
Q 26.265625 48.1875 28.421875 48.1875 
Q 40.625 48.1875 47.75 41.5 
Q 54.890625 34.8125 54.890625 23.390625 
Q 54.890625 11.625 47.5625 5.09375 
Q 40.234375 -1.421875 26.90625 -1.421875 
Q 22.3125 -1.421875 17.546875 -0.640625 
Q 12.796875 0.140625 7.71875 1.703125 
L 7.71875 11.625 
Q 12.109375 9.234375 16.796875 8.0625 
Q 21.484375 6.890625 26.703125 6.890625 
Q 35.15625 6.890625 40.078125 11.328125 
Q 45.015625 15.765625 45.015625 23.390625 
Q 45.015625 31 40.078125 35.4375 
Q 35.15625 39.890625 26.703125 39.890625 
Q 22.75 39.890625 18.8125 39.015625 
Q 14.890625 38.140625 10.796875 36.28125 
z
" id="DejaVuSans-53"/>
      </defs>
      <g transform="translate(226.513009 266.598437)scale(0.1 -0.1)">
       <use xlink:href="#DejaVuSans-8722"/>
       <use x="83.789062" xlink:href="#DejaVuSans-48"/>
       <use x="147.412109" xlink:href="#DejaVuSans-46"/>
       <use x="179.199219" xlink:href="#DejaVuSans-53"/>
      </g>
     </g>
    </g>
    <g id="xtick_3">
     <g id="line2d_3">
      <g>
       <use style="stroke:#000000;stroke-width:0.8;" x="325.577537" xlink:href="#m90a1828819" y="252"/>
      </g>
     </g>
     <g id="text_3">
      <!-- 0.0 -->
      <g transform="translate(317.625975 266.598437)scale(0.1 -0.1)">
       <use xlink:href="#DejaVuSans-48"/>
       <use x="63.623047" xlink:href="#DejaVuSans-46"/>
       <use x="95.410156" xlink:href="#DejaVuSans-48"/>
      </g>
     </g>
    </g>
    <g id="xtick_4">
     <g id="line2d_4">
      <g>
       <use style="stroke:#000000;stroke-width:0.8;" x="412.50066" xlink:href="#m90a1828819" y="252"/>
      </g>
     </g>
     <g id="text_4">
      <!-- 0.5 -->
      <g transform="translate(404.549097 266.598437)scale(0.1 -0.1)">
       <use xlink:href="#DejaVuSans-48"/>
       <use x="63.623047" xlink:href="#DejaVuSans-46"/>
       <use x="95.410156" xlink:href="#DejaVuSans-53"/>
      </g>
     </g>
    </g>
    <g id="xtick_5">
     <g id="line2d_5">
      <g>
       <use style="stroke:#000000;stroke-width:0.8;" x="499.423782" xlink:href="#m90a1828819" y="252"/>
      </g>
     </g>
     <g id="text_5">
      <!-- 1.0 -->
      <g transform="translate(491.472219 266.598437)scale(0.1 -0.1)">
       <use xlink:href="#DejaVuSans-49"/>
       <use x="63.623047" xlink:href="#DejaVuSans-46"/>
       <use x="95.410156" xlink:href="#DejaVuSans-48"/>
      </g>
     </g>
    </g>
    <g id="text_6">
     <!-- RelDiff -->
     <defs>
      <path d="M 44.390625 34.1875 
Q 47.5625 33.109375 50.5625 29.59375 
Q 53.5625 26.078125 56.59375 19.921875 
L 66.609375 0 
L 56 0 
L 46.6875 18.703125 
Q 43.0625 26.03125 39.671875 28.421875 
Q 36.28125 30.8125 30.421875 30.8125 
L 19.671875 30.8125 
L 19.671875 0 
L 9.8125 0 
L 9.8125 72.90625 
L 32.078125 72.90625 
Q 44.578125 72.90625 50.734375 67.671875 
Q 56.890625 62.453125 56.890625 51.90625 
Q 56.890625 45.015625 53.6875 40.46875 
Q 50.484375 35.9375 44.390625 34.1875 
z
M 19.671875 64.796875 
L 19.671875 38.921875 
L 32.078125 38.921875 
Q 39.203125 38.921875 42.84375 42.21875 
Q 46.484375 45.515625 46.484375 51.90625 
Q 46.484375 58.296875 42.84375 61.546875 
Q 39.203125 64.796875 32.078125 64.796875 
z
" id="DejaVuSans-82"/>
      <path d="M 56.203125 29.59375 
L 56.203125 25.203125 
L 14.890625 25.203125 
Q 15.484375 15.921875 20.484375 11.0625 
Q 25.484375 6.203125 34.421875 6.203125 
Q 39.59375 6.203125 44.453125 7.46875 
Q 49.3125 8.734375 54.109375 11.28125 
L 54.109375 2.78125 
Q 49.265625 0.734375 44.1875 -0.34375 
Q 39.109375 -1.421875 33.890625 -1.421875 
Q 20.796875 -1.421875 13.15625 6.1875 
Q 5.515625 13.8125 5.515625 26.8125 
Q 5.515625 40.234375 12.765625 48.109375 
Q 20.015625 56 32.328125 56 
Q 43.359375 56 49.78125 48.890625 
Q 56.203125 41.796875 56.203125 29.59375 
z
M 47.21875 32.234375 
Q 47.125 39.59375 43.09375 43.984375 
Q 39.0625 48.390625 32.421875 48.390625 
Q 24.90625 48.390625 20.390625 44.140625 
Q 15.875 39.890625 15.1875 32.171875 
z
" id="DejaVuSans-101"/>
      <path d="M 9.421875 75.984375 
L 18.40625 75.984375 
L 18.40625 0 
L 9.421875 0 
z
" id="DejaVuSans-108"/>
      <path d="M 19.671875 64.796875 
L 19.671875 8.109375 
L 31.59375 8.109375 
Q 46.6875 8.109375 53.6875 14.9375 
Q 60.6875 21.78125 60.6875 36.53125 
Q 60.6875 51.171875 53.6875 57.984375 
Q 46.6875 64.796875 31.59375 64.796875 
z
M 9.8125 72.90625 
L 30.078125 72.90625 
Q 51.265625 72.90625 61.171875 64.09375 
Q 71.09375 55.28125 71.09375 36.53125 
Q 71.09375 17.671875 61.125 8.828125 
Q 51.171875 0 30.078125 0 
L 9.8125 0 
z
" id="DejaVuSans-68"/>
      <path d="M 9.421875 54.6875 
L 18.40625 54.6875 
L 18.40625 0 
L 9.421875 0 
z
M 9.421875 75.984375 
L 18.40625 75.984375 
L 18.40625 64.59375 
L 9.421875 64.59375 
z
" id="DejaVuSans-105"/>
      <path d="M 37.109375 75.984375 
L 37.109375 68.5 
L 28.515625 68.5 
Q 23.6875 68.5 21.796875 66.546875 
Q 19.921875 64.59375 19.921875 59.515625 
L 19.921875 54.6875 
L 34.71875 54.6875 
L 34.71875 47.703125 
L 19.921875 47.703125 
L 19.921875 0 
L 10.890625 0 
L 10.890625 47.703125 
L 2.296875 47.703125 
L 2.296875 54.6875 
L 10.890625 54.6875 
L 10.890625 58.5 
Q 10.890625 67.625 15.140625 71.796875 
Q 19.390625 75.984375 28.609375 75.984375 
z
" id="DejaVuSans-102"/>
     </defs>
     <g transform="translate(278.503906 280.276563)scale(0.1 -0.1)">
      <use xlink:href="#DejaVuSans-82"/>
      <use x="69.419922" xlink:href="#DejaVuSans-101"/>
      <use x="130.943359" xlink:href="#DejaVuSans-108"/>
      <use x="158.726562" xlink:href="#DejaVuSans-68"/>
      <use x="235.728516" xlink:href="#DejaVuSans-105"/>
      <use x="263.511719" xlink:href="#DejaVuSans-102"/>
      <use x="298.716797" xlink:href="#DejaVuSans-102"/>
     </g>
    </g>
   </g>
   <g id="matplotlib.axis_2">
    <g id="ytick_1">
     <g id="line2d_6">
      <defs>
       <path d="M 0 0 
L -3.5 0 
" id="m51bc761dda" style="stroke:#000000;stroke-width:0.8;"/>
      </defs>
      <g>
       <use style="stroke:#000000;stroke-width:0.8;" x="72" xlink:href="#m51bc761dda" y="252"/>
      </g>
     </g>
     <g id="text_7">
      <!-- 0.0 -->
      <g transform="translate(49.096875 255.799219)scale(0.1 -0.1)">
       <use xlink:href="#DejaVuSans-48"/>
       <use x="63.623047" xlink:href="#DejaVuSans-46"/>
       <use x="95.410156" xlink:href="#DejaVuSans-48"/>
      </g>
     </g>
    </g>
    <g id="ytick_2">
     <g id="line2d_7">
      <g>
       <use style="stroke:#000000;stroke-width:0.8;" x="72" xlink:href="#m51bc761dda" y="226.649836"/>
      </g>
     </g>
     <g id="text_8">
      <!-- 0.5 -->
      <g transform="translate(49.096875 230.449055)scale(0.1 -0.1)">
       <use xlink:href="#DejaVuSans-48"/>
       <use x="63.623047" xlink:href="#DejaVuSans-46"/>
       <use x="95.410156" xlink:href="#DejaVuSans-53"/>
      </g>
     </g>
    </g>
    <g id="ytick_3">
     <g id="line2d_8">
      <g>
       <use style="stroke:#000000;stroke-width:0.8;" x="72" xlink:href="#m51bc761dda" y="201.299673"/>
      </g>
     </g>
     <g id="text_9">
      <!-- 1.0 -->
      <g transform="translate(49.096875 205.098891)scale(0.1 -0.1)">
       <use xlink:href="#DejaVuSans-49"/>
       <use x="63.623047" xlink:href="#DejaVuSans-46"/>
       <use x="95.410156" xlink:href="#DejaVuSans-48"/>
      </g>
     </g>
    </g>
    <g id="ytick_4">
     <g id="line2d_9">
      <g>
       <use style="stroke:#000000;stroke-width:0.8;" x="72" xlink:href="#m51bc761dda" y="175.949509"/>
      </g>
     </g>
     <g id="text_10">
      <!-- 1.5 -->
      <g transform="translate(49.096875 179.748728)scale(0.1 -0.1)">
       <use xlink:href="#DejaVuSans-49"/>
       <use x="63.623047" xlink:href="#DejaVuSans-46"/>
       <use x="95.410156" xlink:href="#DejaVuSans-53"/>
      </g>
     </g>
    </g>
    <g id="ytick_5">
     <g id="line2d_10">
      <g>
       <use style="stroke:#000000;stroke-width:0.8;" x="72" xlink:href="#m51bc761dda" y="150.599345"/>
      </g>
     </g>
     <g id="text_11">
      <!-- 2.0 -->
      <defs>
       <path d="M 19.1875 8.296875 
L 53.609375 8.296875 
L 53.609375 0 
L 7.328125 0 
L 7.328125 8.296875 
Q 12.9375 14.109375 22.625 23.890625 
Q 32.328125 33.6875 34.8125 36.53125 
Q 39.546875 41.84375 41.421875 45.53125 
Q 43.3125 49.21875 43.3125 52.78125 
Q 43.3125 58.59375 39.234375 62.25 
Q 35.15625 65.921875 28.609375 65.921875 
Q 23.96875 65.921875 18.8125 64.3125 
Q 13.671875 62.703125 7.8125 59.421875 
L 7.8125 69.390625 
Q 13.765625 71.78125 18.9375 73 
Q 24.125 74.21875 28.421875 74.21875 
Q 39.75 74.21875 46.484375 68.546875 
Q 53.21875 62.890625 53.21875 53.421875 
Q 53.21875 48.921875 51.53125 44.890625 
Q 49.859375 40.875 45.40625 35.40625 
Q 44.1875 33.984375 37.640625 27.21875 
Q 31.109375 20.453125 19.1875 8.296875 
z
" id="DejaVuSans-50"/>
      </defs>
      <g transform="translate(49.096875 154.398564)scale(0.1 -0.1)">
       <use xlink:href="#DejaVuSans-50"/>
       <use x="63.623047" xlink:href="#DejaVuSans-46"/>
       <use x="95.410156" xlink:href="#DejaVuSans-48"/>
      </g>
     </g>
    </g>
    <g id="ytick_6">
     <g id="line2d_11">
      <g>
       <use style="stroke:#000000;stroke-width:0.8;" x="72" xlink:href="#m51bc761dda" y="125.249182"/>
      </g>
     </g>
     <g id="text_12">
      <!-- 2.5 -->
      <g transform="translate(49.096875 129.0484)scale(0.1 -0.1)">
       <use xlink:href="#DejaVuSans-50"/>
       <use x="63.623047" xlink:href="#DejaVuSans-46"/>
       <use x="95.410156" xlink:href="#DejaVuSans-53"/>
      </g>
     </g>
    </g>
    <g id="ytick_7">
     <g id="line2d_12">
      <g>
       <use style="stroke:#000000;stroke-width:0.8;" x="72" xlink:href="#m51bc761dda" y="99.899018"/>
      </g>
     </g>
     <g id="text_13">
      <!-- 3.0 -->
      <defs>
       <path d="M 40.578125 39.3125 
Q 47.65625 37.796875 51.625 33 
Q 55.609375 28.21875 55.609375 21.1875 
Q 55.609375 10.40625 48.1875 4.484375 
Q 40.765625 -1.421875 27.09375 -1.421875 
Q 22.515625 -1.421875 17.65625 -0.515625 
Q 12.796875 0.390625 7.625 2.203125 
L 7.625 11.71875 
Q 11.71875 9.328125 16.59375 8.109375 
Q 21.484375 6.890625 26.8125 6.890625 
Q 36.078125 6.890625 40.9375 10.546875 
Q 45.796875 14.203125 45.796875 21.1875 
Q 45.796875 27.640625 41.28125 31.265625 
Q 36.765625 34.90625 28.71875 34.90625 
L 20.21875 34.90625 
L 20.21875 43.015625 
L 29.109375 43.015625 
Q 36.375 43.015625 40.234375 45.921875 
Q 44.09375 48.828125 44.09375 54.296875 
Q 44.09375 59.90625 40.109375 62.90625 
Q 36.140625 65.921875 28.71875 65.921875 
Q 24.65625 65.921875 20.015625 65.03125 
Q 15.375 64.15625 9.8125 62.3125 
L 9.8125 71.09375 
Q 15.4375 72.65625 20.34375 73.4375 
Q 25.25 74.21875 29.59375 74.21875 
Q 40.828125 74.21875 47.359375 69.109375 
Q 53.90625 64.015625 53.90625 55.328125 
Q 53.90625 49.265625 50.4375 45.09375 
Q 46.96875 40.921875 40.578125 39.3125 
z
" id="DejaVuSans-51"/>
      </defs>
      <g transform="translate(49.096875 103.698237)scale(0.1 -0.1)">
       <use xlink:href="#DejaVuSans-51"/>
       <use x="63.623047" xlink:href="#DejaVuSans-46"/>
       <use x="95.410156" xlink:href="#DejaVuSans-48"/>
      </g>
     </g>
    </g>
    <g id="ytick_8">
     <g id="line2d_13">
      <g>
       <use style="stroke:#000000;stroke-width:0.8;" x="72" xlink:href="#m51bc761dda" y="74.548854"/>
      </g>
     </g>
     <g id="text_14">
      <!-- 3.5 -->
      <g transform="translate(49.096875 78.348073)scale(0.1 -0.1)">
       <use xlink:href="#DejaVuSans-51"/>
       <use x="63.623047" xlink:href="#DejaVuSans-46"/>
       <use x="95.410156" xlink:href="#DejaVuSans-53"/>
      </g>
     </g>
    </g>
    <g id="ytick_9">
     <g id="line2d_14">
      <g>
       <use style="stroke:#000000;stroke-width:0.8;" x="72" xlink:href="#m51bc761dda" y="49.198691"/>
      </g>
     </g>
     <g id="text_15">
      <!-- 4.0 -->
      <defs>
       <path d="M 37.796875 64.3125 
L 12.890625 25.390625 
L 37.796875 25.390625 
z
M 35.203125 72.90625 
L 47.609375 72.90625 
L 47.609375 25.390625 
L 58.015625 25.390625 
L 58.015625 17.1875 
L 47.609375 17.1875 
L 47.609375 0 
L 37.796875 0 
L 37.796875 17.1875 
L 4.890625 17.1875 
L 4.890625 26.703125 
z
" id="DejaVuSans-52"/>
      </defs>
      <g transform="translate(49.096875 52.997909)scale(0.1 -0.1)">
       <use xlink:href="#DejaVuSans-52"/>
       <use x="63.623047" xlink:href="#DejaVuSans-46"/>
       <use x="95.410156" xlink:href="#DejaVuSans-48"/>
      </g>
     </g>
    </g>
   </g>
   <g id="line2d_15">
    <path clip-path="url(#p7898be37fd)" d="M 92.290909 251.830086 
L 96.390083 251.691663 
L 100.489256 251.463788 
L 104.58843 251.106356 
L 108.687603 250.572718 
L 112.786777 249.815395 
L 116.88595 248.795535 
L 120.985124 247.495358 
L 125.084298 245.931358 
L 129.183471 244.164691 
L 133.282645 242.304608 
L 137.381818 240.501593 
L 141.480992 238.929178 
L 145.580165 237.75673 
L 149.679339 237.118826 
L 153.778512 237.088765 
L 157.877686 237.663381 
L 161.97686 238.763553 
L 166.076033 240.250368 
L 170.175207 241.952544 
L 174.27438 243.697782 
L 178.373554 245.340302 
L 182.472727 246.778717 
L 186.571901 247.961827 
L 190.671074 248.883397 
L 194.770248 249.569556 
L 198.869421 250.06342 
L 202.968595 250.411053 
L 207.067769 250.65141 
L 211.166942 250.81115 
L 215.266116 250.903736 
L 219.365289 250.931307 
L 223.464463 250.887533 
L 227.563636 250.75988 
L 231.66281 250.530276 
L 235.761983 250.173773 
L 239.861157 249.65548 
L 243.960331 248.926468 
L 248.059504 247.919743 
L 252.158678 246.547535 
L 256.257851 244.7013 
L 260.357025 242.255764 
L 264.456198 239.078187 
L 268.555372 235.043414 
L 272.654545 230.054268 
L 276.753719 224.06525 
L 280.852893 217.105748 
L 284.952066 209.297461 
L 289.05124 200.860465 
L 293.150413 192.103746 
L 297.249587 183.399325 
L 301.34876 175.143561 
L 305.447934 167.71341 
L 309.547107 161.427579 
L 313.646281 156.521558 
L 317.745455 153.141141 
L 321.844628 151.35285 
L 325.943802 151.163948 
L 330.042975 152.54189 
L 334.142149 155.424511 
L 338.241322 159.71741 
L 342.340496 165.281656 
L 346.439669 171.920112 
L 350.538843 179.372091 
L 354.638017 187.323084 
L 358.73719 195.430378 
L 362.836364 203.35916 
L 366.935537 210.819723 
L 371.034711 217.596183 
L 375.133884 223.56029 
L 379.233058 228.668927 
L 383.332231 232.948575 
L 387.431405 236.472861 
L 391.530579 239.339595 
L 395.629752 241.652115 
L 399.728926 243.507144 
L 403.828099 244.989046 
L 407.927273 246.168811 
L 412.026446 247.105673 
L 416.12562 247.849531 
L 420.224793 248.443033 
L 424.323967 248.92283 
L 428.42314 249.32002 
L 432.522314 249.660025 
L 436.621488 249.962288 
L 440.720661 250.240105 
L 444.819835 250.500881 
L 448.919008 250.746932 
L 453.018182 250.976798 
L 457.117355 251.186875 
L 461.216529 251.373084 
L 465.315702 251.532242 
L 469.414876 251.662934 
L 473.51405 251.765799 
L 477.613223 251.843294 
L 481.712397 251.899128 
L 485.81157 251.937584 
L 489.910744 251.962899 
L 494.009917 251.978825 
L 498.109091 251.988401 
" style="fill:none;stroke:#1f77b4;stroke-linecap:square;stroke-width:1.5;"/>
   </g>
   <g id="patch_53">
    <path d="M 72 252 
L 72 34.56 
" style="fill:none;stroke:#000000;stroke-linecap:square;stroke-linejoin:miter;stroke-width:0.8;"/>
   </g>
   <g id="patch_54">
    <path d="M 518.4 252 
L 518.4 34.56 
" style="fill:none;stroke:#000000;stroke-linecap:square;stroke-linejoin:miter;stroke-width:0.8;"/>
   </g>
   <g id="patch_55">
    <path d="M 72 252 
L 518.4 252 
" style="fill:none;stroke:#000000;stroke-linecap:square;stroke-linejoin:miter;stroke-width:0.8;"/>
   </g>
   <g id="patch_56">
    <path d="M 72 34.56 
L 518.4 34.56 
" style="fill:none;stroke:#000000;stroke-linecap:square;stroke-linejoin:miter;stroke-width:0.8;"/>
   </g>
  </g>
 </g>
 <defs>
  <clipPath id="p7898be37fd">
   <rect height="217.44" width="446.4" x="72" y="34.56"/>
  </clipPath>
 </defs>
</svg>
