<?xml version="1.0" encoding="utf-8" standalone="no"?>
<!DOCTYPE svg PUBLIC "-//W3C//DTD SVG 1.1//EN"
  "http://www.w3.org/Graphics/SVG/1.1/DTD/svg11.dtd">
<!-- Created with matplotlib (https://matplotlib.org/) -->
<svg height="576pt" version="1.1" viewBox="0 0 576 576" width="576pt" xmlns="http://www.w3.org/2000/svg" xmlns:xlink="http://www.w3.org/1999/xlink">
 <defs>
  <style type="text/css">
*{stroke-linecap:butt;stroke-linejoin:round;}
  </style>
 </defs>
 <g id="figure_1">
  <g id="patch_1">
   <path d="M 0 576 
L 576 576 
L 576 0 
L 0 0 
z
" style="fill:#ffffff;"/>
  </g>
  <g id="axes_1">
   <g id="patch_2">
    <path d="M 72 504 
L 518.4 504 
L 518.4 69.12 
L 72 69.12 
z
" style="fill:#ffffff;"/>
   </g>
   <g id="matplotlib.axis_1">
    <g id="xtick_1">
     <g id="line2d_1">
      <defs>
       <path d="M 0 0 
L 0 3.5 
" id="m4fdd1e7434" style="stroke:#000000;stroke-width:0.8;"/>
      </defs>
      <g>
       <use style="stroke:#000000;stroke-width:0.8;" x="72" xlink:href="#m4fdd1e7434" y="504"/>
      </g>
     </g>
     <g id="text_1">
      <!-- 0 -->
      <defs>
       <path d="M 31.78125 66.40625 
Q 24.171875 66.40625 20.328125 58.90625 
Q 16.5 51.421875 16.5 36.375 
Q 16.5 21.390625 20.328125 13.890625 
Q 24.171875 6.390625 31.78125 6.390625 
Q 39.453125 6.390625 43.28125 13.890625 
Q 47.125 21.390625 47.125 36.375 
Q 47.125 51.421875 43.28125 58.90625 
Q 39.453125 66.40625 31.78125 66.40625 
z
M 31.78125 74.21875 
Q 44.046875 74.21875 50.515625 64.515625 
Q 56.984375 54.828125 56.984375 36.375 
Q 56.984375 17.96875 50.515625 8.265625 
Q 44.046875 -1.421875 31.78125 -1.421875 
Q 19.53125 -1.421875 13.0625 8.265625 
Q 6.59375 17.96875 6.59375 36.375 
Q 6.59375 54.828125 13.0625 64.515625 
Q 19.53125 74.21875 31.78125 74.21875 
z
" id="DejaVuSans-48"/>
      </defs>
      <g transform="translate(68.81875 518.598438)scale(0.1 -0.1)">
       <use xlink:href="#DejaVuSans-48"/>
      </g>
     </g>
    </g>
    <g id="xtick_2">
     <g id="line2d_2">
      <g>
       <use style="stroke:#000000;stroke-width:0.8;" x="220.8" xlink:href="#m4fdd1e7434" y="504"/>
      </g>
     </g>
     <g id="text_2">
      <!-- 5 -->
      <defs>
       <path d="M 10.796875 72.90625 
L 49.515625 72.90625 
L 49.515625 64.59375 
L 19.828125 64.59375 
L 19.828125 46.734375 
Q 21.96875 47.46875 24.109375 47.828125 
Q 26.265625 48.1875 28.421875 48.1875 
Q 40.625 48.1875 47.75 41.5 
Q 54.890625 34.8125 54.890625 23.390625 
Q 54.890625 11.625 47.5625 5.09375 
Q 40.234375 -1.421875 26.90625 -1.421875 
Q 22.3125 -1.421875 17.546875 -0.640625 
Q 12.796875 0.140625 7.71875 1.703125 
L 7.71875 11.625 
Q 12.109375 9.234375 16.796875 8.0625 
Q 21.484375 6.890625 26.703125 6.890625 
Q 35.15625 6.890625 40.078125 11.328125 
Q 45.015625 15.765625 45.015625 23.390625 
Q 45.015625 31 40.078125 35.4375 
Q 35.15625 39.890625 26.703125 39.890625 
Q 22.75 39.890625 18.8125 39.015625 
Q 14.890625 38.140625 10.796875 36.28125 
z
" id="DejaVuSans-53"/>
      </defs>
      <g transform="translate(217.61875 518.598438)scale(0.1 -0.1)">
       <use xlink:href="#DejaVuSans-53"/>
      </g>
     </g>
    </g>
    <g id="xtick_3">
     <g id="line2d_3">
      <g>
       <use style="stroke:#000000;stroke-width:0.8;" x="369.6" xlink:href="#m4fdd1e7434" y="504"/>
      </g>
     </g>
     <g id="text_3">
      <!-- 10 -->
      <defs>
       <path d="M 12.40625 8.296875 
L 28.515625 8.296875 
L 28.515625 63.921875 
L 10.984375 60.40625 
L 10.984375 69.390625 
L 28.421875 72.90625 
L 38.28125 72.90625 
L 38.28125 8.296875 
L 54.390625 8.296875 
L 54.390625 0 
L 12.40625 0 
z
" id="DejaVuSans-49"/>
      </defs>
      <g transform="translate(363.2375 518.598438)scale(0.1 -0.1)">
       <use xlink:href="#DejaVuSans-49"/>
       <use x="63.623047" xlink:href="#DejaVuSans-48"/>
      </g>
     </g>
    </g>
    <g id="xtick_4">
     <g id="line2d_4">
      <g>
       <use style="stroke:#000000;stroke-width:0.8;" x="518.4" xlink:href="#m4fdd1e7434" y="504"/>
      </g>
     </g>
     <g id="text_4">
      <!-- 15 -->
      <g transform="translate(512.0375 518.598438)scale(0.1 -0.1)">
       <use xlink:href="#DejaVuSans-49"/>
       <use x="63.623047" xlink:href="#DejaVuSans-53"/>
      </g>
     </g>
    </g>
    <g id="text_5">
     <!-- C:N ratio -->
     <defs>
      <path d="M 64.40625 67.28125 
L 64.40625 56.890625 
Q 59.421875 61.53125 53.78125 63.8125 
Q 48.140625 66.109375 41.796875 66.109375 
Q 29.296875 66.109375 22.65625 58.46875 
Q 16.015625 50.828125 16.015625 36.375 
Q 16.015625 21.96875 22.65625 14.328125 
Q 29.296875 6.6875 41.796875 6.6875 
Q 48.140625 6.6875 53.78125 8.984375 
Q 59.421875 11.28125 64.40625 15.921875 
L 64.40625 5.609375 
Q 59.234375 2.09375 53.4375 0.328125 
Q 47.65625 -1.421875 41.21875 -1.421875 
Q 24.65625 -1.421875 15.125 8.703125 
Q 5.609375 18.84375 5.609375 36.375 
Q 5.609375 53.953125 15.125 64.078125 
Q 24.65625 74.21875 41.21875 74.21875 
Q 47.75 74.21875 53.53125 72.484375 
Q 59.328125 70.75 64.40625 67.28125 
z
" id="DejaVuSans-67"/>
      <path d="M 11.71875 12.40625 
L 22.015625 12.40625 
L 22.015625 0 
L 11.71875 0 
z
M 11.71875 51.703125 
L 22.015625 51.703125 
L 22.015625 39.3125 
L 11.71875 39.3125 
z
" id="DejaVuSans-58"/>
      <path d="M 9.8125 72.90625 
L 23.09375 72.90625 
L 55.421875 11.921875 
L 55.421875 72.90625 
L 64.984375 72.90625 
L 64.984375 0 
L 51.703125 0 
L 19.390625 60.984375 
L 19.390625 0 
L 9.8125 0 
z
" id="DejaVuSans-78"/>
      <path id="DejaVuSans-32"/>
      <path d="M 41.109375 46.296875 
Q 39.59375 47.171875 37.8125 47.578125 
Q 36.03125 48 33.890625 48 
Q 26.265625 48 22.1875 43.046875 
Q 18.109375 38.09375 18.109375 28.8125 
L 18.109375 0 
L 9.078125 0 
L 9.078125 54.6875 
L 18.109375 54.6875 
L 18.109375 46.1875 
Q 20.953125 51.171875 25.484375 53.578125 
Q 30.03125 56 36.53125 56 
Q 37.453125 56 38.578125 55.875 
Q 39.703125 55.765625 41.0625 55.515625 
z
" id="DejaVuSans-114"/>
      <path d="M 34.28125 27.484375 
Q 23.390625 27.484375 19.1875 25 
Q 14.984375 22.515625 14.984375 16.5 
Q 14.984375 11.71875 18.140625 8.90625 
Q 21.296875 6.109375 26.703125 6.109375 
Q 34.1875 6.109375 38.703125 11.40625 
Q 43.21875 16.703125 43.21875 25.484375 
L 43.21875 27.484375 
z
M 52.203125 31.203125 
L 52.203125 0 
L 43.21875 0 
L 43.21875 8.296875 
Q 40.140625 3.328125 35.546875 0.953125 
Q 30.953125 -1.421875 24.3125 -1.421875 
Q 15.921875 -1.421875 10.953125 3.296875 
Q 6 8.015625 6 15.921875 
Q 6 25.140625 12.171875 29.828125 
Q 18.359375 34.515625 30.609375 34.515625 
L 43.21875 34.515625 
L 43.21875 35.40625 
Q 43.21875 41.609375 39.140625 45 
Q 35.0625 48.390625 27.6875 48.390625 
Q 23 48.390625 18.546875 47.265625 
Q 14.109375 46.140625 10.015625 43.890625 
L 10.015625 52.203125 
Q 14.9375 54.109375 19.578125 55.046875 
Q 24.21875 56 28.609375 56 
Q 40.484375 56 46.34375 49.84375 
Q 52.203125 43.703125 52.203125 31.203125 
z
" id="DejaVuSans-97"/>
      <path d="M 18.3125 70.21875 
L 18.3125 54.6875 
L 36.8125 54.6875 
L 36.8125 47.703125 
L 18.3125 47.703125 
L 18.3125 18.015625 
Q 18.3125 11.328125 20.140625 9.421875 
Q 21.96875 7.515625 27.59375 7.515625 
L 36.8125 7.515625 
L 36.8125 0 
L 27.59375 0 
Q 17.1875 0 13.234375 3.875 
Q 9.28125 7.765625 9.28125 18.015625 
L 9.28125 47.703125 
L 2.6875 47.703125 
L 2.6875 54.6875 
L 9.28125 54.6875 
L 9.28125 70.21875 
z
" id="DejaVuSans-116"/>
      <path d="M 9.421875 54.6875 
L 18.40625 54.6875 
L 18.40625 0 
L 9.421875 0 
z
M 9.421875 75.984375 
L 18.40625 75.984375 
L 18.40625 64.59375 
L 9.421875 64.59375 
z
" id="DejaVuSans-105"/>
      <path d="M 30.609375 48.390625 
Q 23.390625 48.390625 19.1875 42.75 
Q 14.984375 37.109375 14.984375 27.296875 
Q 14.984375 17.484375 19.15625 11.84375 
Q 23.34375 6.203125 30.609375 6.203125 
Q 37.796875 6.203125 41.984375 11.859375 
Q 46.1875 17.53125 46.1875 27.296875 
Q 46.1875 37.015625 41.984375 42.703125 
Q 37.796875 48.390625 30.609375 48.390625 
z
M 30.609375 56 
Q 42.328125 56 49.015625 48.375 
Q 55.71875 40.765625 55.71875 27.296875 
Q 55.71875 13.875 49.015625 6.21875 
Q 42.328125 -1.421875 30.609375 -1.421875 
Q 18.84375 -1.421875 12.171875 6.21875 
Q 5.515625 13.875 5.515625 27.296875 
Q 5.515625 40.765625 12.171875 48.375 
Q 18.84375 56 30.609375 56 
z
" id="DejaVuSans-111"/>
     </defs>
     <g transform="translate(268.759687 533.79625)scale(0.12 -0.12)">
      <use xlink:href="#DejaVuSans-67"/>
      <use x="69.824219" xlink:href="#DejaVuSans-58"/>
      <use x="103.515625" xlink:href="#DejaVuSans-78"/>
      <use x="178.320312" xlink:href="#DejaVuSans-32"/>
      <use x="210.107422" xlink:href="#DejaVuSans-114"/>
      <use x="251.220703" xlink:href="#DejaVuSans-97"/>
      <use x="312.5" xlink:href="#DejaVuSans-116"/>
      <use x="351.708984" xlink:href="#DejaVuSans-105"/>
      <use x="379.492188" xlink:href="#DejaVuSans-111"/>
     </g>
    </g>
   </g>
   <g id="matplotlib.axis_2">
    <g id="ytick_1">
     <g id="line2d_5">
      <defs>
       <path d="M 0 0 
L -3.5 0 
" id="m265068ff6e" style="stroke:#000000;stroke-width:0.8;"/>
      </defs>
      <g>
       <use style="stroke:#000000;stroke-width:0.8;" x="72" xlink:href="#m265068ff6e" y="504"/>
      </g>
     </g>
     <g id="text_6">
      <!-- 0 -->
      <g transform="translate(58.6375 507.799219)scale(0.1 -0.1)">
       <use xlink:href="#DejaVuSans-48"/>
      </g>
     </g>
    </g>
    <g id="ytick_2">
     <g id="line2d_6">
      <g>
       <use style="stroke:#000000;stroke-width:0.8;" x="72" xlink:href="#m265068ff6e" y="395.28"/>
      </g>
     </g>
     <g id="text_7">
      <!-- 20 -->
      <defs>
       <path d="M 19.1875 8.296875 
L 53.609375 8.296875 
L 53.609375 0 
L 7.328125 0 
L 7.328125 8.296875 
Q 12.9375 14.109375 22.625 23.890625 
Q 32.328125 33.6875 34.8125 36.53125 
Q 39.546875 41.84375 41.421875 45.53125 
Q 43.3125 49.21875 43.3125 52.78125 
Q 43.3125 58.59375 39.234375 62.25 
Q 35.15625 65.921875 28.609375 65.921875 
Q 23.96875 65.921875 18.8125 64.3125 
Q 13.671875 62.703125 7.8125 59.421875 
L 7.8125 69.390625 
Q 13.765625 71.78125 18.9375 73 
Q 24.125 74.21875 28.421875 74.21875 
Q 39.75 74.21875 46.484375 68.546875 
Q 53.21875 62.890625 53.21875 53.421875 
Q 53.21875 48.921875 51.53125 44.890625 
Q 49.859375 40.875 45.40625 35.40625 
Q 44.1875 33.984375 37.640625 27.21875 
Q 31.109375 20.453125 19.1875 8.296875 
z
" id="DejaVuSans-50"/>
      </defs>
      <g transform="translate(52.275 399.079219)scale(0.1 -0.1)">
       <use xlink:href="#DejaVuSans-50"/>
       <use x="63.623047" xlink:href="#DejaVuSans-48"/>
      </g>
     </g>
    </g>
    <g id="ytick_3">
     <g id="line2d_7">
      <g>
       <use style="stroke:#000000;stroke-width:0.8;" x="72" xlink:href="#m265068ff6e" y="286.56"/>
      </g>
     </g>
     <g id="text_8">
      <!-- 40 -->
      <defs>
       <path d="M 37.796875 64.3125 
L 12.890625 25.390625 
L 37.796875 25.390625 
z
M 35.203125 72.90625 
L 47.609375 72.90625 
L 47.609375 25.390625 
L 58.015625 25.390625 
L 58.015625 17.1875 
L 47.609375 17.1875 
L 47.609375 0 
L 37.796875 0 
L 37.796875 17.1875 
L 4.890625 17.1875 
L 4.890625 26.703125 
z
" id="DejaVuSans-52"/>
      </defs>
      <g transform="translate(52.275 290.359219)scale(0.1 -0.1)">
       <use xlink:href="#DejaVuSans-52"/>
       <use x="63.623047" xlink:href="#DejaVuSans-48"/>
      </g>
     </g>
    </g>
    <g id="ytick_4">
     <g id="line2d_8">
      <g>
       <use style="stroke:#000000;stroke-width:0.8;" x="72" xlink:href="#m265068ff6e" y="177.84"/>
      </g>
     </g>
     <g id="text_9">
      <!-- 60 -->
      <defs>
       <path d="M 33.015625 40.375 
Q 26.375 40.375 22.484375 35.828125 
Q 18.609375 31.296875 18.609375 23.390625 
Q 18.609375 15.53125 22.484375 10.953125 
Q 26.375 6.390625 33.015625 6.390625 
Q 39.65625 6.390625 43.53125 10.953125 
Q 47.40625 15.53125 47.40625 23.390625 
Q 47.40625 31.296875 43.53125 35.828125 
Q 39.65625 40.375 33.015625 40.375 
z
M 52.59375 71.296875 
L 52.59375 62.3125 
Q 48.875 64.0625 45.09375 64.984375 
Q 41.3125 65.921875 37.59375 65.921875 
Q 27.828125 65.921875 22.671875 59.328125 
Q 17.53125 52.734375 16.796875 39.40625 
Q 19.671875 43.65625 24.015625 45.921875 
Q 28.375 48.1875 33.59375 48.1875 
Q 44.578125 48.1875 50.953125 41.515625 
Q 57.328125 34.859375 57.328125 23.390625 
Q 57.328125 12.15625 50.6875 5.359375 
Q 44.046875 -1.421875 33.015625 -1.421875 
Q 20.359375 -1.421875 13.671875 8.265625 
Q 6.984375 17.96875 6.984375 36.375 
Q 6.984375 53.65625 15.1875 63.9375 
Q 23.390625 74.21875 37.203125 74.21875 
Q 40.921875 74.21875 44.703125 73.484375 
Q 48.484375 72.75 52.59375 71.296875 
z
" id="DejaVuSans-54"/>
      </defs>
      <g transform="translate(52.275 181.639219)scale(0.1 -0.1)">
       <use xlink:href="#DejaVuSans-54"/>
       <use x="63.623047" xlink:href="#DejaVuSans-48"/>
      </g>
     </g>
    </g>
    <g id="ytick_5">
     <g id="line2d_9">
      <g>
       <use style="stroke:#000000;stroke-width:0.8;" x="72" xlink:href="#m265068ff6e" y="69.12"/>
      </g>
     </g>
     <g id="text_10">
      <!-- 80 -->
      <defs>
       <path d="M 31.78125 34.625 
Q 24.75 34.625 20.71875 30.859375 
Q 16.703125 27.09375 16.703125 20.515625 
Q 16.703125 13.921875 20.71875 10.15625 
Q 24.75 6.390625 31.78125 6.390625 
Q 38.8125 6.390625 42.859375 10.171875 
Q 46.921875 13.96875 46.921875 20.515625 
Q 46.921875 27.09375 42.890625 30.859375 
Q 38.875 34.625 31.78125 34.625 
z
M 21.921875 38.8125 
Q 15.578125 40.375 12.03125 44.71875 
Q 8.5 49.078125 8.5 55.328125 
Q 8.5 64.0625 14.71875 69.140625 
Q 20.953125 74.21875 31.78125 74.21875 
Q 42.671875 74.21875 48.875 69.140625 
Q 55.078125 64.0625 55.078125 55.328125 
Q 55.078125 49.078125 51.53125 44.71875 
Q 48 40.375 41.703125 38.8125 
Q 48.828125 37.15625 52.796875 32.3125 
Q 56.78125 27.484375 56.78125 20.515625 
Q 56.78125 9.90625 50.3125 4.234375 
Q 43.84375 -1.421875 31.78125 -1.421875 
Q 19.734375 -1.421875 13.25 4.234375 
Q 6.78125 9.90625 6.78125 20.515625 
Q 6.78125 27.484375 10.78125 32.3125 
Q 14.796875 37.15625 21.921875 38.8125 
z
M 18.3125 54.390625 
Q 18.3125 48.734375 21.84375 45.5625 
Q 25.390625 42.390625 31.78125 42.390625 
Q 38.140625 42.390625 41.71875 45.5625 
Q 45.3125 48.734375 45.3125 54.390625 
Q 45.3125 60.0625 41.71875 63.234375 
Q 38.140625 66.40625 31.78125 66.40625 
Q 25.390625 66.40625 21.84375 63.234375 
Q 18.3125 60.0625 18.3125 54.390625 
z
" id="DejaVuSans-56"/>
      </defs>
      <g transform="translate(52.275 72.919219)scale(0.1 -0.1)">
       <use xlink:href="#DejaVuSans-56"/>
       <use x="63.623047" xlink:href="#DejaVuSans-48"/>
      </g>
     </g>
    </g>
    <g id="text_11">
     <!-- % of Carbon Released -->
     <defs>
      <path d="M 72.703125 32.078125 
Q 68.453125 32.078125 66.03125 28.46875 
Q 63.625 24.859375 63.625 18.40625 
Q 63.625 12.0625 66.03125 8.421875 
Q 68.453125 4.78125 72.703125 4.78125 
Q 76.859375 4.78125 79.265625 8.421875 
Q 81.6875 12.0625 81.6875 18.40625 
Q 81.6875 24.8125 79.265625 28.4375 
Q 76.859375 32.078125 72.703125 32.078125 
z
M 72.703125 38.28125 
Q 80.421875 38.28125 84.953125 32.90625 
Q 89.5 27.546875 89.5 18.40625 
Q 89.5 9.28125 84.9375 3.921875 
Q 80.375 -1.421875 72.703125 -1.421875 
Q 64.890625 -1.421875 60.34375 3.921875 
Q 55.8125 9.28125 55.8125 18.40625 
Q 55.8125 27.59375 60.375 32.9375 
Q 64.9375 38.28125 72.703125 38.28125 
z
M 22.3125 68.015625 
Q 18.109375 68.015625 15.6875 64.375 
Q 13.28125 60.75 13.28125 54.390625 
Q 13.28125 47.953125 15.671875 44.328125 
Q 18.0625 40.71875 22.3125 40.71875 
Q 26.5625 40.71875 28.96875 44.328125 
Q 31.390625 47.953125 31.390625 54.390625 
Q 31.390625 60.6875 28.953125 64.34375 
Q 26.515625 68.015625 22.3125 68.015625 
z
M 66.40625 74.21875 
L 74.21875 74.21875 
L 28.609375 -1.421875 
L 20.796875 -1.421875 
z
M 22.3125 74.21875 
Q 30.03125 74.21875 34.609375 68.875 
Q 39.203125 63.53125 39.203125 54.390625 
Q 39.203125 45.171875 34.640625 39.84375 
Q 30.078125 34.515625 22.3125 34.515625 
Q 14.546875 34.515625 10.03125 39.859375 
Q 5.515625 45.21875 5.515625 54.390625 
Q 5.515625 63.484375 10.046875 68.84375 
Q 14.59375 74.21875 22.3125 74.21875 
z
" id="DejaVuSans-37"/>
      <path d="M 37.109375 75.984375 
L 37.109375 68.5 
L 28.515625 68.5 
Q 23.6875 68.5 21.796875 66.546875 
Q 19.921875 64.59375 19.921875 59.515625 
L 19.921875 54.6875 
L 34.71875 54.6875 
L 34.71875 47.703125 
L 19.921875 47.703125 
L 19.921875 0 
L 10.890625 0 
L 10.890625 47.703125 
L 2.296875 47.703125 
L 2.296875 54.6875 
L 10.890625 54.6875 
L 10.890625 58.5 
Q 10.890625 67.625 15.140625 71.796875 
Q 19.390625 75.984375 28.609375 75.984375 
z
" id="DejaVuSans-102"/>
      <path d="M 48.6875 27.296875 
Q 48.6875 37.203125 44.609375 42.84375 
Q 40.53125 48.484375 33.40625 48.484375 
Q 26.265625 48.484375 22.1875 42.84375 
Q 18.109375 37.203125 18.109375 27.296875 
Q 18.109375 17.390625 22.1875 11.75 
Q 26.265625 6.109375 33.40625 6.109375 
Q 40.53125 6.109375 44.609375 11.75 
Q 48.6875 17.390625 48.6875 27.296875 
z
M 18.109375 46.390625 
Q 20.953125 51.265625 25.265625 53.625 
Q 29.59375 56 35.59375 56 
Q 45.5625 56 51.78125 48.09375 
Q 58.015625 40.1875 58.015625 27.296875 
Q 58.015625 14.40625 51.78125 6.484375 
Q 45.5625 -1.421875 35.59375 -1.421875 
Q 29.59375 -1.421875 25.265625 0.953125 
Q 20.953125 3.328125 18.109375 8.203125 
L 18.109375 0 
L 9.078125 0 
L 9.078125 75.984375 
L 18.109375 75.984375 
z
" id="DejaVuSans-98"/>
      <path d="M 54.890625 33.015625 
L 54.890625 0 
L 45.90625 0 
L 45.90625 32.71875 
Q 45.90625 40.484375 42.875 44.328125 
Q 39.84375 48.1875 33.796875 48.1875 
Q 26.515625 48.1875 22.3125 43.546875 
Q 18.109375 38.921875 18.109375 30.90625 
L 18.109375 0 
L 9.078125 0 
L 9.078125 54.6875 
L 18.109375 54.6875 
L 18.109375 46.1875 
Q 21.34375 51.125 25.703125 53.5625 
Q 30.078125 56 35.796875 56 
Q 45.21875 56 50.046875 50.171875 
Q 54.890625 44.34375 54.890625 33.015625 
z
" id="DejaVuSans-110"/>
      <path d="M 44.390625 34.1875 
Q 47.5625 33.109375 50.5625 29.59375 
Q 53.5625 26.078125 56.59375 19.921875 
L 66.609375 0 
L 56 0 
L 46.6875 18.703125 
Q 43.0625 26.03125 39.671875 28.421875 
Q 36.28125 30.8125 30.421875 30.8125 
L 19.671875 30.8125 
L 19.671875 0 
L 9.8125 0 
L 9.8125 72.90625 
L 32.078125 72.90625 
Q 44.578125 72.90625 50.734375 67.671875 
Q 56.890625 62.453125 56.890625 51.90625 
Q 56.890625 45.015625 53.6875 40.46875 
Q 50.484375 35.9375 44.390625 34.1875 
z
M 19.671875 64.796875 
L 19.671875 38.921875 
L 32.078125 38.921875 
Q 39.203125 38.921875 42.84375 42.21875 
Q 46.484375 45.515625 46.484375 51.90625 
Q 46.484375 58.296875 42.84375 61.546875 
Q 39.203125 64.796875 32.078125 64.796875 
z
" id="DejaVuSans-82"/>
      <path d="M 56.203125 29.59375 
L 56.203125 25.203125 
L 14.890625 25.203125 
Q 15.484375 15.921875 20.484375 11.0625 
Q 25.484375 6.203125 34.421875 6.203125 
Q 39.59375 6.203125 44.453125 7.46875 
Q 49.3125 8.734375 54.109375 11.28125 
L 54.109375 2.78125 
Q 49.265625 0.734375 44.1875 -0.34375 
Q 39.109375 -1.421875 33.890625 -1.421875 
Q 20.796875 -1.421875 13.15625 6.1875 
Q 5.515625 13.8125 5.515625 26.8125 
Q 5.515625 40.234375 12.765625 48.109375 
Q 20.015625 56 32.328125 56 
Q 43.359375 56 49.78125 48.890625 
Q 56.203125 41.796875 56.203125 29.59375 
z
M 47.21875 32.234375 
Q 47.125 39.59375 43.09375 43.984375 
Q 39.0625 48.390625 32.421875 48.390625 
Q 24.90625 48.390625 20.390625 44.140625 
Q 15.875 39.890625 15.1875 32.171875 
z
" id="DejaVuSans-101"/>
      <path d="M 9.421875 75.984375 
L 18.40625 75.984375 
L 18.40625 0 
L 9.421875 0 
z
" id="DejaVuSans-108"/>
      <path d="M 44.28125 53.078125 
L 44.28125 44.578125 
Q 40.484375 46.53125 36.375 47.5 
Q 32.28125 48.484375 27.875 48.484375 
Q 21.1875 48.484375 17.84375 46.4375 
Q 14.5 44.390625 14.5 40.28125 
Q 14.5 37.15625 16.890625 35.375 
Q 19.28125 33.59375 26.515625 31.984375 
L 29.59375 31.296875 
Q 39.15625 29.25 43.1875 25.515625 
Q 47.21875 21.78125 47.21875 15.09375 
Q 47.21875 7.46875 41.1875 3.015625 
Q 35.15625 -1.421875 24.609375 -1.421875 
Q 20.21875 -1.421875 15.453125 -0.5625 
Q 10.6875 0.296875 5.421875 2 
L 5.421875 11.28125 
Q 10.40625 8.6875 15.234375 7.390625 
Q 20.0625 6.109375 24.8125 6.109375 
Q 31.15625 6.109375 34.5625 8.28125 
Q 37.984375 10.453125 37.984375 14.40625 
Q 37.984375 18.0625 35.515625 20.015625 
Q 33.0625 21.96875 24.703125 23.78125 
L 21.578125 24.515625 
Q 13.234375 26.265625 9.515625 29.90625 
Q 5.8125 33.546875 5.8125 39.890625 
Q 5.8125 47.609375 11.28125 51.796875 
Q 16.75 56 26.8125 56 
Q 31.78125 56 36.171875 55.265625 
Q 40.578125 54.546875 44.28125 53.078125 
z
" id="DejaVuSans-115"/>
      <path d="M 45.40625 46.390625 
L 45.40625 75.984375 
L 54.390625 75.984375 
L 54.390625 0 
L 45.40625 0 
L 45.40625 8.203125 
Q 42.578125 3.328125 38.25 0.953125 
Q 33.9375 -1.421875 27.875 -1.421875 
Q 17.96875 -1.421875 11.734375 6.484375 
Q 5.515625 14.40625 5.515625 27.296875 
Q 5.515625 40.1875 11.734375 48.09375 
Q 17.96875 56 27.875 56 
Q 33.9375 56 38.25 53.625 
Q 42.578125 51.265625 45.40625 46.390625 
z
M 14.796875 27.296875 
Q 14.796875 17.390625 18.875 11.75 
Q 22.953125 6.109375 30.078125 6.109375 
Q 37.203125 6.109375 41.296875 11.75 
Q 45.40625 17.390625 45.40625 27.296875 
Q 45.40625 37.203125 41.296875 42.84375 
Q 37.203125 48.484375 30.078125 48.484375 
Q 22.953125 48.484375 18.875 42.84375 
Q 14.796875 37.203125 14.796875 27.296875 
z
" id="DejaVuSans-100"/>
     </defs>
     <g transform="translate(45.779375 352.900312)rotate(-90)scale(0.12 -0.12)">
      <use xlink:href="#DejaVuSans-37"/>
      <use x="95.019531" xlink:href="#DejaVuSans-32"/>
      <use x="126.806641" xlink:href="#DejaVuSans-111"/>
      <use x="187.988281" xlink:href="#DejaVuSans-102"/>
      <use x="223.193359" xlink:href="#DejaVuSans-32"/>
      <use x="254.980469" xlink:href="#DejaVuSans-67"/>
      <use x="324.804688" xlink:href="#DejaVuSans-97"/>
      <use x="386.083984" xlink:href="#DejaVuSans-114"/>
      <use x="427.197266" xlink:href="#DejaVuSans-98"/>
      <use x="490.673828" xlink:href="#DejaVuSans-111"/>
      <use x="551.855469" xlink:href="#DejaVuSans-110"/>
      <use x="615.234375" xlink:href="#DejaVuSans-32"/>
      <use x="647.021484" xlink:href="#DejaVuSans-82"/>
      <use x="716.441406" xlink:href="#DejaVuSans-101"/>
      <use x="777.964844" xlink:href="#DejaVuSans-108"/>
      <use x="805.748047" xlink:href="#DejaVuSans-101"/>
      <use x="867.271484" xlink:href="#DejaVuSans-97"/>
      <use x="928.550781" xlink:href="#DejaVuSans-115"/>
      <use x="980.650391" xlink:href="#DejaVuSans-101"/>
      <use x="1042.173828" xlink:href="#DejaVuSans-100"/>
     </g>
    </g>
   </g>
   <g id="line2d_10">
    <path clip-path="url(#p2ecc55a222)" d="M 72.2976 498.059083 
L 92.832 497.460524 
L 113.3664 497.082953 
L 133.9008 496.926277 
L 178.2432 496.935387 
L 251.1552 496.821144 
L 252.3456 496.648227 
L 252.9408 496.704639 
L 253.536 496.9332 
L 255.3216 497.97947 
L 255.6192 497.941817 
L 255.9168 497.772398 
L 256.2144 497.444904 
L 256.8096 496.220204 
L 257.4048 494.273165 
L 258.2976 490.45631 
L 260.6784 479.724506 
L 264.5472 464.811785 
L 266.928 456.18799 
L 272.5824 437.163731 
L 277.344 421.912296 
L 281.5104 409.184538 
L 285.0816 399.016658 
L 288.9504 388.705596 
L 293.1168 378.284157 
L 297.5808 367.749405 
L 302.3424 357.103254 
L 307.4016 346.363196 
L 312.7584 335.536203 
L 317.2224 326.98537 
L 321.0912 320.028935 
L 324.6624 314.056839 
L 327.936 308.997271 
L 331.8048 303.442307 
L 336.5664 297.032296 
L 344.6016 286.667328 
L 352.0416 277.388739 
L 357.9936 270.308838 
L 364.2432 263.227841 
L 371.088 255.824482 
L 377.9328 248.739515 
L 385.0752 241.671007 
L 392.2176 234.92101 
L 399.6576 228.204586 
L 407.0976 221.785593 
L 414.8352 215.404853 
L 422.5728 209.306005 
L 430.608 203.251277 
L 438.9408 197.252318 
L 447.5712 191.319711 
L 456.2016 185.653647 
L 465.1296 180.053996 
L 474.3552 174.528759 
L 483.8784 169.084911 
L 493.6992 163.728465 
L 503.8176 158.464531 
L 514.2336 153.297387 
L 518.1024 151.439617 
L 518.1024 151.439617 
" style="fill:none;stroke:#1f77b4;stroke-linecap:square;stroke-width:1.5;"/>
   </g>
   <g id="line2d_11">
    <path clip-path="url(#p2ecc55a222)" d="M 72.2976 499.691459 
L 107.712 499.995283 
L 143.7216 500.078958 
L 248.4768 500.163111 
L 249.9648 500.191872 
L 250.8576 499.975596 
L 252.048 499.569399 
L 252.6432 499.553967 
L 253.2384 499.810184 
L 253.8336 500.435237 
L 255.024 501.926577 
L 255.3216 502.054614 
L 255.6192 501.983336 
L 255.9168 501.662621 
L 256.2144 501.042668 
L 256.512 500.073999 
L 257.1072 496.965513 
L 257.7024 492.302434 
L 258.2976 486.12134 
L 259.1904 474.082291 
L 260.0832 458.871103 
L 261.5712 428.381045 
L 264.5472 364.535166 
L 265.44 349.615424 
L 266.3328 338.436861 
L 267.2256 330.217218 
L 268.416 321.852508 
L 270.7968 307.214823 
L 277.344 268.894449 
L 279.4272 257.955843 
L 280.6176 252.666231 
L 281.808 248.315963 
L 282.9984 244.823244 
L 284.1888 242.080253 
L 285.3792 239.981576 
L 286.5696 238.424136 
L 287.76 237.307133 
L 288.9504 236.531978 
L 290.4384 235.897042 
L 293.1168 235.137422 
L 294.6048 234.614606 
L 295.7952 233.998672 
L 297.2832 232.9334 
L 298.7712 231.585464 
L 300.5568 229.666481 
L 302.9376 226.736211 
L 307.104 221.129689 
L 310.6752 216.473857 
L 313.3536 213.352446 
L 316.3296 210.20736 
L 320.1984 206.464942 
L 329.424 198.022903 
L 338.6496 189.712668 
L 344.6016 184.663139 
L 351.1488 179.417188 
L 358.5888 173.750823 
L 366.3264 168.138599 
L 373.7664 163.012138 
L 381.504 157.947833 
L 389.5392 152.95011 
L 397.872 148.026079 
L 406.5024 143.185001 
L 415.4304 138.433353 
L 424.656 133.775946 
L 434.1792 129.217145 
L 444 124.760382 
L 454.1184 120.40816 
L 464.832 116.044298 
L 475.8432 111.800497 
L 487.4496 107.570827 
L 499.3536 103.471359 
L 511.8528 99.405729 
L 518.1024 97.458348 
L 518.1024 97.458348 
" style="fill:none;stroke:#ff7f0e;stroke-linecap:square;stroke-width:1.5;"/>
   </g>
   <g id="line2d_12">
    <path clip-path="url(#p2ecc55a222)" d="M 72.2976 492.409845 
L 92.832 492.936336 
L 114.8544 493.28468 
L 136.8768 493.410538 
L 232.1088 493.399948 
L 246.096 493.286442 
L 247.2864 493.340548 
L 248.4768 493.669412 
L 249.3696 493.84447 
L 249.9648 493.756425 
L 250.56 493.3998 
L 252.3456 491.767653 
L 252.6432 491.826432 
L 252.9408 492.090749 
L 253.2384 492.601622 
L 253.8336 494.492726 
L 254.7264 498.167026 
L 255.024 499.004795 
L 255.3216 499.392172 
L 255.6192 499.176521 
L 255.9168 498.206192 
L 256.2144 496.330518 
L 256.512 493.3998 
L 257.1072 484.076079 
L 257.7024 470.533077 
L 258.5952 443.594151 
L 259.7856 398.365381 
L 261.5712 326.804707 
L 262.464 300.224171 
L 263.0592 288.904716 
L 263.6544 282.083114 
L 264.2496 278.539077 
L 264.5472 277.618932 
L 265.1424 276.736097 
L 265.7376 276.17145 
L 266.6304 274.907674 
L 271.392 267.042499 
L 280.32 253.900666 
L 285.6768 246.538912 
L 291.0336 239.542579 
L 296.688 232.52031 
L 302.3424 225.840788 
L 308.2944 219.153944 
L 314.2464 212.795928 
L 320.496 206.44833 
L 326.7456 200.41227 
L 333.2928 194.398308 
L 339.84 188.678296 
L 346.6848 182.989877 
L 353.8272 177.348757 
L 360.9696 171.986483 
L 368.4096 166.675569 
L 376.1472 161.427855 
L 384.1824 156.253645 
L 392.5152 151.161813 
L 400.848 146.328026 
L 409.4784 141.573252 
L 418.4064 136.903842 
L 427.632 132.325086 
L 437.1552 127.841306 
L 447.2736 123.32663 
L 457.6896 118.926601 
L 468.4032 114.642097 
L 479.712 110.363849 
L 491.3184 106.212966 
L 503.52 102.089982 
L 516.0192 98.101409 
L 518.1024 97.458379 
L 518.1024 97.458379 
" style="fill:none;stroke:#2ca02c;stroke-linecap:square;stroke-width:1.5;"/>
   </g>
   <g id="line2d_13">
    <path clip-path="url(#p2ecc55a222)" d="M 72.2976 496.078385 
L 85.392 495.109436 
L 98.784 494.339797 
L 112.176 493.793763 
L 125.568 493.47133 
L 139.2576 493.36573 
L 202.944 493.398684 
L 245.7984 493.303377 
L 246.9888 493.302618 
L 247.8816 493.480924 
L 249.3696 493.84447 
L 249.9648 493.756425 
L 250.56 493.3998 
L 252.3456 491.767653 
L 252.6432 491.826432 
L 252.9408 492.090749 
L 253.2384 492.601622 
L 253.8336 494.492726 
L 254.7264 498.167026 
L 255.024 499.004795 
L 255.3216 499.392172 
L 255.6192 499.176521 
L 255.9168 498.206192 
L 256.2144 496.330518 
L 256.512 493.3998 
L 257.1072 484.076079 
L 257.7024 470.533077 
L 258.5952 443.594151 
L 259.7856 398.365381 
L 261.5712 326.804706 
L 262.464 300.224171 
L 263.0592 288.904717 
L 263.6544 282.083117 
L 264.2496 278.539083 
L 264.5472 277.618938 
L 265.1424 276.736104 
L 265.7376 276.171457 
L 266.6304 274.907679 
L 271.392 267.042499 
L 280.32 253.900659 
L 285.6768 246.538896 
L 291.0336 239.542567 
L 296.688 232.520305 
L 302.3424 225.840791 
L 308.2944 219.15395 
L 314.2464 212.795931 
L 320.496 206.448327 
L 326.7456 200.412264 
L 333.2928 194.398304 
L 339.84 188.678296 
L 346.6848 182.989878 
L 353.8272 177.348757 
L 360.9696 171.98648 
L 368.4096 166.675565 
L 376.1472 161.427852 
L 384.1824 156.253645 
L 392.5152 151.161813 
L 400.848 146.328027 
L 409.4784 141.573256 
L 418.4064 136.903843 
L 427.632 132.325082 
L 437.1552 127.841306 
L 447.2736 123.326633 
L 457.6896 118.926597 
L 468.4032 114.642096 
L 479.712 110.363849 
L 491.3184 106.212965 
L 503.52 102.089982 
L 516.0192 98.101417 
L 518.1024 97.45839 
L 518.1024 97.45839 
" style="fill:none;stroke:#d62728;stroke-linecap:square;stroke-width:1.5;"/>
   </g>
   <g id="line2d_14">
    <path clip-path="url(#p2ecc55a222)" d="M 72.2976 502.531411 
L 119.3184 502.736854 
L 185.088 502.752731 
L 251.4528 502.651506 
L 252.6432 502.59167 
L 253.536 502.752918 
L 255.3216 503.36705 
L 255.9168 503.245504 
L 256.512 502.752918 
L 257.1072 501.787179 
L 257.7024 500.328138 
L 258.2976 498.375999 
L 259.1904 494.523679 
L 260.0832 489.585371 
L 261.5712 479.784722 
L 263.952 464.093866 
L 269.6064 429.688831 
L 274.368 402.105375 
L 279.1296 375.77719 
L 283.8912 350.67395 
L 288.9504 325.229722 
L 294.3072 299.425163 
L 299.3664 276.052811 
L 302.9376 260.594007 
L 305.9136 248.720667 
L 308.2944 240.04944 
L 310.6752 232.235807 
L 312.7584 226.145748 
L 314.8416 220.710819 
L 316.9248 215.882577 
L 319.008 211.614211 
L 321.0912 207.860475 
L 323.1744 204.577627 
L 325.2576 201.723347 
L 327.3408 199.249073 
L 329.7216 196.800823 
L 332.4 194.40984 
L 335.6736 191.815668 
L 344.304 185.14552 
L 358.2912 173.916992 
L 364.2432 169.577279 
L 371.9808 164.229793 
L 380.6112 158.527172 
L 388.6464 153.489161 
L 396.9792 148.540389 
L 405.6096 143.67519 
L 414.5376 138.897344 
L 423.7632 134.215797 
L 433.2864 129.634384 
L 443.1072 125.155805 
L 453.2256 120.782872 
L 463.9392 116.398842 
L 474.9504 112.135948 
L 486.2592 107.993731 
L 498.1632 103.871003 
L 510.6624 99.782959 
L 518.1024 97.458363 
L 518.1024 97.458363 
" style="fill:none;stroke:#9467bd;stroke-linecap:square;stroke-width:1.5;"/>
   </g>
   <g id="line2d_15">
    <path clip-path="url(#p2ecc55a222)" d="M 72.2976 495.594777 
L 91.0464 496.254884 
L 109.7952 496.695988 
L 128.544 496.918086 
L 151.4592 496.94361 
L 242.8224 496.946888 
L 248.4768 497.073584 
L 249.6672 497.156389 
L 250.56 496.933199 
L 252.3456 496.08336 
L 252.9408 496.251593 
L 253.2384 496.517599 
L 253.8336 497.502274 
L 254.7264 499.415438 
L 255.024 499.851654 
L 255.3216 500.053357 
L 255.6192 499.94107 
L 255.9168 499.435831 
L 256.2144 498.45919 
L 256.512 496.9332 
L 257.1072 491.980324 
L 257.7024 484.24428 
L 258.2976 473.45246 
L 258.8928 459.335731 
L 259.7856 431.388718 
L 262.7616 324.282923 
L 263.3568 311.623107 
L 263.952 302.385377 
L 264.5472 295.65704 
L 265.44 288.300777 
L 266.6304 280.234222 
L 267.5232 275.318413 
L 268.416 271.688604 
L 269.0112 270.076815 
L 269.6064 268.981582 
L 270.4992 267.922142 
L 271.6896 266.693928 
L 272.88 264.97599 
L 276.1536 259.843905 
L 284.784 247.711276 
L 290.1408 240.665021 
L 295.7952 233.607274 
L 301.7472 226.535661 
L 307.6992 219.809612 
L 313.6512 213.415967 
L 319.9008 207.037827 
L 326.1504 200.974544 
L 332.6976 194.932978 
L 339.2448 189.18675 
L 346.0896 183.473125 
L 353.232 177.807881 
L 360.3744 172.423222 
L 367.8144 167.090622 
L 375.552 161.822023 
L 383.5872 156.627768 
L 391.6224 151.694671 
L 399.9552 146.834187 
L 408.5856 142.053822 
L 417.5136 137.359927 
L 426.7392 132.757783 
L 436.2624 128.251701 
L 446.3808 123.715168 
L 456.7968 119.294412 
L 467.5104 114.990273 
L 478.5216 110.802983 
L 490.128 106.628095 
L 502.032 102.580259 
L 514.5312 98.564409 
L 518.1024 97.458358 
L 518.1024 97.458358 
" style="fill:none;stroke:#8c564b;stroke-linecap:square;stroke-width:1.5;"/>
   </g>
   <g id="line2d_16">
    <path clip-path="url(#p2ecc55a222)" d="M 72.2976 503.225843 
L 136.2816 503.343808 
L 254.1312 503.469905 
L 255.3216 503.666352 
L 255.9168 503.602281 
L 256.512 503.342623 
L 257.1072 502.833552 
L 257.7024 502.064445 
L 258.5952 500.423455 
L 259.488 498.197988 
L 260.6784 494.41607 
L 265.44 478.149559 
L 271.6896 458.385692 
L 276.7488 443.26932 
L 281.5104 429.722107 
L 285.9744 417.690423 
L 290.736 405.501379 
L 295.7952 393.174547 
L 301.152 380.72153 
L 306.5088 368.820325 
L 312.1632 356.798094 
L 317.52 345.908548 
L 322.5792 336.108455 
L 327.3408 327.349348 
L 331.5072 320.116914 
L 335.376 313.839076 
L 338.9472 308.475864 
L 342.2208 303.957665 
L 345.792 299.405066 
L 350.256 294.098402 
L 357.696 285.680829 
L 366.3264 276.193115 
L 372.576 269.638225 
L 379.1232 263.101758 
L 386.2656 256.294647 
L 393.7056 249.511418 
L 401.1456 243.030181 
L 408.5856 236.839031 
L 416.3232 230.685276 
L 424.3584 224.579875 
L 432.6912 218.535429 
L 441.024 212.764235 
L 449.6544 207.055414 
L 458.5824 201.417899 
L 467.808 195.859669 
L 477.3312 190.387544 
L 487.152 185.00735 
L 497.2704 179.724018 
L 507.6864 174.541636 
L 518.1024 169.601276 
L 518.1024 169.601276 
" style="fill:none;stroke:#e377c2;stroke-linecap:square;stroke-width:1.5;"/>
   </g>
   <g id="line2d_17">
    <path clip-path="url(#p2ecc55a222)" d="M 72.2976 503.284767 
L 161.28 503.349111 
L 253.8336 503.407571 
L 255.3216 503.669644 
L 255.9168 503.606206 
L 256.512 503.349111 
L 257.1072 502.845063 
L 257.7024 502.083545 
L 258.5952 500.458749 
L 259.488 498.255245 
L 260.6784 494.51065 
L 265.44 478.404663 
L 271.6896 458.83588 
L 276.7488 443.867884 
L 281.808 429.62274 
L 286.8672 416.048412 
L 291.9264 403.098713 
L 296.9856 390.730965 
L 302.3424 378.227513 
L 307.6992 366.293193 
L 313.056 354.891129 
L 318.7104 343.392801 
L 324.3648 332.405117 
L 330.0192 321.892454 
L 335.6736 311.836431 
L 341.328 302.224715 
L 347.28 292.546395 
L 354.1248 281.855136 
L 360.9696 271.564766 
L 366.0288 264.355655 
L 370.1952 258.777613 
L 374.3616 253.570073 
L 378.8256 248.363918 
L 383.2896 243.492707 
L 388.3488 238.312626 
L 394.0032 232.850348 
L 401.4432 225.99453 
L 409.776 218.603638 
L 417.216 212.291578 
L 424.9536 206.025862 
L 432.9888 199.806087 
L 441.3216 193.637241 
L 449.6544 187.740557 
L 458.2848 181.902518 
L 467.2128 176.13128 
L 476.4384 170.43517 
L 485.9616 164.821714 
L 495.7824 159.297106 
L 505.9008 153.86657 
L 516.3168 148.534462 
L 518.1024 147.645357 
L 518.1024 147.645357 
" style="fill:none;stroke:#7f7f7f;stroke-linecap:square;stroke-width:1.5;"/>
   </g>
   <g id="line2d_18">
    <path clip-path="url(#p2ecc55a222)" d="M 72.2976 503.515486 
L 126.1632 503.355485 
L 247.8816 503.355992 
L 251.1552 503.317475 
L 252.9408 503.281923 
L 254.1312 503.4772 
L 255.3216 503.670943 
L 255.9168 503.607754 
L 256.512 503.35167 
L 257.1072 502.849604 
L 257.7024 502.091081 
L 258.5952 500.472673 
L 259.488 498.277833 
L 260.6784 494.54796 
L 265.44 478.505299 
L 271.6896 459.013458 
L 276.7488 444.104313 
L 281.808 429.915155 
L 286.8672 416.394044 
L 291.9264 403.495243 
L 296.9856 391.176524 
L 302.3424 378.722859 
L 307.6992 366.835262 
L 313.056 355.476121 
L 318.7104 344.021094 
L 324.3648 333.079112 
L 330.0192 322.616305 
L 335.6736 312.60258 
L 341.6256 302.517004 
L 347.5776 292.867764 
L 353.8272 283.171181 
L 360.0768 273.889473 
L 366.3264 265.008028 
L 372.576 256.517296 
L 379.4208 247.611652 
L 387.1584 237.917274 
L 393.408 230.410011 
L 398.4672 224.679615 
L 402.9312 219.957211 
L 407.6928 215.252813 
L 412.752 210.575717 
L 418.4064 205.670238 
L 424.9536 200.305547 
L 433.584 193.546851 
L 442.2144 187.052541 
L 450.2496 181.275181 
L 458.88 175.347257 
L 467.808 169.484253 
L 477.0336 163.695686 
L 486.2592 158.165965 
L 495.7824 152.710663 
L 505.6032 147.334997 
L 516.0192 141.891166 
L 518.1024 140.832514 
L 518.1024 140.832514 
" style="fill:none;stroke:#bcbd22;stroke-linecap:square;stroke-width:1.5;"/>
   </g>
   <g id="patch_3">
    <path d="M 72 504 
L 72 69.12 
" style="fill:none;stroke:#000000;stroke-linecap:square;stroke-linejoin:miter;stroke-width:0.8;"/>
   </g>
   <g id="patch_4">
    <path d="M 518.4 504 
L 518.4 69.12 
" style="fill:none;stroke:#000000;stroke-linecap:square;stroke-linejoin:miter;stroke-width:0.8;"/>
   </g>
   <g id="patch_5">
    <path d="M 72 504 
L 518.4 504 
" style="fill:none;stroke:#000000;stroke-linecap:square;stroke-linejoin:miter;stroke-width:0.8;"/>
   </g>
   <g id="patch_6">
    <path d="M 72 69.12 
L 518.4 69.12 
" style="fill:none;stroke:#000000;stroke-linecap:square;stroke-linejoin:miter;stroke-width:0.8;"/>
   </g>
   <g id="legend_1">
    <g id="patch_7">
     <path d="M 79 211.72625 
L 172.426562 211.72625 
Q 174.426562 211.72625 174.426562 209.72625 
L 174.426562 76.12 
Q 174.426562 74.12 172.426562 74.12 
L 79 74.12 
Q 77 74.12 77 76.12 
L 77 209.72625 
Q 77 211.72625 79 211.72625 
z
" style="fill:#ffffff;opacity:0.8;stroke:#cccccc;stroke-linejoin:miter;"/>
    </g>
    <g id="line2d_19">
     <path d="M 81 82.218437 
L 101 82.218437 
" style="fill:none;stroke:#1f77b4;stroke-linecap:square;stroke-width:1.5;"/>
    </g>
    <g id="line2d_20"/>
    <g id="text_12">
     <!-- EX_ac_e_ -->
     <defs>
      <path d="M 9.8125 72.90625 
L 55.90625 72.90625 
L 55.90625 64.59375 
L 19.671875 64.59375 
L 19.671875 43.015625 
L 54.390625 43.015625 
L 54.390625 34.71875 
L 19.671875 34.71875 
L 19.671875 8.296875 
L 56.78125 8.296875 
L 56.78125 0 
L 9.8125 0 
z
" id="DejaVuSans-69"/>
      <path d="M 6.296875 72.90625 
L 16.890625 72.90625 
L 35.015625 45.796875 
L 53.21875 72.90625 
L 63.8125 72.90625 
L 40.375 37.890625 
L 65.375 0 
L 54.78125 0 
L 34.28125 31 
L 13.625 0 
L 2.984375 0 
L 29 38.921875 
z
" id="DejaVuSans-88"/>
      <path d="M 50.984375 -16.609375 
L 50.984375 -23.578125 
L -0.984375 -23.578125 
L -0.984375 -16.609375 
z
" id="DejaVuSans-95"/>
      <path d="M 48.78125 52.59375 
L 48.78125 44.1875 
Q 44.96875 46.296875 41.140625 47.34375 
Q 37.3125 48.390625 33.40625 48.390625 
Q 24.65625 48.390625 19.8125 42.84375 
Q 14.984375 37.3125 14.984375 27.296875 
Q 14.984375 17.28125 19.8125 11.734375 
Q 24.65625 6.203125 33.40625 6.203125 
Q 37.3125 6.203125 41.140625 7.25 
Q 44.96875 8.296875 48.78125 10.40625 
L 48.78125 2.09375 
Q 45.015625 0.34375 40.984375 -0.53125 
Q 36.96875 -1.421875 32.421875 -1.421875 
Q 20.0625 -1.421875 12.78125 6.34375 
Q 5.515625 14.109375 5.515625 27.296875 
Q 5.515625 40.671875 12.859375 48.328125 
Q 20.21875 56 33.015625 56 
Q 37.15625 56 41.109375 55.140625 
Q 45.0625 54.296875 48.78125 52.59375 
z
" id="DejaVuSans-99"/>
     </defs>
     <g transform="translate(109 85.718437)scale(0.1 -0.1)">
      <use xlink:href="#DejaVuSans-69"/>
      <use x="63.183594" xlink:href="#DejaVuSans-88"/>
      <use x="131.689453" xlink:href="#DejaVuSans-95"/>
      <use x="181.689453" xlink:href="#DejaVuSans-97"/>
      <use x="242.96875" xlink:href="#DejaVuSans-99"/>
      <use x="297.949219" xlink:href="#DejaVuSans-95"/>
      <use x="347.949219" xlink:href="#DejaVuSans-101"/>
      <use x="409.472656" xlink:href="#DejaVuSans-95"/>
     </g>
    </g>
    <g id="line2d_21">
     <path d="M 81 97.174688 
L 101 97.174688 
" style="fill:none;stroke:#ff7f0e;stroke-linecap:square;stroke-width:1.5;"/>
    </g>
    <g id="line2d_22"/>
    <g id="text_13">
     <!-- EX_akg_e_ -->
     <defs>
      <path d="M 9.078125 75.984375 
L 18.109375 75.984375 
L 18.109375 31.109375 
L 44.921875 54.6875 
L 56.390625 54.6875 
L 27.390625 29.109375 
L 57.625 0 
L 45.90625 0 
L 18.109375 26.703125 
L 18.109375 0 
L 9.078125 0 
z
" id="DejaVuSans-107"/>
      <path d="M 45.40625 27.984375 
Q 45.40625 37.75 41.375 43.109375 
Q 37.359375 48.484375 30.078125 48.484375 
Q 22.859375 48.484375 18.828125 43.109375 
Q 14.796875 37.75 14.796875 27.984375 
Q 14.796875 18.265625 18.828125 12.890625 
Q 22.859375 7.515625 30.078125 7.515625 
Q 37.359375 7.515625 41.375 12.890625 
Q 45.40625 18.265625 45.40625 27.984375 
z
M 54.390625 6.78125 
Q 54.390625 -7.171875 48.1875 -13.984375 
Q 42 -20.796875 29.203125 -20.796875 
Q 24.46875 -20.796875 20.265625 -20.09375 
Q 16.0625 -19.390625 12.109375 -17.921875 
L 12.109375 -9.1875 
Q 16.0625 -11.328125 19.921875 -12.34375 
Q 23.78125 -13.375 27.78125 -13.375 
Q 36.625 -13.375 41.015625 -8.765625 
Q 45.40625 -4.15625 45.40625 5.171875 
L 45.40625 9.625 
Q 42.625 4.78125 38.28125 2.390625 
Q 33.9375 0 27.875 0 
Q 17.828125 0 11.671875 7.65625 
Q 5.515625 15.328125 5.515625 27.984375 
Q 5.515625 40.671875 11.671875 48.328125 
Q 17.828125 56 27.875 56 
Q 33.9375 56 38.28125 53.609375 
Q 42.625 51.21875 45.40625 46.390625 
L 45.40625 54.6875 
L 54.390625 54.6875 
z
" id="DejaVuSans-103"/>
     </defs>
     <g transform="translate(109 100.674688)scale(0.1 -0.1)">
      <use xlink:href="#DejaVuSans-69"/>
      <use x="63.183594" xlink:href="#DejaVuSans-88"/>
      <use x="131.689453" xlink:href="#DejaVuSans-95"/>
      <use x="181.689453" xlink:href="#DejaVuSans-97"/>
      <use x="242.96875" xlink:href="#DejaVuSans-107"/>
      <use x="300.878906" xlink:href="#DejaVuSans-103"/>
      <use x="364.355469" xlink:href="#DejaVuSans-95"/>
      <use x="414.355469" xlink:href="#DejaVuSans-101"/>
      <use x="475.878906" xlink:href="#DejaVuSans-95"/>
     </g>
    </g>
    <g id="line2d_23">
     <path d="M 81 112.130938 
L 101 112.130938 
" style="fill:none;stroke:#2ca02c;stroke-linecap:square;stroke-width:1.5;"/>
    </g>
    <g id="line2d_24"/>
    <g id="text_14">
     <!-- EX_cit_e_ -->
     <g transform="translate(109 115.630938)scale(0.1 -0.1)">
      <use xlink:href="#DejaVuSans-69"/>
      <use x="63.183594" xlink:href="#DejaVuSans-88"/>
      <use x="131.689453" xlink:href="#DejaVuSans-95"/>
      <use x="181.689453" xlink:href="#DejaVuSans-99"/>
      <use x="236.669922" xlink:href="#DejaVuSans-105"/>
      <use x="264.453125" xlink:href="#DejaVuSans-116"/>
      <use x="303.662109" xlink:href="#DejaVuSans-95"/>
      <use x="353.662109" xlink:href="#DejaVuSans-101"/>
      <use x="415.185547" xlink:href="#DejaVuSans-95"/>
     </g>
    </g>
    <g id="line2d_25">
     <path d="M 81 127.087188 
L 101 127.087188 
" style="fill:none;stroke:#d62728;stroke-linecap:square;stroke-width:1.5;"/>
    </g>
    <g id="line2d_26"/>
    <g id="text_15">
     <!-- EX_icit_e_ -->
     <g transform="translate(109 130.587188)scale(0.1 -0.1)">
      <use xlink:href="#DejaVuSans-69"/>
      <use x="63.183594" xlink:href="#DejaVuSans-88"/>
      <use x="131.689453" xlink:href="#DejaVuSans-95"/>
      <use x="181.689453" xlink:href="#DejaVuSans-105"/>
      <use x="209.472656" xlink:href="#DejaVuSans-99"/>
      <use x="264.453125" xlink:href="#DejaVuSans-105"/>
      <use x="292.236328" xlink:href="#DejaVuSans-116"/>
      <use x="331.445312" xlink:href="#DejaVuSans-95"/>
      <use x="381.445312" xlink:href="#DejaVuSans-101"/>
      <use x="442.96875" xlink:href="#DejaVuSans-95"/>
     </g>
    </g>
    <g id="line2d_27">
     <path d="M 81 142.043437 
L 101 142.043437 
" style="fill:none;stroke:#9467bd;stroke-linecap:square;stroke-width:1.5;"/>
    </g>
    <g id="line2d_28"/>
    <g id="text_16">
     <!-- EX_lac_D_e_ -->
     <defs>
      <path d="M 19.671875 64.796875 
L 19.671875 8.109375 
L 31.59375 8.109375 
Q 46.6875 8.109375 53.6875 14.9375 
Q 60.6875 21.78125 60.6875 36.53125 
Q 60.6875 51.171875 53.6875 57.984375 
Q 46.6875 64.796875 31.59375 64.796875 
z
M 9.8125 72.90625 
L 30.078125 72.90625 
Q 51.265625 72.90625 61.171875 64.09375 
Q 71.09375 55.28125 71.09375 36.53125 
Q 71.09375 17.671875 61.125 8.828125 
Q 51.171875 0 30.078125 0 
L 9.8125 0 
z
" id="DejaVuSans-68"/>
     </defs>
     <g transform="translate(109 145.543437)scale(0.1 -0.1)">
      <use xlink:href="#DejaVuSans-69"/>
      <use x="63.183594" xlink:href="#DejaVuSans-88"/>
      <use x="131.689453" xlink:href="#DejaVuSans-95"/>
      <use x="181.689453" xlink:href="#DejaVuSans-108"/>
      <use x="209.472656" xlink:href="#DejaVuSans-97"/>
      <use x="270.751953" xlink:href="#DejaVuSans-99"/>
      <use x="325.732422" xlink:href="#DejaVuSans-95"/>
      <use x="375.732422" xlink:href="#DejaVuSans-68"/>
      <use x="452.734375" xlink:href="#DejaVuSans-95"/>
      <use x="502.734375" xlink:href="#DejaVuSans-101"/>
      <use x="564.257812" xlink:href="#DejaVuSans-95"/>
     </g>
    </g>
    <g id="line2d_29">
     <path d="M 81 156.999687 
L 101 156.999687 
" style="fill:none;stroke:#8c564b;stroke-linecap:square;stroke-width:1.5;"/>
    </g>
    <g id="line2d_30"/>
    <g id="text_17">
     <!-- EX_pyr_e_ -->
     <defs>
      <path d="M 18.109375 8.203125 
L 18.109375 -20.796875 
L 9.078125 -20.796875 
L 9.078125 54.6875 
L 18.109375 54.6875 
L 18.109375 46.390625 
Q 20.953125 51.265625 25.265625 53.625 
Q 29.59375 56 35.59375 56 
Q 45.5625 56 51.78125 48.09375 
Q 58.015625 40.1875 58.015625 27.296875 
Q 58.015625 14.40625 51.78125 6.484375 
Q 45.5625 -1.421875 35.59375 -1.421875 
Q 29.59375 -1.421875 25.265625 0.953125 
Q 20.953125 3.328125 18.109375 8.203125 
z
M 48.6875 27.296875 
Q 48.6875 37.203125 44.609375 42.84375 
Q 40.53125 48.484375 33.40625 48.484375 
Q 26.265625 48.484375 22.1875 42.84375 
Q 18.109375 37.203125 18.109375 27.296875 
Q 18.109375 17.390625 22.1875 11.75 
Q 26.265625 6.109375 33.40625 6.109375 
Q 40.53125 6.109375 44.609375 11.75 
Q 48.6875 17.390625 48.6875 27.296875 
z
" id="DejaVuSans-112"/>
      <path d="M 32.171875 -5.078125 
Q 28.375 -14.84375 24.75 -17.8125 
Q 21.140625 -20.796875 15.09375 -20.796875 
L 7.90625 -20.796875 
L 7.90625 -13.28125 
L 13.1875 -13.28125 
Q 16.890625 -13.28125 18.9375 -11.515625 
Q 21 -9.765625 23.484375 -3.21875 
L 25.09375 0.875 
L 2.984375 54.6875 
L 12.5 54.6875 
L 29.59375 11.921875 
L 46.6875 54.6875 
L 56.203125 54.6875 
z
" id="DejaVuSans-121"/>
     </defs>
     <g transform="translate(109 160.499687)scale(0.1 -0.1)">
      <use xlink:href="#DejaVuSans-69"/>
      <use x="63.183594" xlink:href="#DejaVuSans-88"/>
      <use x="131.689453" xlink:href="#DejaVuSans-95"/>
      <use x="181.689453" xlink:href="#DejaVuSans-112"/>
      <use x="245.166016" xlink:href="#DejaVuSans-121"/>
      <use x="304.345703" xlink:href="#DejaVuSans-114"/>
      <use x="345.458984" xlink:href="#DejaVuSans-95"/>
      <use x="395.458984" xlink:href="#DejaVuSans-101"/>
      <use x="456.982422" xlink:href="#DejaVuSans-95"/>
     </g>
    </g>
    <g id="line2d_31">
     <path d="M 81 171.955938 
L 101 171.955938 
" style="fill:none;stroke:#e377c2;stroke-linecap:square;stroke-width:1.5;"/>
    </g>
    <g id="line2d_32"/>
    <g id="text_18">
     <!-- EX_haa_e_ -->
     <defs>
      <path d="M 54.890625 33.015625 
L 54.890625 0 
L 45.90625 0 
L 45.90625 32.71875 
Q 45.90625 40.484375 42.875 44.328125 
Q 39.84375 48.1875 33.796875 48.1875 
Q 26.515625 48.1875 22.3125 43.546875 
Q 18.109375 38.921875 18.109375 30.90625 
L 18.109375 0 
L 9.078125 0 
L 9.078125 75.984375 
L 18.109375 75.984375 
L 18.109375 46.1875 
Q 21.34375 51.125 25.703125 53.5625 
Q 30.078125 56 35.796875 56 
Q 45.21875 56 50.046875 50.171875 
Q 54.890625 44.34375 54.890625 33.015625 
z
" id="DejaVuSans-104"/>
     </defs>
     <g transform="translate(109 175.455938)scale(0.1 -0.1)">
      <use xlink:href="#DejaVuSans-69"/>
      <use x="63.183594" xlink:href="#DejaVuSans-88"/>
      <use x="131.689453" xlink:href="#DejaVuSans-95"/>
      <use x="181.689453" xlink:href="#DejaVuSans-104"/>
      <use x="245.068359" xlink:href="#DejaVuSans-97"/>
      <use x="306.347656" xlink:href="#DejaVuSans-97"/>
      <use x="367.626953" xlink:href="#DejaVuSans-95"/>
      <use x="417.626953" xlink:href="#DejaVuSans-101"/>
      <use x="479.150391" xlink:href="#DejaVuSans-95"/>
     </g>
    </g>
    <g id="line2d_33">
     <path d="M 81 186.912187 
L 101 186.912187 
" style="fill:none;stroke:#7f7f7f;stroke-linecap:square;stroke-width:1.5;"/>
    </g>
    <g id="line2d_34"/>
    <g id="text_19">
     <!-- EX_lrhh_e_ -->
     <g transform="translate(109 190.412187)scale(0.1 -0.1)">
      <use xlink:href="#DejaVuSans-69"/>
      <use x="63.183594" xlink:href="#DejaVuSans-88"/>
      <use x="131.689453" xlink:href="#DejaVuSans-95"/>
      <use x="181.689453" xlink:href="#DejaVuSans-108"/>
      <use x="209.472656" xlink:href="#DejaVuSans-114"/>
      <use x="250.570312" xlink:href="#DejaVuSans-104"/>
      <use x="313.949219" xlink:href="#DejaVuSans-104"/>
      <use x="377.328125" xlink:href="#DejaVuSans-95"/>
      <use x="427.328125" xlink:href="#DejaVuSans-101"/>
      <use x="488.851562" xlink:href="#DejaVuSans-95"/>
     </g>
    </g>
    <g id="line2d_35">
     <path d="M 81 201.868437 
L 101 201.868437 
" style="fill:none;stroke:#bcbd22;stroke-linecap:square;stroke-width:1.5;"/>
    </g>
    <g id="line2d_36"/>
    <g id="text_20">
     <!-- EX_llrhh_e_ -->
     <g transform="translate(109 205.368437)scale(0.1 -0.1)">
      <use xlink:href="#DejaVuSans-69"/>
      <use x="63.183594" xlink:href="#DejaVuSans-88"/>
      <use x="131.689453" xlink:href="#DejaVuSans-95"/>
      <use x="181.689453" xlink:href="#DejaVuSans-108"/>
      <use x="209.472656" xlink:href="#DejaVuSans-108"/>
      <use x="237.255859" xlink:href="#DejaVuSans-114"/>
      <use x="278.353516" xlink:href="#DejaVuSans-104"/>
      <use x="341.732422" xlink:href="#DejaVuSans-104"/>
      <use x="405.111328" xlink:href="#DejaVuSans-95"/>
      <use x="455.111328" xlink:href="#DejaVuSans-101"/>
      <use x="516.634766" xlink:href="#DejaVuSans-95"/>
     </g>
    </g>
   </g>
  </g>
 </g>
 <defs>
  <clipPath id="p2ecc55a222">
   <rect height="434.88" width="446.4" x="72" y="69.12"/>
  </clipPath>
 </defs>
</svg>
