<?xml version="1.0" encoding="utf-8" standalone="no"?>
<!DOCTYPE svg PUBLIC "-//W3C//DTD SVG 1.1//EN"
  "http://www.w3.org/Graphics/SVG/1.1/DTD/svg11.dtd">
<!-- Created with matplotlib (https://matplotlib.org/) -->
<svg height="900pt" version="1.1" viewBox="0 0 432 900" width="432pt" xmlns="http://www.w3.org/2000/svg" xmlns:xlink="http://www.w3.org/1999/xlink">
 <defs>
  <style type="text/css">
*{stroke-linecap:butt;stroke-linejoin:round;}
  </style>
 </defs>
 <g id="figure_1">
  <g id="patch_1">
   <path d="M 0 900 
L 432 900 
L 432 0 
L 0 0 
z
" style="fill:#ffffff;"/>
  </g>
  <g id="axes_1">
   <g id="patch_2">
    <path d="M 47.675 145.93375 
L 417.7 145.93375 
L 417.7 14.3 
L 47.675 14.3 
z
" style="fill:#ffffff;"/>
   </g>
   <g id="patch_3">
    <path clip-path="url(#p4f78928987)" d="M 83.084537 20.881687 
L 83.084537 73.535187 
L 119.134848 73.535187 
L 119.134848 20.881687 
L 83.084537 20.881687 
z
" style="fill:#3274a1;stroke:#3f3f3f;stroke-linejoin:miter;stroke-width:1.5;"/>
   </g>
   <g id="patch_4">
    <path clip-path="url(#p4f78928987)" d="M 179.654956 86.698562 
L 179.654956 139.352062 
L 274.886963 139.352062 
L 274.886963 86.698562 
L 179.654956 86.698562 
z
" style="fill:#e1812c;stroke:#3f3f3f;stroke-linejoin:miter;stroke-width:1.5;"/>
   </g>
   <g id="matplotlib.axis_1">
    <g id="xtick_1">
     <g id="line2d_1">
      <defs>
       <path d="M 0 0 
L 0 3.5 
" id="m08dfe69fac" style="stroke:#000000;stroke-width:0.8;"/>
      </defs>
      <g>
       <use style="stroke:#000000;stroke-width:0.8;" x="70.814518" xlink:href="#m08dfe69fac" y="145.93375"/>
      </g>
     </g>
     <g id="text_1">
      <!-- 0.1 -->
      <defs>
       <path d="M 31.78125 66.40625 
Q 24.171875 66.40625 20.328125 58.90625 
Q 16.5 51.421875 16.5 36.375 
Q 16.5 21.390625 20.328125 13.890625 
Q 24.171875 6.390625 31.78125 6.390625 
Q 39.453125 6.390625 43.28125 13.890625 
Q 47.125 21.390625 47.125 36.375 
Q 47.125 51.421875 43.28125 58.90625 
Q 39.453125 66.40625 31.78125 66.40625 
z
M 31.78125 74.21875 
Q 44.046875 74.21875 50.515625 64.515625 
Q 56.984375 54.828125 56.984375 36.375 
Q 56.984375 17.96875 50.515625 8.265625 
Q 44.046875 -1.421875 31.78125 -1.421875 
Q 19.53125 -1.421875 13.0625 8.265625 
Q 6.59375 17.96875 6.59375 36.375 
Q 6.59375 54.828125 13.0625 64.515625 
Q 19.53125 74.21875 31.78125 74.21875 
z
" id="DejaVuSans-48"/>
       <path d="M 10.6875 12.40625 
L 21 12.40625 
L 21 0 
L 10.6875 0 
z
" id="DejaVuSans-46"/>
       <path d="M 12.40625 8.296875 
L 28.515625 8.296875 
L 28.515625 63.921875 
L 10.984375 60.40625 
L 10.984375 69.390625 
L 28.421875 72.90625 
L 38.28125 72.90625 
L 38.28125 8.296875 
L 54.390625 8.296875 
L 54.390625 0 
L 12.40625 0 
z
" id="DejaVuSans-49"/>
      </defs>
      <g transform="translate(62.862955 160.532187)scale(0.1 -0.1)">
       <use xlink:href="#DejaVuSans-48"/>
       <use x="63.623047" xlink:href="#DejaVuSans-46"/>
       <use x="95.410156" xlink:href="#DejaVuSans-49"/>
      </g>
     </g>
    </g>
    <g id="xtick_2">
     <g id="line2d_2">
      <g>
       <use style="stroke:#000000;stroke-width:0.8;" x="142.757845" xlink:href="#m08dfe69fac" y="145.93375"/>
      </g>
     </g>
     <g id="text_2">
      <!-- 0.2 -->
      <defs>
       <path d="M 19.1875 8.296875 
L 53.609375 8.296875 
L 53.609375 0 
L 7.328125 0 
L 7.328125 8.296875 
Q 12.9375 14.109375 22.625 23.890625 
Q 32.328125 33.6875 34.8125 36.53125 
Q 39.546875 41.84375 41.421875 45.53125 
Q 43.3125 49.21875 43.3125 52.78125 
Q 43.3125 58.59375 39.234375 62.25 
Q 35.15625 65.921875 28.609375 65.921875 
Q 23.96875 65.921875 18.8125 64.3125 
Q 13.671875 62.703125 7.8125 59.421875 
L 7.8125 69.390625 
Q 13.765625 71.78125 18.9375 73 
Q 24.125 74.21875 28.421875 74.21875 
Q 39.75 74.21875 46.484375 68.546875 
Q 53.21875 62.890625 53.21875 53.421875 
Q 53.21875 48.921875 51.53125 44.890625 
Q 49.859375 40.875 45.40625 35.40625 
Q 44.1875 33.984375 37.640625 27.21875 
Q 31.109375 20.453125 19.1875 8.296875 
z
" id="DejaVuSans-50"/>
      </defs>
      <g transform="translate(134.806282 160.532187)scale(0.1 -0.1)">
       <use xlink:href="#DejaVuSans-48"/>
       <use x="63.623047" xlink:href="#DejaVuSans-46"/>
       <use x="95.410156" xlink:href="#DejaVuSans-50"/>
      </g>
     </g>
    </g>
    <g id="xtick_3">
     <g id="line2d_3">
      <g>
       <use style="stroke:#000000;stroke-width:0.8;" x="214.701172" xlink:href="#m08dfe69fac" y="145.93375"/>
      </g>
     </g>
     <g id="text_3">
      <!-- 0.3 -->
      <defs>
       <path d="M 40.578125 39.3125 
Q 47.65625 37.796875 51.625 33 
Q 55.609375 28.21875 55.609375 21.1875 
Q 55.609375 10.40625 48.1875 4.484375 
Q 40.765625 -1.421875 27.09375 -1.421875 
Q 22.515625 -1.421875 17.65625 -0.515625 
Q 12.796875 0.390625 7.625 2.203125 
L 7.625 11.71875 
Q 11.71875 9.328125 16.59375 8.109375 
Q 21.484375 6.890625 26.8125 6.890625 
Q 36.078125 6.890625 40.9375 10.546875 
Q 45.796875 14.203125 45.796875 21.1875 
Q 45.796875 27.640625 41.28125 31.265625 
Q 36.765625 34.90625 28.71875 34.90625 
L 20.21875 34.90625 
L 20.21875 43.015625 
L 29.109375 43.015625 
Q 36.375 43.015625 40.234375 45.921875 
Q 44.09375 48.828125 44.09375 54.296875 
Q 44.09375 59.90625 40.109375 62.90625 
Q 36.140625 65.921875 28.71875 65.921875 
Q 24.65625 65.921875 20.015625 65.03125 
Q 15.375 64.15625 9.8125 62.3125 
L 9.8125 71.09375 
Q 15.4375 72.65625 20.34375 73.4375 
Q 25.25 74.21875 29.59375 74.21875 
Q 40.828125 74.21875 47.359375 69.109375 
Q 53.90625 64.015625 53.90625 55.328125 
Q 53.90625 49.265625 50.4375 45.09375 
Q 46.96875 40.921875 40.578125 39.3125 
z
" id="DejaVuSans-51"/>
      </defs>
      <g transform="translate(206.74961 160.532187)scale(0.1 -0.1)">
       <use xlink:href="#DejaVuSans-48"/>
       <use x="63.623047" xlink:href="#DejaVuSans-46"/>
       <use x="95.410156" xlink:href="#DejaVuSans-51"/>
      </g>
     </g>
    </g>
    <g id="xtick_4">
     <g id="line2d_4">
      <g>
       <use style="stroke:#000000;stroke-width:0.8;" x="286.644499" xlink:href="#m08dfe69fac" y="145.93375"/>
      </g>
     </g>
     <g id="text_4">
      <!-- 0.4 -->
      <defs>
       <path d="M 37.796875 64.3125 
L 12.890625 25.390625 
L 37.796875 25.390625 
z
M 35.203125 72.90625 
L 47.609375 72.90625 
L 47.609375 25.390625 
L 58.015625 25.390625 
L 58.015625 17.1875 
L 47.609375 17.1875 
L 47.609375 0 
L 37.796875 0 
L 37.796875 17.1875 
L 4.890625 17.1875 
L 4.890625 26.703125 
z
" id="DejaVuSans-52"/>
      </defs>
      <g transform="translate(278.692937 160.532187)scale(0.1 -0.1)">
       <use xlink:href="#DejaVuSans-48"/>
       <use x="63.623047" xlink:href="#DejaVuSans-46"/>
       <use x="95.410156" xlink:href="#DejaVuSans-52"/>
      </g>
     </g>
    </g>
    <g id="xtick_5">
     <g id="line2d_5">
      <g>
       <use style="stroke:#000000;stroke-width:0.8;" x="358.587826" xlink:href="#m08dfe69fac" y="145.93375"/>
      </g>
     </g>
     <g id="text_5">
      <!-- 0.5 -->
      <defs>
       <path d="M 10.796875 72.90625 
L 49.515625 72.90625 
L 49.515625 64.59375 
L 19.828125 64.59375 
L 19.828125 46.734375 
Q 21.96875 47.46875 24.109375 47.828125 
Q 26.265625 48.1875 28.421875 48.1875 
Q 40.625 48.1875 47.75 41.5 
Q 54.890625 34.8125 54.890625 23.390625 
Q 54.890625 11.625 47.5625 5.09375 
Q 40.234375 -1.421875 26.90625 -1.421875 
Q 22.3125 -1.421875 17.546875 -0.640625 
Q 12.796875 0.140625 7.71875 1.703125 
L 7.71875 11.625 
Q 12.109375 9.234375 16.796875 8.0625 
Q 21.484375 6.890625 26.703125 6.890625 
Q 35.15625 6.890625 40.078125 11.328125 
Q 45.015625 15.765625 45.015625 23.390625 
Q 45.015625 31 40.078125 35.4375 
Q 35.15625 39.890625 26.703125 39.890625 
Q 22.75 39.890625 18.8125 39.015625 
Q 14.890625 38.140625 10.796875 36.28125 
z
" id="DejaVuSans-53"/>
      </defs>
      <g transform="translate(350.636264 160.532187)scale(0.1 -0.1)">
       <use xlink:href="#DejaVuSans-48"/>
       <use x="63.623047" xlink:href="#DejaVuSans-46"/>
       <use x="95.410156" xlink:href="#DejaVuSans-53"/>
      </g>
     </g>
    </g>
    <g id="text_6">
     <!-- specific_growth_rate_max__1 -->
     <defs>
      <path d="M 44.28125 53.078125 
L 44.28125 44.578125 
Q 40.484375 46.53125 36.375 47.5 
Q 32.28125 48.484375 27.875 48.484375 
Q 21.1875 48.484375 17.84375 46.4375 
Q 14.5 44.390625 14.5 40.28125 
Q 14.5 37.15625 16.890625 35.375 
Q 19.28125 33.59375 26.515625 31.984375 
L 29.59375 31.296875 
Q 39.15625 29.25 43.1875 25.515625 
Q 47.21875 21.78125 47.21875 15.09375 
Q 47.21875 7.46875 41.1875 3.015625 
Q 35.15625 -1.421875 24.609375 -1.421875 
Q 20.21875 -1.421875 15.453125 -0.5625 
Q 10.6875 0.296875 5.421875 2 
L 5.421875 11.28125 
Q 10.40625 8.6875 15.234375 7.390625 
Q 20.0625 6.109375 24.8125 6.109375 
Q 31.15625 6.109375 34.5625 8.28125 
Q 37.984375 10.453125 37.984375 14.40625 
Q 37.984375 18.0625 35.515625 20.015625 
Q 33.0625 21.96875 24.703125 23.78125 
L 21.578125 24.515625 
Q 13.234375 26.265625 9.515625 29.90625 
Q 5.8125 33.546875 5.8125 39.890625 
Q 5.8125 47.609375 11.28125 51.796875 
Q 16.75 56 26.8125 56 
Q 31.78125 56 36.171875 55.265625 
Q 40.578125 54.546875 44.28125 53.078125 
z
" id="DejaVuSans-115"/>
      <path d="M 18.109375 8.203125 
L 18.109375 -20.796875 
L 9.078125 -20.796875 
L 9.078125 54.6875 
L 18.109375 54.6875 
L 18.109375 46.390625 
Q 20.953125 51.265625 25.265625 53.625 
Q 29.59375 56 35.59375 56 
Q 45.5625 56 51.78125 48.09375 
Q 58.015625 40.1875 58.015625 27.296875 
Q 58.015625 14.40625 51.78125 6.484375 
Q 45.5625 -1.421875 35.59375 -1.421875 
Q 29.59375 -1.421875 25.265625 0.953125 
Q 20.953125 3.328125 18.109375 8.203125 
z
M 48.6875 27.296875 
Q 48.6875 37.203125 44.609375 42.84375 
Q 40.53125 48.484375 33.40625 48.484375 
Q 26.265625 48.484375 22.1875 42.84375 
Q 18.109375 37.203125 18.109375 27.296875 
Q 18.109375 17.390625 22.1875 11.75 
Q 26.265625 6.109375 33.40625 6.109375 
Q 40.53125 6.109375 44.609375 11.75 
Q 48.6875 17.390625 48.6875 27.296875 
z
" id="DejaVuSans-112"/>
      <path d="M 56.203125 29.59375 
L 56.203125 25.203125 
L 14.890625 25.203125 
Q 15.484375 15.921875 20.484375 11.0625 
Q 25.484375 6.203125 34.421875 6.203125 
Q 39.59375 6.203125 44.453125 7.46875 
Q 49.3125 8.734375 54.109375 11.28125 
L 54.109375 2.78125 
Q 49.265625 0.734375 44.1875 -0.34375 
Q 39.109375 -1.421875 33.890625 -1.421875 
Q 20.796875 -1.421875 13.15625 6.1875 
Q 5.515625 13.8125 5.515625 26.8125 
Q 5.515625 40.234375 12.765625 48.109375 
Q 20.015625 56 32.328125 56 
Q 43.359375 56 49.78125 48.890625 
Q 56.203125 41.796875 56.203125 29.59375 
z
M 47.21875 32.234375 
Q 47.125 39.59375 43.09375 43.984375 
Q 39.0625 48.390625 32.421875 48.390625 
Q 24.90625 48.390625 20.390625 44.140625 
Q 15.875 39.890625 15.1875 32.171875 
z
" id="DejaVuSans-101"/>
      <path d="M 48.78125 52.59375 
L 48.78125 44.1875 
Q 44.96875 46.296875 41.140625 47.34375 
Q 37.3125 48.390625 33.40625 48.390625 
Q 24.65625 48.390625 19.8125 42.84375 
Q 14.984375 37.3125 14.984375 27.296875 
Q 14.984375 17.28125 19.8125 11.734375 
Q 24.65625 6.203125 33.40625 6.203125 
Q 37.3125 6.203125 41.140625 7.25 
Q 44.96875 8.296875 48.78125 10.40625 
L 48.78125 2.09375 
Q 45.015625 0.34375 40.984375 -0.53125 
Q 36.96875 -1.421875 32.421875 -1.421875 
Q 20.0625 -1.421875 12.78125 6.34375 
Q 5.515625 14.109375 5.515625 27.296875 
Q 5.515625 40.671875 12.859375 48.328125 
Q 20.21875 56 33.015625 56 
Q 37.15625 56 41.109375 55.140625 
Q 45.0625 54.296875 48.78125 52.59375 
z
" id="DejaVuSans-99"/>
      <path d="M 9.421875 54.6875 
L 18.40625 54.6875 
L 18.40625 0 
L 9.421875 0 
z
M 9.421875 75.984375 
L 18.40625 75.984375 
L 18.40625 64.59375 
L 9.421875 64.59375 
z
" id="DejaVuSans-105"/>
      <path d="M 37.109375 75.984375 
L 37.109375 68.5 
L 28.515625 68.5 
Q 23.6875 68.5 21.796875 66.546875 
Q 19.921875 64.59375 19.921875 59.515625 
L 19.921875 54.6875 
L 34.71875 54.6875 
L 34.71875 47.703125 
L 19.921875 47.703125 
L 19.921875 0 
L 10.890625 0 
L 10.890625 47.703125 
L 2.296875 47.703125 
L 2.296875 54.6875 
L 10.890625 54.6875 
L 10.890625 58.5 
Q 10.890625 67.625 15.140625 71.796875 
Q 19.390625 75.984375 28.609375 75.984375 
z
" id="DejaVuSans-102"/>
      <path d="M 50.984375 -16.609375 
L 50.984375 -23.578125 
L -0.984375 -23.578125 
L -0.984375 -16.609375 
z
" id="DejaVuSans-95"/>
      <path d="M 45.40625 27.984375 
Q 45.40625 37.75 41.375 43.109375 
Q 37.359375 48.484375 30.078125 48.484375 
Q 22.859375 48.484375 18.828125 43.109375 
Q 14.796875 37.75 14.796875 27.984375 
Q 14.796875 18.265625 18.828125 12.890625 
Q 22.859375 7.515625 30.078125 7.515625 
Q 37.359375 7.515625 41.375 12.890625 
Q 45.40625 18.265625 45.40625 27.984375 
z
M 54.390625 6.78125 
Q 54.390625 -7.171875 48.1875 -13.984375 
Q 42 -20.796875 29.203125 -20.796875 
Q 24.46875 -20.796875 20.265625 -20.09375 
Q 16.0625 -19.390625 12.109375 -17.921875 
L 12.109375 -9.1875 
Q 16.0625 -11.328125 19.921875 -12.34375 
Q 23.78125 -13.375 27.78125 -13.375 
Q 36.625 -13.375 41.015625 -8.765625 
Q 45.40625 -4.15625 45.40625 5.171875 
L 45.40625 9.625 
Q 42.625 4.78125 38.28125 2.390625 
Q 33.9375 0 27.875 0 
Q 17.828125 0 11.671875 7.65625 
Q 5.515625 15.328125 5.515625 27.984375 
Q 5.515625 40.671875 11.671875 48.328125 
Q 17.828125 56 27.875 56 
Q 33.9375 56 38.28125 53.609375 
Q 42.625 51.21875 45.40625 46.390625 
L 45.40625 54.6875 
L 54.390625 54.6875 
z
" id="DejaVuSans-103"/>
      <path d="M 41.109375 46.296875 
Q 39.59375 47.171875 37.8125 47.578125 
Q 36.03125 48 33.890625 48 
Q 26.265625 48 22.1875 43.046875 
Q 18.109375 38.09375 18.109375 28.8125 
L 18.109375 0 
L 9.078125 0 
L 9.078125 54.6875 
L 18.109375 54.6875 
L 18.109375 46.1875 
Q 20.953125 51.171875 25.484375 53.578125 
Q 30.03125 56 36.53125 56 
Q 37.453125 56 38.578125 55.875 
Q 39.703125 55.765625 41.0625 55.515625 
z
" id="DejaVuSans-114"/>
      <path d="M 30.609375 48.390625 
Q 23.390625 48.390625 19.1875 42.75 
Q 14.984375 37.109375 14.984375 27.296875 
Q 14.984375 17.484375 19.15625 11.84375 
Q 23.34375 6.203125 30.609375 6.203125 
Q 37.796875 6.203125 41.984375 11.859375 
Q 46.1875 17.53125 46.1875 27.296875 
Q 46.1875 37.015625 41.984375 42.703125 
Q 37.796875 48.390625 30.609375 48.390625 
z
M 30.609375 56 
Q 42.328125 56 49.015625 48.375 
Q 55.71875 40.765625 55.71875 27.296875 
Q 55.71875 13.875 49.015625 6.21875 
Q 42.328125 -1.421875 30.609375 -1.421875 
Q 18.84375 -1.421875 12.171875 6.21875 
Q 5.515625 13.875 5.515625 27.296875 
Q 5.515625 40.765625 12.171875 48.375 
Q 18.84375 56 30.609375 56 
z
" id="DejaVuSans-111"/>
      <path d="M 4.203125 54.6875 
L 13.1875 54.6875 
L 24.421875 12.015625 
L 35.59375 54.6875 
L 46.1875 54.6875 
L 57.421875 12.015625 
L 68.609375 54.6875 
L 77.59375 54.6875 
L 63.28125 0 
L 52.6875 0 
L 40.921875 44.828125 
L 29.109375 0 
L 18.5 0 
z
" id="DejaVuSans-119"/>
      <path d="M 18.3125 70.21875 
L 18.3125 54.6875 
L 36.8125 54.6875 
L 36.8125 47.703125 
L 18.3125 47.703125 
L 18.3125 18.015625 
Q 18.3125 11.328125 20.140625 9.421875 
Q 21.96875 7.515625 27.59375 7.515625 
L 36.8125 7.515625 
L 36.8125 0 
L 27.59375 0 
Q 17.1875 0 13.234375 3.875 
Q 9.28125 7.765625 9.28125 18.015625 
L 9.28125 47.703125 
L 2.6875 47.703125 
L 2.6875 54.6875 
L 9.28125 54.6875 
L 9.28125 70.21875 
z
" id="DejaVuSans-116"/>
      <path d="M 54.890625 33.015625 
L 54.890625 0 
L 45.90625 0 
L 45.90625 32.71875 
Q 45.90625 40.484375 42.875 44.328125 
Q 39.84375 48.1875 33.796875 48.1875 
Q 26.515625 48.1875 22.3125 43.546875 
Q 18.109375 38.921875 18.109375 30.90625 
L 18.109375 0 
L 9.078125 0 
L 9.078125 75.984375 
L 18.109375 75.984375 
L 18.109375 46.1875 
Q 21.34375 51.125 25.703125 53.5625 
Q 30.078125 56 35.796875 56 
Q 45.21875 56 50.046875 50.171875 
Q 54.890625 44.34375 54.890625 33.015625 
z
" id="DejaVuSans-104"/>
      <path d="M 34.28125 27.484375 
Q 23.390625 27.484375 19.1875 25 
Q 14.984375 22.515625 14.984375 16.5 
Q 14.984375 11.71875 18.140625 8.90625 
Q 21.296875 6.109375 26.703125 6.109375 
Q 34.1875 6.109375 38.703125 11.40625 
Q 43.21875 16.703125 43.21875 25.484375 
L 43.21875 27.484375 
z
M 52.203125 31.203125 
L 52.203125 0 
L 43.21875 0 
L 43.21875 8.296875 
Q 40.140625 3.328125 35.546875 0.953125 
Q 30.953125 -1.421875 24.3125 -1.421875 
Q 15.921875 -1.421875 10.953125 3.296875 
Q 6 8.015625 6 15.921875 
Q 6 25.140625 12.171875 29.828125 
Q 18.359375 34.515625 30.609375 34.515625 
L 43.21875 34.515625 
L 43.21875 35.40625 
Q 43.21875 41.609375 39.140625 45 
Q 35.0625 48.390625 27.6875 48.390625 
Q 23 48.390625 18.546875 47.265625 
Q 14.109375 46.140625 10.015625 43.890625 
L 10.015625 52.203125 
Q 14.9375 54.109375 19.578125 55.046875 
Q 24.21875 56 28.609375 56 
Q 40.484375 56 46.34375 49.84375 
Q 52.203125 43.703125 52.203125 31.203125 
z
" id="DejaVuSans-97"/>
      <path d="M 52 44.1875 
Q 55.375 50.25 60.0625 53.125 
Q 64.75 56 71.09375 56 
Q 79.640625 56 84.28125 50.015625 
Q 88.921875 44.046875 88.921875 33.015625 
L 88.921875 0 
L 79.890625 0 
L 79.890625 32.71875 
Q 79.890625 40.578125 77.09375 44.375 
Q 74.3125 48.1875 68.609375 48.1875 
Q 61.625 48.1875 57.5625 43.546875 
Q 53.515625 38.921875 53.515625 30.90625 
L 53.515625 0 
L 44.484375 0 
L 44.484375 32.71875 
Q 44.484375 40.625 41.703125 44.40625 
Q 38.921875 48.1875 33.109375 48.1875 
Q 26.21875 48.1875 22.15625 43.53125 
Q 18.109375 38.875 18.109375 30.90625 
L 18.109375 0 
L 9.078125 0 
L 9.078125 54.6875 
L 18.109375 54.6875 
L 18.109375 46.1875 
Q 21.1875 51.21875 25.484375 53.609375 
Q 29.78125 56 35.6875 56 
Q 41.65625 56 45.828125 52.96875 
Q 50 49.953125 52 44.1875 
z
" id="DejaVuSans-109"/>
      <path d="M 54.890625 54.6875 
L 35.109375 28.078125 
L 55.90625 0 
L 45.3125 0 
L 29.390625 21.484375 
L 13.484375 0 
L 2.875 0 
L 24.125 28.609375 
L 4.6875 54.6875 
L 15.28125 54.6875 
L 29.78125 35.203125 
L 44.28125 54.6875 
z
" id="DejaVuSans-120"/>
     </defs>
     <g transform="translate(159.558594 174.210312)scale(0.1 -0.1)">
      <use xlink:href="#DejaVuSans-115"/>
      <use x="52.099609" xlink:href="#DejaVuSans-112"/>
      <use x="115.576172" xlink:href="#DejaVuSans-101"/>
      <use x="177.099609" xlink:href="#DejaVuSans-99"/>
      <use x="232.080078" xlink:href="#DejaVuSans-105"/>
      <use x="259.863281" xlink:href="#DejaVuSans-102"/>
      <use x="295.068359" xlink:href="#DejaVuSans-105"/>
      <use x="322.851562" xlink:href="#DejaVuSans-99"/>
      <use x="377.832031" xlink:href="#DejaVuSans-95"/>
      <use x="427.832031" xlink:href="#DejaVuSans-103"/>
      <use x="491.308594" xlink:href="#DejaVuSans-114"/>
      <use x="532.390625" xlink:href="#DejaVuSans-111"/>
      <use x="593.572266" xlink:href="#DejaVuSans-119"/>
      <use x="675.359375" xlink:href="#DejaVuSans-116"/>
      <use x="714.568359" xlink:href="#DejaVuSans-104"/>
      <use x="777.947266" xlink:href="#DejaVuSans-95"/>
      <use x="827.947266" xlink:href="#DejaVuSans-114"/>
      <use x="869.060547" xlink:href="#DejaVuSans-97"/>
      <use x="930.339844" xlink:href="#DejaVuSans-116"/>
      <use x="969.548828" xlink:href="#DejaVuSans-101"/>
      <use x="1031.072266" xlink:href="#DejaVuSans-95"/>
      <use x="1081.072266" xlink:href="#DejaVuSans-109"/>
      <use x="1178.484375" xlink:href="#DejaVuSans-97"/>
      <use x="1239.763672" xlink:href="#DejaVuSans-120"/>
      <use x="1298.943359" xlink:href="#DejaVuSans-95"/>
      <use x="1348.943359" xlink:href="#DejaVuSans-95"/>
      <use x="1398.943359" xlink:href="#DejaVuSans-49"/>
     </g>
    </g>
   </g>
   <g id="matplotlib.axis_2">
    <g id="ytick_1">
     <g id="line2d_6">
      <defs>
       <path d="M 0 0 
L -3.5 0 
" id="m556d8b7d1c" style="stroke:#000000;stroke-width:0.8;"/>
      </defs>
      <g>
       <use style="stroke:#000000;stroke-width:0.8;" x="47.675" xlink:href="#m556d8b7d1c" y="47.208437"/>
      </g>
     </g>
     <g id="text_7">
      <!-- 0.0 -->
      <g transform="translate(24.771875 51.007656)scale(0.1 -0.1)">
       <use xlink:href="#DejaVuSans-48"/>
       <use x="63.623047" xlink:href="#DejaVuSans-46"/>
       <use x="95.410156" xlink:href="#DejaVuSans-48"/>
      </g>
     </g>
    </g>
    <g id="ytick_2">
     <g id="line2d_7">
      <g>
       <use style="stroke:#000000;stroke-width:0.8;" x="47.675" xlink:href="#m556d8b7d1c" y="113.025312"/>
      </g>
     </g>
     <g id="text_8">
      <!-- 1.0 -->
      <g transform="translate(24.771875 116.824531)scale(0.1 -0.1)">
       <use xlink:href="#DejaVuSans-49"/>
       <use x="63.623047" xlink:href="#DejaVuSans-46"/>
       <use x="95.410156" xlink:href="#DejaVuSans-48"/>
      </g>
     </g>
    </g>
    <g id="text_9">
     <!-- rhamn2cats -->
     <defs>
      <path d="M 54.890625 33.015625 
L 54.890625 0 
L 45.90625 0 
L 45.90625 32.71875 
Q 45.90625 40.484375 42.875 44.328125 
Q 39.84375 48.1875 33.796875 48.1875 
Q 26.515625 48.1875 22.3125 43.546875 
Q 18.109375 38.921875 18.109375 30.90625 
L 18.109375 0 
L 9.078125 0 
L 9.078125 54.6875 
L 18.109375 54.6875 
L 18.109375 46.1875 
Q 21.34375 51.125 25.703125 53.5625 
Q 30.078125 56 35.796875 56 
Q 45.21875 56 50.046875 50.171875 
Q 54.890625 44.34375 54.890625 33.015625 
z
" id="DejaVuSans-110"/>
     </defs>
     <g transform="translate(18.692188 110.002812)rotate(-90)scale(0.1 -0.1)">
      <use xlink:href="#DejaVuSans-114"/>
      <use x="41.097656" xlink:href="#DejaVuSans-104"/>
      <use x="104.476562" xlink:href="#DejaVuSans-97"/>
      <use x="165.755859" xlink:href="#DejaVuSans-109"/>
      <use x="263.167969" xlink:href="#DejaVuSans-110"/>
      <use x="326.546875" xlink:href="#DejaVuSans-50"/>
      <use x="390.169922" xlink:href="#DejaVuSans-99"/>
      <use x="445.150391" xlink:href="#DejaVuSans-97"/>
      <use x="506.429688" xlink:href="#DejaVuSans-116"/>
      <use x="545.638672" xlink:href="#DejaVuSans-115"/>
     </g>
    </g>
   </g>
   <g id="line2d_8">
    <path clip-path="url(#p4f78928987)" d="M 83.084537 47.208437 
L 64.494318 47.208437 
" style="fill:none;stroke:#3f3f3f;stroke-linecap:square;stroke-width:1.5;"/>
   </g>
   <g id="line2d_9">
    <path clip-path="url(#p4f78928987)" d="M 119.134848 47.208437 
L 123.420298 47.208437 
" style="fill:none;stroke:#3f3f3f;stroke-linecap:square;stroke-width:1.5;"/>
   </g>
   <g id="line2d_10">
    <path clip-path="url(#p4f78928987)" d="M 64.494318 34.045062 
L 64.494318 60.371812 
" style="fill:none;stroke:#3f3f3f;stroke-linecap:square;stroke-width:1.5;"/>
   </g>
   <g id="line2d_11">
    <path clip-path="url(#p4f78928987)" d="M 123.420298 34.045062 
L 123.420298 60.371812 
" style="fill:none;stroke:#3f3f3f;stroke-linecap:square;stroke-width:1.5;"/>
   </g>
   <g id="line2d_12">
    <defs>
     <path d="M -0 3.535534 
L 2.12132 0 
L -0 -3.535534 
L -2.12132 -0 
z
" id="me8c29fea1a" style="stroke:#3f3f3f;stroke-linejoin:miter;"/>
    </defs>
    <g clip-path="url(#p4f78928987)">
     <use style="fill:#3f3f3f;stroke:#3f3f3f;stroke-linejoin:miter;" x="208.545808" xlink:href="#me8c29fea1a" y="47.208437"/>
    </g>
   </g>
   <g id="line2d_13">
    <path clip-path="url(#p4f78928987)" d="M 179.654956 113.025312 
L 74.104256 113.025312 
" style="fill:none;stroke:#3f3f3f;stroke-linecap:square;stroke-width:1.5;"/>
   </g>
   <g id="line2d_14">
    <path clip-path="url(#p4f78928987)" d="M 274.886963 113.025312 
L 400.880682 113.025312 
" style="fill:none;stroke:#3f3f3f;stroke-linecap:square;stroke-width:1.5;"/>
   </g>
   <g id="line2d_15">
    <path clip-path="url(#p4f78928987)" d="M 74.104256 99.861937 
L 74.104256 126.188687 
" style="fill:none;stroke:#3f3f3f;stroke-linecap:square;stroke-width:1.5;"/>
   </g>
   <g id="line2d_16">
    <path clip-path="url(#p4f78928987)" d="M 400.880682 99.861937 
L 400.880682 126.188687 
" style="fill:none;stroke:#3f3f3f;stroke-linecap:square;stroke-width:1.5;"/>
   </g>
   <g id="line2d_17"/>
   <g id="line2d_18">
    <path clip-path="url(#p4f78928987)" d="M 101.813846 20.881687 
L 101.813846 73.535187 
" style="fill:none;stroke:#3f3f3f;stroke-linecap:square;stroke-width:1.5;"/>
   </g>
   <g id="line2d_19">
    <path clip-path="url(#p4f78928987)" d="M 212.300611 86.698562 
L 212.300611 139.352062 
" style="fill:none;stroke:#3f3f3f;stroke-linecap:square;stroke-width:1.5;"/>
   </g>
   <g id="patch_5">
    <path d="M 47.675 145.93375 
L 47.675 14.3 
" style="fill:none;stroke:#000000;stroke-linecap:square;stroke-linejoin:miter;stroke-width:0.8;"/>
   </g>
   <g id="patch_6">
    <path d="M 417.7 145.93375 
L 417.7 14.3 
" style="fill:none;stroke:#000000;stroke-linecap:square;stroke-linejoin:miter;stroke-width:0.8;"/>
   </g>
   <g id="patch_7">
    <path d="M 47.675 145.93375 
L 417.7 145.93375 
" style="fill:none;stroke:#000000;stroke-linecap:square;stroke-linejoin:miter;stroke-width:0.8;"/>
   </g>
   <g id="patch_8">
    <path d="M 47.675 14.3 
L 417.7 14.3 
" style="fill:none;stroke:#000000;stroke-linecap:square;stroke-linejoin:miter;stroke-width:0.8;"/>
   </g>
  </g>
  <g id="axes_2">
   <g id="patch_9">
    <path d="M 47.675 323.77375 
L 417.7 323.77375 
L 417.7 192.14 
L 47.675 192.14 
z
" style="fill:#ffffff;"/>
   </g>
   <g id="patch_10">
    <path clip-path="url(#pd465c3ffd7)" d="M 104.594025 198.721687 
L 104.594025 251.375187 
L 182.355722 251.375187 
L 182.355722 198.721687 
L 104.594025 198.721687 
z
" style="fill:#3274a1;stroke:#3f3f3f;stroke-linejoin:miter;stroke-width:1.5;"/>
   </g>
   <g id="patch_11">
    <path clip-path="url(#pd465c3ffd7)" d="M 218.620732 264.538562 
L 218.620732 317.192062 
L 295.236604 317.192062 
L 295.236604 264.538562 
L 218.620732 264.538562 
z
" style="fill:#e1812c;stroke:#3f3f3f;stroke-linejoin:miter;stroke-width:1.5;"/>
   </g>
   <g id="matplotlib.axis_3">
    <g id="xtick_6">
     <g id="line2d_20">
      <g>
       <use style="stroke:#000000;stroke-width:0.8;" x="78.127195" xlink:href="#m08dfe69fac" y="323.77375"/>
      </g>
     </g>
     <g id="text_10">
      <!-- 0.10 -->
      <g transform="translate(66.994382 338.372187)scale(0.1 -0.1)">
       <use xlink:href="#DejaVuSans-48"/>
       <use x="63.623047" xlink:href="#DejaVuSans-46"/>
       <use x="95.410156" xlink:href="#DejaVuSans-49"/>
       <use x="159.033203" xlink:href="#DejaVuSans-48"/>
      </g>
     </g>
    </g>
    <g id="xtick_7">
     <g id="line2d_21">
      <g>
       <use style="stroke:#000000;stroke-width:0.8;" x="155.719246" xlink:href="#m08dfe69fac" y="323.77375"/>
      </g>
     </g>
     <g id="text_11">
      <!-- 0.15 -->
      <g transform="translate(144.586433 338.372187)scale(0.1 -0.1)">
       <use xlink:href="#DejaVuSans-48"/>
       <use x="63.623047" xlink:href="#DejaVuSans-46"/>
       <use x="95.410156" xlink:href="#DejaVuSans-49"/>
       <use x="159.033203" xlink:href="#DejaVuSans-53"/>
      </g>
     </g>
    </g>
    <g id="xtick_8">
     <g id="line2d_22">
      <g>
       <use style="stroke:#000000;stroke-width:0.8;" x="233.311297" xlink:href="#m08dfe69fac" y="323.77375"/>
      </g>
     </g>
     <g id="text_12">
      <!-- 0.20 -->
      <g transform="translate(222.178484 338.372187)scale(0.1 -0.1)">
       <use xlink:href="#DejaVuSans-48"/>
       <use x="63.623047" xlink:href="#DejaVuSans-46"/>
       <use x="95.410156" xlink:href="#DejaVuSans-50"/>
       <use x="159.033203" xlink:href="#DejaVuSans-48"/>
      </g>
     </g>
    </g>
    <g id="xtick_9">
     <g id="line2d_23">
      <g>
       <use style="stroke:#000000;stroke-width:0.8;" x="310.903347" xlink:href="#m08dfe69fac" y="323.77375"/>
      </g>
     </g>
     <g id="text_13">
      <!-- 0.25 -->
      <g transform="translate(299.770535 338.372187)scale(0.1 -0.1)">
       <use xlink:href="#DejaVuSans-48"/>
       <use x="63.623047" xlink:href="#DejaVuSans-46"/>
       <use x="95.410156" xlink:href="#DejaVuSans-50"/>
       <use x="159.033203" xlink:href="#DejaVuSans-53"/>
      </g>
     </g>
    </g>
    <g id="xtick_10">
     <g id="line2d_24">
      <g>
       <use style="stroke:#000000;stroke-width:0.8;" x="388.495398" xlink:href="#m08dfe69fac" y="323.77375"/>
      </g>
     </g>
     <g id="text_14">
      <!-- 0.30 -->
      <g transform="translate(377.362586 338.372187)scale(0.1 -0.1)">
       <use xlink:href="#DejaVuSans-48"/>
       <use x="63.623047" xlink:href="#DejaVuSans-46"/>
       <use x="95.410156" xlink:href="#DejaVuSans-51"/>
       <use x="159.033203" xlink:href="#DejaVuSans-48"/>
      </g>
     </g>
    </g>
    <g id="text_15">
     <!-- specific_growth_rate_mean__1 -->
     <g transform="translate(156.272656 352.050313)scale(0.1 -0.1)">
      <use xlink:href="#DejaVuSans-115"/>
      <use x="52.099609" xlink:href="#DejaVuSans-112"/>
      <use x="115.576172" xlink:href="#DejaVuSans-101"/>
      <use x="177.099609" xlink:href="#DejaVuSans-99"/>
      <use x="232.080078" xlink:href="#DejaVuSans-105"/>
      <use x="259.863281" xlink:href="#DejaVuSans-102"/>
      <use x="295.068359" xlink:href="#DejaVuSans-105"/>
      <use x="322.851562" xlink:href="#DejaVuSans-99"/>
      <use x="377.832031" xlink:href="#DejaVuSans-95"/>
      <use x="427.832031" xlink:href="#DejaVuSans-103"/>
      <use x="491.308594" xlink:href="#DejaVuSans-114"/>
      <use x="532.390625" xlink:href="#DejaVuSans-111"/>
      <use x="593.572266" xlink:href="#DejaVuSans-119"/>
      <use x="675.359375" xlink:href="#DejaVuSans-116"/>
      <use x="714.568359" xlink:href="#DejaVuSans-104"/>
      <use x="777.947266" xlink:href="#DejaVuSans-95"/>
      <use x="827.947266" xlink:href="#DejaVuSans-114"/>
      <use x="869.060547" xlink:href="#DejaVuSans-97"/>
      <use x="930.339844" xlink:href="#DejaVuSans-116"/>
      <use x="969.548828" xlink:href="#DejaVuSans-101"/>
      <use x="1031.072266" xlink:href="#DejaVuSans-95"/>
      <use x="1081.072266" xlink:href="#DejaVuSans-109"/>
      <use x="1178.484375" xlink:href="#DejaVuSans-101"/>
      <use x="1240.007812" xlink:href="#DejaVuSans-97"/>
      <use x="1301.287109" xlink:href="#DejaVuSans-110"/>
      <use x="1364.666016" xlink:href="#DejaVuSans-95"/>
      <use x="1414.666016" xlink:href="#DejaVuSans-95"/>
      <use x="1464.666016" xlink:href="#DejaVuSans-49"/>
     </g>
    </g>
   </g>
   <g id="matplotlib.axis_4">
    <g id="ytick_3">
     <g id="line2d_25">
      <g>
       <use style="stroke:#000000;stroke-width:0.8;" x="47.675" xlink:href="#m556d8b7d1c" y="225.048437"/>
      </g>
     </g>
     <g id="text_16">
      <!-- 0.0 -->
      <g transform="translate(24.771875 228.847656)scale(0.1 -0.1)">
       <use xlink:href="#DejaVuSans-48"/>
       <use x="63.623047" xlink:href="#DejaVuSans-46"/>
       <use x="95.410156" xlink:href="#DejaVuSans-48"/>
      </g>
     </g>
    </g>
    <g id="ytick_4">
     <g id="line2d_26">
      <g>
       <use style="stroke:#000000;stroke-width:0.8;" x="47.675" xlink:href="#m556d8b7d1c" y="290.865312"/>
      </g>
     </g>
     <g id="text_17">
      <!-- 1.0 -->
      <g transform="translate(24.771875 294.664531)scale(0.1 -0.1)">
       <use xlink:href="#DejaVuSans-49"/>
       <use x="63.623047" xlink:href="#DejaVuSans-46"/>
       <use x="95.410156" xlink:href="#DejaVuSans-48"/>
      </g>
     </g>
    </g>
    <g id="text_18">
     <!-- rhamn2cats -->
     <g transform="translate(18.692188 287.842812)rotate(-90)scale(0.1 -0.1)">
      <use xlink:href="#DejaVuSans-114"/>
      <use x="41.097656" xlink:href="#DejaVuSans-104"/>
      <use x="104.476562" xlink:href="#DejaVuSans-97"/>
      <use x="165.755859" xlink:href="#DejaVuSans-109"/>
      <use x="263.167969" xlink:href="#DejaVuSans-110"/>
      <use x="326.546875" xlink:href="#DejaVuSans-50"/>
      <use x="390.169922" xlink:href="#DejaVuSans-99"/>
      <use x="445.150391" xlink:href="#DejaVuSans-97"/>
      <use x="506.429688" xlink:href="#DejaVuSans-116"/>
      <use x="545.638672" xlink:href="#DejaVuSans-115"/>
     </g>
    </g>
   </g>
   <g id="line2d_27">
    <path clip-path="url(#pd465c3ffd7)" d="M 104.594025 225.048437 
L 64.494318 225.048437 
" style="fill:none;stroke:#3f3f3f;stroke-linecap:square;stroke-width:1.5;"/>
   </g>
   <g id="line2d_28">
    <path clip-path="url(#pd465c3ffd7)" d="M 182.355722 225.048437 
L 191.599578 225.048437 
" style="fill:none;stroke:#3f3f3f;stroke-linecap:square;stroke-width:1.5;"/>
   </g>
   <g id="line2d_29">
    <path clip-path="url(#pd465c3ffd7)" d="M 64.494318 211.885062 
L 64.494318 238.211812 
" style="fill:none;stroke:#3f3f3f;stroke-linecap:square;stroke-width:1.5;"/>
   </g>
   <g id="line2d_30">
    <path clip-path="url(#pd465c3ffd7)" d="M 191.599578 211.885062 
L 191.599578 238.211812 
" style="fill:none;stroke:#3f3f3f;stroke-linecap:square;stroke-width:1.5;"/>
   </g>
   <g id="line2d_31">
    <g clip-path="url(#pd465c3ffd7)">
     <use style="fill:#3f3f3f;stroke:#3f3f3f;stroke-linejoin:miter;" x="354.892949" xlink:href="#me8c29fea1a" y="225.048437"/>
    </g>
   </g>
   <g id="line2d_32">
    <path clip-path="url(#pd465c3ffd7)" d="M 218.620732 290.865312 
L 122.925808 290.865312 
" style="fill:none;stroke:#3f3f3f;stroke-linecap:square;stroke-width:1.5;"/>
   </g>
   <g id="line2d_33">
    <path clip-path="url(#pd465c3ffd7)" d="M 295.236604 290.865312 
L 400.880682 290.865312 
" style="fill:none;stroke:#3f3f3f;stroke-linecap:square;stroke-width:1.5;"/>
   </g>
   <g id="line2d_34">
    <path clip-path="url(#pd465c3ffd7)" d="M 122.925808 277.701937 
L 122.925808 304.028687 
" style="fill:none;stroke:#3f3f3f;stroke-linecap:square;stroke-width:1.5;"/>
   </g>
   <g id="line2d_35">
    <path clip-path="url(#pd465c3ffd7)" d="M 400.880682 277.701937 
L 400.880682 304.028687 
" style="fill:none;stroke:#3f3f3f;stroke-linecap:square;stroke-width:1.5;"/>
   </g>
   <g id="line2d_36">
    <g clip-path="url(#pd465c3ffd7)">
     <use style="fill:#3f3f3f;stroke:#3f3f3f;stroke-linejoin:miter;" x="85.223268" xlink:href="#me8c29fea1a" y="290.865312"/>
    </g>
   </g>
   <g id="line2d_37">
    <path clip-path="url(#pd465c3ffd7)" d="M 144.993756 198.721687 
L 144.993756 251.375187 
" style="fill:none;stroke:#3f3f3f;stroke-linecap:square;stroke-width:1.5;"/>
   </g>
   <g id="line2d_38">
    <path clip-path="url(#pd465c3ffd7)" d="M 239.870151 264.538562 
L 239.870151 317.192062 
" style="fill:none;stroke:#3f3f3f;stroke-linecap:square;stroke-width:1.5;"/>
   </g>
   <g id="patch_12">
    <path d="M 47.675 323.77375 
L 47.675 192.14 
" style="fill:none;stroke:#000000;stroke-linecap:square;stroke-linejoin:miter;stroke-width:0.8;"/>
   </g>
   <g id="patch_13">
    <path d="M 417.7 323.77375 
L 417.7 192.14 
" style="fill:none;stroke:#000000;stroke-linecap:square;stroke-linejoin:miter;stroke-width:0.8;"/>
   </g>
   <g id="patch_14">
    <path d="M 47.675 323.77375 
L 417.7 323.77375 
" style="fill:none;stroke:#000000;stroke-linecap:square;stroke-linejoin:miter;stroke-width:0.8;"/>
   </g>
   <g id="patch_15">
    <path d="M 47.675 192.14 
L 417.7 192.14 
" style="fill:none;stroke:#000000;stroke-linecap:square;stroke-linejoin:miter;stroke-width:0.8;"/>
   </g>
  </g>
  <g id="axes_3">
   <g id="patch_16">
    <path d="M 47.675 501.61375 
L 417.7 501.61375 
L 417.7 369.98 
L 47.675 369.98 
z
" style="fill:#ffffff;"/>
   </g>
   <g id="patch_17">
    <path clip-path="url(#pc6009f4c82)" d="M 159.317155 376.561687 
L 159.317155 429.215187 
L 230.857821 429.215187 
L 230.857821 376.561687 
L 159.317155 376.561687 
z
" style="fill:#3274a1;stroke:#3f3f3f;stroke-linejoin:miter;stroke-width:1.5;"/>
   </g>
   <g id="patch_18">
    <path clip-path="url(#pc6009f4c82)" d="M 88.443956 442.378562 
L 88.443956 495.032062 
L 119.078379 495.032062 
L 119.078379 442.378562 
L 88.443956 442.378562 
z
" style="fill:#e1812c;stroke:#3f3f3f;stroke-linejoin:miter;stroke-width:1.5;"/>
   </g>
   <g id="matplotlib.axis_5">
    <g id="xtick_11">
     <g id="line2d_39">
      <g>
       <use style="stroke:#000000;stroke-width:0.8;" x="50.345234" xlink:href="#m08dfe69fac" y="501.61375"/>
      </g>
     </g>
     <g id="text_19">
      <!-- 0 -->
      <g transform="translate(47.163984 516.212188)scale(0.1 -0.1)">
       <use xlink:href="#DejaVuSans-48"/>
      </g>
     </g>
    </g>
    <g id="xtick_12">
     <g id="line2d_40">
      <g>
       <use style="stroke:#000000;stroke-width:0.8;" x="117.140159" xlink:href="#m08dfe69fac" y="501.61375"/>
      </g>
     </g>
     <g id="text_20">
      <!-- 2 -->
      <g transform="translate(113.958909 516.212188)scale(0.1 -0.1)">
       <use xlink:href="#DejaVuSans-50"/>
      </g>
     </g>
    </g>
    <g id="xtick_13">
     <g id="line2d_41">
      <g>
       <use style="stroke:#000000;stroke-width:0.8;" x="183.935085" xlink:href="#m08dfe69fac" y="501.61375"/>
      </g>
     </g>
     <g id="text_21">
      <!-- 4 -->
      <g transform="translate(180.753835 516.212188)scale(0.1 -0.1)">
       <use xlink:href="#DejaVuSans-52"/>
      </g>
     </g>
    </g>
    <g id="xtick_14">
     <g id="line2d_42">
      <g>
       <use style="stroke:#000000;stroke-width:0.8;" x="250.730011" xlink:href="#m08dfe69fac" y="501.61375"/>
      </g>
     </g>
     <g id="text_22">
      <!-- 6 -->
      <defs>
       <path d="M 33.015625 40.375 
Q 26.375 40.375 22.484375 35.828125 
Q 18.609375 31.296875 18.609375 23.390625 
Q 18.609375 15.53125 22.484375 10.953125 
Q 26.375 6.390625 33.015625 6.390625 
Q 39.65625 6.390625 43.53125 10.953125 
Q 47.40625 15.53125 47.40625 23.390625 
Q 47.40625 31.296875 43.53125 35.828125 
Q 39.65625 40.375 33.015625 40.375 
z
M 52.59375 71.296875 
L 52.59375 62.3125 
Q 48.875 64.0625 45.09375 64.984375 
Q 41.3125 65.921875 37.59375 65.921875 
Q 27.828125 65.921875 22.671875 59.328125 
Q 17.53125 52.734375 16.796875 39.40625 
Q 19.671875 43.65625 24.015625 45.921875 
Q 28.375 48.1875 33.59375 48.1875 
Q 44.578125 48.1875 50.953125 41.515625 
Q 57.328125 34.859375 57.328125 23.390625 
Q 57.328125 12.15625 50.6875 5.359375 
Q 44.046875 -1.421875 33.015625 -1.421875 
Q 20.359375 -1.421875 13.671875 8.265625 
Q 6.984375 17.96875 6.984375 36.375 
Q 6.984375 53.65625 15.1875 63.9375 
Q 23.390625 74.21875 37.203125 74.21875 
Q 40.921875 74.21875 44.703125 73.484375 
Q 48.484375 72.75 52.59375 71.296875 
z
" id="DejaVuSans-54"/>
      </defs>
      <g transform="translate(247.548761 516.212188)scale(0.1 -0.1)">
       <use xlink:href="#DejaVuSans-54"/>
      </g>
     </g>
    </g>
    <g id="xtick_15">
     <g id="line2d_43">
      <g>
       <use style="stroke:#000000;stroke-width:0.8;" x="317.524936" xlink:href="#m08dfe69fac" y="501.61375"/>
      </g>
     </g>
     <g id="text_23">
      <!-- 8 -->
      <defs>
       <path d="M 31.78125 34.625 
Q 24.75 34.625 20.71875 30.859375 
Q 16.703125 27.09375 16.703125 20.515625 
Q 16.703125 13.921875 20.71875 10.15625 
Q 24.75 6.390625 31.78125 6.390625 
Q 38.8125 6.390625 42.859375 10.171875 
Q 46.921875 13.96875 46.921875 20.515625 
Q 46.921875 27.09375 42.890625 30.859375 
Q 38.875 34.625 31.78125 34.625 
z
M 21.921875 38.8125 
Q 15.578125 40.375 12.03125 44.71875 
Q 8.5 49.078125 8.5 55.328125 
Q 8.5 64.0625 14.71875 69.140625 
Q 20.953125 74.21875 31.78125 74.21875 
Q 42.671875 74.21875 48.875 69.140625 
Q 55.078125 64.0625 55.078125 55.328125 
Q 55.078125 49.078125 51.53125 44.71875 
Q 48 40.375 41.703125 38.8125 
Q 48.828125 37.15625 52.796875 32.3125 
Q 56.78125 27.484375 56.78125 20.515625 
Q 56.78125 9.90625 50.3125 4.234375 
Q 43.84375 -1.421875 31.78125 -1.421875 
Q 19.734375 -1.421875 13.25 4.234375 
Q 6.78125 9.90625 6.78125 20.515625 
Q 6.78125 27.484375 10.78125 32.3125 
Q 14.796875 37.15625 21.921875 38.8125 
z
M 18.3125 54.390625 
Q 18.3125 48.734375 21.84375 45.5625 
Q 25.390625 42.390625 31.78125 42.390625 
Q 38.140625 42.390625 41.71875 45.5625 
Q 45.3125 48.734375 45.3125 54.390625 
Q 45.3125 60.0625 41.71875 63.234375 
Q 38.140625 66.40625 31.78125 66.40625 
Q 25.390625 66.40625 21.84375 63.234375 
Q 18.3125 60.0625 18.3125 54.390625 
z
" id="DejaVuSans-56"/>
      </defs>
      <g transform="translate(314.343686 516.212188)scale(0.1 -0.1)">
       <use xlink:href="#DejaVuSans-56"/>
      </g>
     </g>
    </g>
    <g id="xtick_16">
     <g id="line2d_44">
      <g>
       <use style="stroke:#000000;stroke-width:0.8;" x="384.319862" xlink:href="#m08dfe69fac" y="501.61375"/>
      </g>
     </g>
     <g id="text_24">
      <!-- 10 -->
      <g transform="translate(377.957362 516.212188)scale(0.1 -0.1)">
       <use xlink:href="#DejaVuSans-49"/>
       <use x="63.623047" xlink:href="#DejaVuSans-48"/>
      </g>
     </g>
    </g>
    <g id="text_25">
     <!-- area__1 -->
     <g transform="translate(213.247656 529.612188)scale(0.1 -0.1)">
      <use xlink:href="#DejaVuSans-97"/>
      <use x="61.279297" xlink:href="#DejaVuSans-114"/>
      <use x="102.361328" xlink:href="#DejaVuSans-101"/>
      <use x="163.884766" xlink:href="#DejaVuSans-97"/>
      <use x="225.164062" xlink:href="#DejaVuSans-95"/>
      <use x="275.164062" xlink:href="#DejaVuSans-95"/>
      <use x="325.164062" xlink:href="#DejaVuSans-49"/>
     </g>
    </g>
   </g>
   <g id="matplotlib.axis_6">
    <g id="ytick_5">
     <g id="line2d_45">
      <g>
       <use style="stroke:#000000;stroke-width:0.8;" x="47.675" xlink:href="#m556d8b7d1c" y="402.888437"/>
      </g>
     </g>
     <g id="text_26">
      <!-- 0.0 -->
      <g transform="translate(24.771875 406.687656)scale(0.1 -0.1)">
       <use xlink:href="#DejaVuSans-48"/>
       <use x="63.623047" xlink:href="#DejaVuSans-46"/>
       <use x="95.410156" xlink:href="#DejaVuSans-48"/>
      </g>
     </g>
    </g>
    <g id="ytick_6">
     <g id="line2d_46">
      <g>
       <use style="stroke:#000000;stroke-width:0.8;" x="47.675" xlink:href="#m556d8b7d1c" y="468.705312"/>
      </g>
     </g>
     <g id="text_27">
      <!-- 1.0 -->
      <g transform="translate(24.771875 472.504531)scale(0.1 -0.1)">
       <use xlink:href="#DejaVuSans-49"/>
       <use x="63.623047" xlink:href="#DejaVuSans-46"/>
       <use x="95.410156" xlink:href="#DejaVuSans-48"/>
      </g>
     </g>
    </g>
    <g id="text_28">
     <!-- rhamn2cats -->
     <g transform="translate(18.692188 465.682812)rotate(-90)scale(0.1 -0.1)">
      <use xlink:href="#DejaVuSans-114"/>
      <use x="41.097656" xlink:href="#DejaVuSans-104"/>
      <use x="104.476562" xlink:href="#DejaVuSans-97"/>
      <use x="165.755859" xlink:href="#DejaVuSans-109"/>
      <use x="263.167969" xlink:href="#DejaVuSans-110"/>
      <use x="326.546875" xlink:href="#DejaVuSans-50"/>
      <use x="390.169922" xlink:href="#DejaVuSans-99"/>
      <use x="445.150391" xlink:href="#DejaVuSans-97"/>
      <use x="506.429688" xlink:href="#DejaVuSans-116"/>
      <use x="545.638672" xlink:href="#DejaVuSans-115"/>
     </g>
    </g>
   </g>
   <g id="line2d_47">
    <path clip-path="url(#pc6009f4c82)" d="M 159.317155 402.888437 
L 95.217582 402.888437 
" style="fill:none;stroke:#3f3f3f;stroke-linecap:square;stroke-width:1.5;"/>
   </g>
   <g id="line2d_48">
    <path clip-path="url(#pc6009f4c82)" d="M 230.857821 402.888437 
L 287.838061 402.888437 
" style="fill:none;stroke:#3f3f3f;stroke-linecap:square;stroke-width:1.5;"/>
   </g>
   <g id="line2d_49">
    <path clip-path="url(#pc6009f4c82)" d="M 95.217582 389.725062 
L 95.217582 416.051812 
" style="fill:none;stroke:#3f3f3f;stroke-linecap:square;stroke-width:1.5;"/>
   </g>
   <g id="line2d_50">
    <path clip-path="url(#pc6009f4c82)" d="M 287.838061 389.725062 
L 287.838061 416.051812 
" style="fill:none;stroke:#3f3f3f;stroke-linecap:square;stroke-width:1.5;"/>
   </g>
   <g id="line2d_51"/>
   <g id="line2d_52">
    <path clip-path="url(#pc6009f4c82)" d="M 88.443956 468.705312 
L 64.494318 468.705312 
" style="fill:none;stroke:#3f3f3f;stroke-linecap:square;stroke-width:1.5;"/>
   </g>
   <g id="line2d_53">
    <path clip-path="url(#pc6009f4c82)" d="M 119.078379 468.705312 
L 131.8803 468.705312 
" style="fill:none;stroke:#3f3f3f;stroke-linecap:square;stroke-width:1.5;"/>
   </g>
   <g id="line2d_54">
    <path clip-path="url(#pc6009f4c82)" d="M 64.494318 455.541937 
L 64.494318 481.868687 
" style="fill:none;stroke:#3f3f3f;stroke-linecap:square;stroke-width:1.5;"/>
   </g>
   <g id="line2d_55">
    <path clip-path="url(#pc6009f4c82)" d="M 131.8803 455.541937 
L 131.8803 481.868687 
" style="fill:none;stroke:#3f3f3f;stroke-linecap:square;stroke-width:1.5;"/>
   </g>
   <g id="line2d_56">
    <g clip-path="url(#pc6009f4c82)">
     <use style="fill:#3f3f3f;stroke:#3f3f3f;stroke-linejoin:miter;" x="234.529041" xlink:href="#me8c29fea1a" y="468.705312"/>
     <use style="fill:#3f3f3f;stroke:#3f3f3f;stroke-linejoin:miter;" x="209.051101" xlink:href="#me8c29fea1a" y="468.705312"/>
     <use style="fill:#3f3f3f;stroke:#3f3f3f;stroke-linejoin:miter;" x="215.330877" xlink:href="#me8c29fea1a" y="468.705312"/>
     <use style="fill:#3f3f3f;stroke:#3f3f3f;stroke-linejoin:miter;" x="400.880682" xlink:href="#me8c29fea1a" y="468.705312"/>
    </g>
   </g>
   <g id="line2d_57">
    <path clip-path="url(#pc6009f4c82)" d="M 199.136937 376.561687 
L 199.136937 429.215187 
" style="fill:none;stroke:#3f3f3f;stroke-linecap:square;stroke-width:1.5;"/>
   </g>
   <g id="line2d_58">
    <path clip-path="url(#pc6009f4c82)" d="M 100.785 442.378562 
L 100.785 495.032062 
" style="fill:none;stroke:#3f3f3f;stroke-linecap:square;stroke-width:1.5;"/>
   </g>
   <g id="patch_19">
    <path d="M 47.675 501.61375 
L 47.675 369.98 
" style="fill:none;stroke:#000000;stroke-linecap:square;stroke-linejoin:miter;stroke-width:0.8;"/>
   </g>
   <g id="patch_20">
    <path d="M 417.7 501.61375 
L 417.7 369.98 
" style="fill:none;stroke:#000000;stroke-linecap:square;stroke-linejoin:miter;stroke-width:0.8;"/>
   </g>
   <g id="patch_21">
    <path d="M 47.675 501.61375 
L 417.7 501.61375 
" style="fill:none;stroke:#000000;stroke-linecap:square;stroke-linejoin:miter;stroke-width:0.8;"/>
   </g>
   <g id="patch_22">
    <path d="M 47.675 369.98 
L 417.7 369.98 
" style="fill:none;stroke:#000000;stroke-linecap:square;stroke-linejoin:miter;stroke-width:0.8;"/>
   </g>
  </g>
  <g id="axes_4">
   <g id="patch_23">
    <path d="M 47.675 679.45375 
L 417.7 679.45375 
L 417.7 547.82 
L 47.675 547.82 
z
" style="fill:#ffffff;"/>
   </g>
   <g id="patch_24">
    <path clip-path="url(#p276328a15f)" d="M 231.054556 554.401688 
L 231.054556 607.055187 
L 313.109968 607.055187 
L 313.109968 554.401688 
L 231.054556 554.401688 
z
" style="fill:#3274a1;stroke:#3f3f3f;stroke-linejoin:miter;stroke-width:1.5;"/>
   </g>
   <g id="patch_25">
    <path clip-path="url(#p276328a15f)" d="M 132.261474 620.218563 
L 132.261474 672.872062 
L 194.313327 672.872062 
L 194.313327 620.218563 
L 132.261474 620.218563 
z
" style="fill:#e1812c;stroke:#3f3f3f;stroke-linejoin:miter;stroke-width:1.5;"/>
   </g>
   <g id="matplotlib.axis_7">
    <g id="xtick_17">
     <g id="line2d_59">
      <g>
       <use style="stroke:#000000;stroke-width:0.8;" x="115.115567" xlink:href="#m08dfe69fac" y="679.45375"/>
      </g>
     </g>
     <g id="text_29">
      <!-- 15 -->
      <g transform="translate(108.753067 694.052187)scale(0.1 -0.1)">
       <use xlink:href="#DejaVuSans-49"/>
       <use x="63.623047" xlink:href="#DejaVuSans-53"/>
      </g>
     </g>
    </g>
    <g id="xtick_18">
     <g id="line2d_60">
      <g>
       <use style="stroke:#000000;stroke-width:0.8;" x="196.762743" xlink:href="#m08dfe69fac" y="679.45375"/>
      </g>
     </g>
     <g id="text_30">
      <!-- 20 -->
      <g transform="translate(190.400243 694.052187)scale(0.1 -0.1)">
       <use xlink:href="#DejaVuSans-50"/>
       <use x="63.623047" xlink:href="#DejaVuSans-48"/>
      </g>
     </g>
    </g>
    <g id="xtick_19">
     <g id="line2d_61">
      <g>
       <use style="stroke:#000000;stroke-width:0.8;" x="278.409918" xlink:href="#m08dfe69fac" y="679.45375"/>
      </g>
     </g>
     <g id="text_31">
      <!-- 25 -->
      <g transform="translate(272.047418 694.052187)scale(0.1 -0.1)">
       <use xlink:href="#DejaVuSans-50"/>
       <use x="63.623047" xlink:href="#DejaVuSans-53"/>
      </g>
     </g>
    </g>
    <g id="xtick_20">
     <g id="line2d_62">
      <g>
       <use style="stroke:#000000;stroke-width:0.8;" x="360.057094" xlink:href="#m08dfe69fac" y="679.45375"/>
      </g>
     </g>
     <g id="text_32">
      <!-- 30 -->
      <g transform="translate(353.694594 694.052187)scale(0.1 -0.1)">
       <use xlink:href="#DejaVuSans-51"/>
       <use x="63.623047" xlink:href="#DejaVuSans-48"/>
      </g>
     </g>
    </g>
    <g id="text_33">
     <!-- delta_time__1 -->
     <defs>
      <path d="M 45.40625 46.390625 
L 45.40625 75.984375 
L 54.390625 75.984375 
L 54.390625 0 
L 45.40625 0 
L 45.40625 8.203125 
Q 42.578125 3.328125 38.25 0.953125 
Q 33.9375 -1.421875 27.875 -1.421875 
Q 17.96875 -1.421875 11.734375 6.484375 
Q 5.515625 14.40625 5.515625 27.296875 
Q 5.515625 40.1875 11.734375 48.09375 
Q 17.96875 56 27.875 56 
Q 33.9375 56 38.25 53.625 
Q 42.578125 51.265625 45.40625 46.390625 
z
M 14.796875 27.296875 
Q 14.796875 17.390625 18.875 11.75 
Q 22.953125 6.109375 30.078125 6.109375 
Q 37.203125 6.109375 41.296875 11.75 
Q 45.40625 17.390625 45.40625 27.296875 
Q 45.40625 37.203125 41.296875 42.84375 
Q 37.203125 48.484375 30.078125 48.484375 
Q 22.953125 48.484375 18.875 42.84375 
Q 14.796875 37.203125 14.796875 27.296875 
z
" id="DejaVuSans-100"/>
      <path d="M 9.421875 75.984375 
L 18.40625 75.984375 
L 18.40625 0 
L 9.421875 0 
z
" id="DejaVuSans-108"/>
     </defs>
     <g transform="translate(198.046094 707.730312)scale(0.1 -0.1)">
      <use xlink:href="#DejaVuSans-100"/>
      <use x="63.476562" xlink:href="#DejaVuSans-101"/>
      <use x="125" xlink:href="#DejaVuSans-108"/>
      <use x="152.783203" xlink:href="#DejaVuSans-116"/>
      <use x="191.992188" xlink:href="#DejaVuSans-97"/>
      <use x="253.271484" xlink:href="#DejaVuSans-95"/>
      <use x="303.271484" xlink:href="#DejaVuSans-116"/>
      <use x="342.480469" xlink:href="#DejaVuSans-105"/>
      <use x="370.263672" xlink:href="#DejaVuSans-109"/>
      <use x="467.675781" xlink:href="#DejaVuSans-101"/>
      <use x="529.199219" xlink:href="#DejaVuSans-95"/>
      <use x="579.199219" xlink:href="#DejaVuSans-95"/>
      <use x="629.199219" xlink:href="#DejaVuSans-49"/>
     </g>
    </g>
   </g>
   <g id="matplotlib.axis_8">
    <g id="ytick_7">
     <g id="line2d_63">
      <g>
       <use style="stroke:#000000;stroke-width:0.8;" x="47.675" xlink:href="#m556d8b7d1c" y="580.728438"/>
      </g>
     </g>
     <g id="text_34">
      <!-- 0.0 -->
      <g transform="translate(24.771875 584.527656)scale(0.1 -0.1)">
       <use xlink:href="#DejaVuSans-48"/>
       <use x="63.623047" xlink:href="#DejaVuSans-46"/>
       <use x="95.410156" xlink:href="#DejaVuSans-48"/>
      </g>
     </g>
    </g>
    <g id="ytick_8">
     <g id="line2d_64">
      <g>
       <use style="stroke:#000000;stroke-width:0.8;" x="47.675" xlink:href="#m556d8b7d1c" y="646.545313"/>
      </g>
     </g>
     <g id="text_35">
      <!-- 1.0 -->
      <g transform="translate(24.771875 650.344531)scale(0.1 -0.1)">
       <use xlink:href="#DejaVuSans-49"/>
       <use x="63.623047" xlink:href="#DejaVuSans-46"/>
       <use x="95.410156" xlink:href="#DejaVuSans-48"/>
      </g>
     </g>
    </g>
    <g id="text_36">
     <!-- rhamn2cats -->
     <g transform="translate(18.692188 643.522813)rotate(-90)scale(0.1 -0.1)">
      <use xlink:href="#DejaVuSans-114"/>
      <use x="41.097656" xlink:href="#DejaVuSans-104"/>
      <use x="104.476562" xlink:href="#DejaVuSans-97"/>
      <use x="165.755859" xlink:href="#DejaVuSans-109"/>
      <use x="263.167969" xlink:href="#DejaVuSans-110"/>
      <use x="326.546875" xlink:href="#DejaVuSans-50"/>
      <use x="390.169922" xlink:href="#DejaVuSans-99"/>
      <use x="445.150391" xlink:href="#DejaVuSans-97"/>
      <use x="506.429688" xlink:href="#DejaVuSans-116"/>
      <use x="545.638672" xlink:href="#DejaVuSans-115"/>
     </g>
    </g>
   </g>
   <g id="line2d_65">
    <path clip-path="url(#p276328a15f)" d="M 231.054556 580.728438 
L 113.482624 580.728438 
" style="fill:none;stroke:#3f3f3f;stroke-linecap:square;stroke-width:1.5;"/>
   </g>
   <g id="line2d_66">
    <path clip-path="url(#p276328a15f)" d="M 313.109968 580.728438 
L 400.880682 580.728438 
" style="fill:none;stroke:#3f3f3f;stroke-linecap:square;stroke-width:1.5;"/>
   </g>
   <g id="line2d_67">
    <path clip-path="url(#p276328a15f)" d="M 113.482624 567.565063 
L 113.482624 593.891813 
" style="fill:none;stroke:#3f3f3f;stroke-linecap:square;stroke-width:1.5;"/>
   </g>
   <g id="line2d_68">
    <path clip-path="url(#p276328a15f)" d="M 400.880682 567.565063 
L 400.880682 593.891813 
" style="fill:none;stroke:#3f3f3f;stroke-linecap:square;stroke-width:1.5;"/>
   </g>
   <g id="line2d_69"/>
   <g id="line2d_70">
    <path clip-path="url(#p276328a15f)" d="M 132.261474 646.545313 
L 64.494318 646.545313 
" style="fill:none;stroke:#3f3f3f;stroke-linecap:square;stroke-width:1.5;"/>
   </g>
   <g id="line2d_71">
    <path clip-path="url(#p276328a15f)" d="M 194.313327 646.545313 
L 260.44754 646.545313 
" style="fill:none;stroke:#3f3f3f;stroke-linecap:square;stroke-width:1.5;"/>
   </g>
   <g id="line2d_72">
    <path clip-path="url(#p276328a15f)" d="M 64.494318 633.381938 
L 64.494318 659.708687 
" style="fill:none;stroke:#3f3f3f;stroke-linecap:square;stroke-width:1.5;"/>
   </g>
   <g id="line2d_73">
    <path clip-path="url(#p276328a15f)" d="M 260.44754 633.381938 
L 260.44754 659.708687 
" style="fill:none;stroke:#3f3f3f;stroke-linecap:square;stroke-width:1.5;"/>
   </g>
   <g id="line2d_74">
    <g clip-path="url(#p276328a15f)">
     <use style="fill:#3f3f3f;stroke:#3f3f3f;stroke-linejoin:miter;" x="324.132337" xlink:href="#me8c29fea1a" y="646.545313"/>
     <use style="fill:#3f3f3f;stroke:#3f3f3f;stroke-linejoin:miter;" x="289.840523" xlink:href="#me8c29fea1a" y="646.545313"/>
     <use style="fill:#3f3f3f;stroke:#3f3f3f;stroke-linejoin:miter;" x="355.158263" xlink:href="#me8c29fea1a" y="646.545313"/>
    </g>
   </g>
   <g id="line2d_75">
    <path clip-path="url(#p276328a15f)" d="M 251.46635 554.401688 
L 251.46635 607.055187 
" style="fill:none;stroke:#3f3f3f;stroke-linecap:square;stroke-width:1.5;"/>
   </g>
   <g id="line2d_76">
    <path clip-path="url(#p276328a15f)" d="M 172.26859 620.218563 
L 172.26859 672.872062 
" style="fill:none;stroke:#3f3f3f;stroke-linecap:square;stroke-width:1.5;"/>
   </g>
   <g id="patch_26">
    <path d="M 47.675 679.45375 
L 47.675 547.82 
" style="fill:none;stroke:#000000;stroke-linecap:square;stroke-linejoin:miter;stroke-width:0.8;"/>
   </g>
   <g id="patch_27">
    <path d="M 417.7 679.45375 
L 417.7 547.82 
" style="fill:none;stroke:#000000;stroke-linecap:square;stroke-linejoin:miter;stroke-width:0.8;"/>
   </g>
   <g id="patch_28">
    <path d="M 47.675 679.45375 
L 417.7 679.45375 
" style="fill:none;stroke:#000000;stroke-linecap:square;stroke-linejoin:miter;stroke-width:0.8;"/>
   </g>
   <g id="patch_29">
    <path d="M 47.675 547.82 
L 417.7 547.82 
" style="fill:none;stroke:#000000;stroke-linecap:square;stroke-linejoin:miter;stroke-width:0.8;"/>
   </g>
  </g>
  <g id="axes_5">
   <g id="patch_30">
    <path d="M 47.675 857.29375 
L 417.7 857.29375 
L 417.7 725.66 
L 47.675 725.66 
z
" style="fill:#ffffff;"/>
   </g>
   <g id="patch_31">
    <path clip-path="url(#p4cf3fa2e6d)" d="M 138.286539 732.241688 
L 138.286539 784.895188 
L 239.499958 784.895188 
L 239.499958 732.241688 
L 138.286539 732.241688 
z
" style="fill:#3274a1;stroke:#3f3f3f;stroke-linejoin:miter;stroke-width:1.5;"/>
   </g>
   <g id="patch_32">
    <path clip-path="url(#p4cf3fa2e6d)" d="M 256.268202 798.058563 
L 256.268202 850.712063 
L 346.481639 850.712063 
L 346.481639 798.058563 
L 256.268202 798.058563 
z
" style="fill:#e1812c;stroke:#3f3f3f;stroke-linejoin:miter;stroke-width:1.5;"/>
   </g>
   <g id="matplotlib.axis_9">
    <g id="xtick_21">
     <g id="line2d_77">
      <g>
       <use style="stroke:#000000;stroke-width:0.8;" x="62.55752" xlink:href="#m08dfe69fac" y="857.29375"/>
      </g>
     </g>
     <g id="text_37">
      <!-- 0.0 -->
      <g transform="translate(54.605957 871.892187)scale(0.1 -0.1)">
       <use xlink:href="#DejaVuSans-48"/>
       <use x="63.623047" xlink:href="#DejaVuSans-46"/>
       <use x="95.410156" xlink:href="#DejaVuSans-48"/>
      </g>
     </g>
    </g>
    <g id="xtick_22">
     <g id="line2d_78">
      <g>
       <use style="stroke:#000000;stroke-width:0.8;" x="109.220465" xlink:href="#m08dfe69fac" y="857.29375"/>
      </g>
     </g>
     <g id="text_38">
      <!-- 0.1 -->
      <g transform="translate(101.268902 871.892187)scale(0.1 -0.1)">
       <use xlink:href="#DejaVuSans-48"/>
       <use x="63.623047" xlink:href="#DejaVuSans-46"/>
       <use x="95.410156" xlink:href="#DejaVuSans-49"/>
      </g>
     </g>
    </g>
    <g id="xtick_23">
     <g id="line2d_79">
      <g>
       <use style="stroke:#000000;stroke-width:0.8;" x="155.88341" xlink:href="#m08dfe69fac" y="857.29375"/>
      </g>
     </g>
     <g id="text_39">
      <!-- 0.2 -->
      <g transform="translate(147.931848 871.892187)scale(0.1 -0.1)">
       <use xlink:href="#DejaVuSans-48"/>
       <use x="63.623047" xlink:href="#DejaVuSans-46"/>
       <use x="95.410156" xlink:href="#DejaVuSans-50"/>
      </g>
     </g>
    </g>
    <g id="xtick_24">
     <g id="line2d_80">
      <g>
       <use style="stroke:#000000;stroke-width:0.8;" x="202.546356" xlink:href="#m08dfe69fac" y="857.29375"/>
      </g>
     </g>
     <g id="text_40">
      <!-- 0.3 -->
      <g transform="translate(194.594793 871.892187)scale(0.1 -0.1)">
       <use xlink:href="#DejaVuSans-48"/>
       <use x="63.623047" xlink:href="#DejaVuSans-46"/>
       <use x="95.410156" xlink:href="#DejaVuSans-51"/>
      </g>
     </g>
    </g>
    <g id="xtick_25">
     <g id="line2d_81">
      <g>
       <use style="stroke:#000000;stroke-width:0.8;" x="249.209301" xlink:href="#m08dfe69fac" y="857.29375"/>
      </g>
     </g>
     <g id="text_41">
      <!-- 0.4 -->
      <g transform="translate(241.257738 871.892187)scale(0.1 -0.1)">
       <use xlink:href="#DejaVuSans-48"/>
       <use x="63.623047" xlink:href="#DejaVuSans-46"/>
       <use x="95.410156" xlink:href="#DejaVuSans-52"/>
      </g>
     </g>
    </g>
    <g id="xtick_26">
     <g id="line2d_82">
      <g>
       <use style="stroke:#000000;stroke-width:0.8;" x="295.872246" xlink:href="#m08dfe69fac" y="857.29375"/>
      </g>
     </g>
     <g id="text_42">
      <!-- 0.5 -->
      <g transform="translate(287.920684 871.892187)scale(0.1 -0.1)">
       <use xlink:href="#DejaVuSans-48"/>
       <use x="63.623047" xlink:href="#DejaVuSans-46"/>
       <use x="95.410156" xlink:href="#DejaVuSans-53"/>
      </g>
     </g>
    </g>
    <g id="xtick_27">
     <g id="line2d_83">
      <g>
       <use style="stroke:#000000;stroke-width:0.8;" x="342.535192" xlink:href="#m08dfe69fac" y="857.29375"/>
      </g>
     </g>
     <g id="text_43">
      <!-- 0.6 -->
      <g transform="translate(334.583629 871.892187)scale(0.1 -0.1)">
       <use xlink:href="#DejaVuSans-48"/>
       <use x="63.623047" xlink:href="#DejaVuSans-46"/>
       <use x="95.410156" xlink:href="#DejaVuSans-54"/>
      </g>
     </g>
    </g>
    <g id="xtick_28">
     <g id="line2d_84">
      <g>
       <use style="stroke:#000000;stroke-width:0.8;" x="389.198137" xlink:href="#m08dfe69fac" y="857.29375"/>
      </g>
     </g>
     <g id="text_44">
      <!-- 0.7 -->
      <defs>
       <path d="M 8.203125 72.90625 
L 55.078125 72.90625 
L 55.078125 68.703125 
L 28.609375 0 
L 18.3125 0 
L 43.21875 64.59375 
L 8.203125 64.59375 
z
" id="DejaVuSans-55"/>
      </defs>
      <g transform="translate(381.246574 871.892187)scale(0.1 -0.1)">
       <use xlink:href="#DejaVuSans-48"/>
       <use x="63.623047" xlink:href="#DejaVuSans-46"/>
       <use x="95.410156" xlink:href="#DejaVuSans-55"/>
      </g>
     </g>
    </g>
    <g id="text_45">
     <!-- delta_od__2 -->
     <g transform="translate(203.108594 885.570312)scale(0.1 -0.1)">
      <use xlink:href="#DejaVuSans-100"/>
      <use x="63.476562" xlink:href="#DejaVuSans-101"/>
      <use x="125" xlink:href="#DejaVuSans-108"/>
      <use x="152.783203" xlink:href="#DejaVuSans-116"/>
      <use x="191.992188" xlink:href="#DejaVuSans-97"/>
      <use x="253.271484" xlink:href="#DejaVuSans-95"/>
      <use x="303.271484" xlink:href="#DejaVuSans-111"/>
      <use x="364.453125" xlink:href="#DejaVuSans-100"/>
      <use x="427.929688" xlink:href="#DejaVuSans-95"/>
      <use x="477.929688" xlink:href="#DejaVuSans-95"/>
      <use x="527.929688" xlink:href="#DejaVuSans-50"/>
     </g>
    </g>
   </g>
   <g id="matplotlib.axis_10">
    <g id="ytick_9">
     <g id="line2d_85">
      <g>
       <use style="stroke:#000000;stroke-width:0.8;" x="47.675" xlink:href="#m556d8b7d1c" y="758.568438"/>
      </g>
     </g>
     <g id="text_46">
      <!-- 0.0 -->
      <g transform="translate(24.771875 762.367656)scale(0.1 -0.1)">
       <use xlink:href="#DejaVuSans-48"/>
       <use x="63.623047" xlink:href="#DejaVuSans-46"/>
       <use x="95.410156" xlink:href="#DejaVuSans-48"/>
      </g>
     </g>
    </g>
    <g id="ytick_10">
     <g id="line2d_86">
      <g>
       <use style="stroke:#000000;stroke-width:0.8;" x="47.675" xlink:href="#m556d8b7d1c" y="824.385313"/>
      </g>
     </g>
     <g id="text_47">
      <!-- 1.0 -->
      <g transform="translate(24.771875 828.184531)scale(0.1 -0.1)">
       <use xlink:href="#DejaVuSans-49"/>
       <use x="63.623047" xlink:href="#DejaVuSans-46"/>
       <use x="95.410156" xlink:href="#DejaVuSans-48"/>
      </g>
     </g>
    </g>
    <g id="text_48">
     <!-- rhamn2cats -->
     <g transform="translate(18.692188 821.362813)rotate(-90)scale(0.1 -0.1)">
      <use xlink:href="#DejaVuSans-114"/>
      <use x="41.097656" xlink:href="#DejaVuSans-104"/>
      <use x="104.476562" xlink:href="#DejaVuSans-97"/>
      <use x="165.755859" xlink:href="#DejaVuSans-109"/>
      <use x="263.167969" xlink:href="#DejaVuSans-110"/>
      <use x="326.546875" xlink:href="#DejaVuSans-50"/>
      <use x="390.169922" xlink:href="#DejaVuSans-99"/>
      <use x="445.150391" xlink:href="#DejaVuSans-97"/>
      <use x="506.429688" xlink:href="#DejaVuSans-116"/>
      <use x="545.638672" xlink:href="#DejaVuSans-115"/>
     </g>
    </g>
   </g>
   <g id="line2d_87">
    <path clip-path="url(#p4cf3fa2e6d)" d="M 138.286539 758.568438 
L 64.494318 758.568438 
" style="fill:none;stroke:#3f3f3f;stroke-linecap:square;stroke-width:1.5;"/>
   </g>
   <g id="line2d_88">
    <path clip-path="url(#p4cf3fa2e6d)" d="M 239.499958 758.568438 
L 263.907862 758.568438 
" style="fill:none;stroke:#3f3f3f;stroke-linecap:square;stroke-width:1.5;"/>
   </g>
   <g id="line2d_89">
    <path clip-path="url(#p4cf3fa2e6d)" d="M 64.494318 745.405063 
L 64.494318 771.731813 
" style="fill:none;stroke:#3f3f3f;stroke-linecap:square;stroke-width:1.5;"/>
   </g>
   <g id="line2d_90">
    <path clip-path="url(#p4cf3fa2e6d)" d="M 263.907862 745.405063 
L 263.907862 771.731813 
" style="fill:none;stroke:#3f3f3f;stroke-linecap:square;stroke-width:1.5;"/>
   </g>
   <g id="line2d_91">
    <g clip-path="url(#p4cf3fa2e6d)">
     <use style="fill:#3f3f3f;stroke:#3f3f3f;stroke-linejoin:miter;" x="394.982749" xlink:href="#me8c29fea1a" y="758.568438"/>
    </g>
   </g>
   <g id="line2d_92">
    <path clip-path="url(#p4cf3fa2e6d)" d="M 256.268202 824.385313 
L 148.863944 824.385313 
" style="fill:none;stroke:#3f3f3f;stroke-linecap:square;stroke-width:1.5;"/>
   </g>
   <g id="line2d_93">
    <path clip-path="url(#p4cf3fa2e6d)" d="M 346.481639 824.385313 
L 400.880682 824.385313 
" style="fill:none;stroke:#3f3f3f;stroke-linecap:square;stroke-width:1.5;"/>
   </g>
   <g id="line2d_94">
    <path clip-path="url(#p4cf3fa2e6d)" d="M 148.863944 811.221938 
L 148.863944 837.548688 
" style="fill:none;stroke:#3f3f3f;stroke-linecap:square;stroke-width:1.5;"/>
   </g>
   <g id="line2d_95">
    <path clip-path="url(#p4cf3fa2e6d)" d="M 400.880682 811.221938 
L 400.880682 837.548688 
" style="fill:none;stroke:#3f3f3f;stroke-linecap:square;stroke-width:1.5;"/>
   </g>
   <g id="line2d_96">
    <g clip-path="url(#p4cf3fa2e6d)">
     <use style="fill:#3f3f3f;stroke:#3f3f3f;stroke-linejoin:miter;" x="118.98744" xlink:href="#me8c29fea1a" y="824.385313"/>
    </g>
   </g>
   <g id="line2d_97">
    <path clip-path="url(#p4cf3fa2e6d)" d="M 184.615379 732.241688 
L 184.615379 784.895188 
" style="fill:none;stroke:#3f3f3f;stroke-linecap:square;stroke-width:1.5;"/>
   </g>
   <g id="line2d_98">
    <path clip-path="url(#p4cf3fa2e6d)" d="M 296.826758 798.058563 
L 296.826758 850.712063 
" style="fill:none;stroke:#3f3f3f;stroke-linecap:square;stroke-width:1.5;"/>
   </g>
   <g id="patch_33">
    <path d="M 47.675 857.29375 
L 47.675 725.66 
" style="fill:none;stroke:#000000;stroke-linecap:square;stroke-linejoin:miter;stroke-width:0.8;"/>
   </g>
   <g id="patch_34">
    <path d="M 417.7 857.29375 
L 417.7 725.66 
" style="fill:none;stroke:#000000;stroke-linecap:square;stroke-linejoin:miter;stroke-width:0.8;"/>
   </g>
   <g id="patch_35">
    <path d="M 47.675 857.29375 
L 417.7 857.29375 
" style="fill:none;stroke:#000000;stroke-linecap:square;stroke-linejoin:miter;stroke-width:0.8;"/>
   </g>
   <g id="patch_36">
    <path d="M 47.675 725.66 
L 417.7 725.66 
" style="fill:none;stroke:#000000;stroke-linecap:square;stroke-linejoin:miter;stroke-width:0.8;"/>
   </g>
  </g>
 </g>
 <defs>
  <clipPath id="p4f78928987">
   <rect height="131.63375" width="370.025" x="47.675" y="14.3"/>
  </clipPath>
  <clipPath id="pd465c3ffd7">
   <rect height="131.63375" width="370.025" x="47.675" y="192.14"/>
  </clipPath>
  <clipPath id="pc6009f4c82">
   <rect height="131.63375" width="370.025" x="47.675" y="369.98"/>
  </clipPath>
  <clipPath id="p276328a15f">
   <rect height="131.63375" width="370.025" x="47.675" y="547.82"/>
  </clipPath>
  <clipPath id="p4cf3fa2e6d">
   <rect height="131.63375" width="370.025" x="47.675" y="725.66"/>
  </clipPath>
 </defs>
</svg>
