<?xml version="1.0" encoding="utf-8"?>
<!-- Generator: Adobe Illustrator 21.0.0, SVG Export Plug-In . SVG Version: 6.00 Build 0)  -->
<svg version="1.1" id="Layer_1" xmlns="http://www.w3.org/2000/svg" xmlns:xlink="http://www.w3.org/1999/xlink" x="0px" y="0px"
	 viewBox="0 0 211.3 209.3" style="enable-background:new 0 0 211.3 209.3;" xml:space="preserve">
<style type="text/css">
	.st0{clip-path:url(#SVGID_2_);}
	.st1{fill:#FF4A17;stroke:#FF4A17;stroke-width:0.5;stroke-linejoin:round;stroke-miterlimit:10;}
	.st2{clip-path:url(#SVGID_4_);}
	.st3{clip-path:url(#SVGID_6_);}
	.st4{clip-path:url(#SVGID_8_);}
	.st5{fill:#00D059;stroke:#00D059;stroke-miterlimit:10;}
	.st6{clip-path:url(#SVGID_10_);}
	.st7{clip-path:url(#SVGID_12_);}
	.st8{clip-path:url(#SVGID_14_);}
	.st9{clip-path:url(#SVGID_16_);}
	.st10{clip-path:url(#SVGID_18_);}
	.st11{clip-path:url(#SVGID_20_);}
	.st12{fill:#1794FF;stroke:#1794FF;stroke-width:0.5;stroke-linejoin:round;stroke-miterlimit:10;}
	.st13{clip-path:url(#SVGID_22_);}
	.st14{clip-path:url(#SVGID_24_);}
	.st15{clip-path:url(#SVGID_28_);}
	.st16{clip-path:url(#SVGID_30_);}
	.st17{clip-path:url(#SVGID_32_);}
	.st18{clip-path:url(#SVGID_34_);}
	.st19{clip-path:url(#SVGID_36_);}
	.st20{clip-path:url(#SVGID_38_);}
	.st21{clip-path:url(#SVGID_40_);}
	.st22{clip-path:url(#SVGID_42_);}
	.st23{clip-path:url(#SVGID_44_);}
	.st24{clip-path:url(#SVGID_46_);}
	.st25{clip-path:url(#SVGID_48_);}
	.st26{clip-path:url(#SVGID_50_);}
	.st27{clip-path:url(#SVGID_52_);}
	.st28{clip-path:url(#SVGID_54_);}
	.st29{clip-path:url(#SVGID_56_);}
	.st30{clip-path:url(#SVGID_58_);}
	.st31{clip-path:url(#SVGID_60_);}
	.st32{clip-path:url(#SVGID_62_);}
	.st33{clip-path:url(#SVGID_64_);}
	.st34{clip-path:url(#SVGID_66_);}
	.st35{stroke:#000000;stroke-width:0.5;stroke-linejoin:round;}
	.st36{font-family:'ArialMT';}
	.st37{font-size:6px;}
	.st38{fill:none;stroke:#000000;stroke-width:0.5;stroke-linecap:square;}
	.st39{font-size:7px;}
	.st40{fill:none;stroke:#000000;stroke-width:0.5;stroke-linejoin:round;stroke-miterlimit:10;}
</style>
<g id="figure_1">
	<g id="axes_1">
		<g id="PathCollection_1">
			<g>
				<defs>
					<rect id="SVGID_1_" x="28.8" y="2.8" width="177.8" height="184.4"/>
				</defs>
				<clipPath id="SVGID_2_">
					<use xlink:href="#SVGID_1_"  style="overflow:visible;"/>
				</clipPath>
				<g class="st0">
					<g>
						<path id="C0_0_8d7755de00" class="st1" d="M198.4,167c0.5,0,0.9-0.2,1.3-0.5c0.3-0.3,0.5-0.8,0.5-1.3c0-0.5-0.2-0.9-0.5-1.3
							c-0.3-0.3-0.8-0.5-1.3-0.5c-0.5,0-0.9,0.2-1.3,0.5c-0.3,0.3-0.5,0.8-0.5,1.3c0,0.5,0.2,0.9,0.5,1.3
							C197.5,166.8,198,167,198.4,167z"/>
					</g>
				</g>
			</g>
			<g>
				<defs>
					<rect id="SVGID_3_" x="28.8" y="2.8" width="177.8" height="184.4"/>
				</defs>
				<clipPath id="SVGID_4_">
					<use xlink:href="#SVGID_3_"  style="overflow:visible;"/>
				</clipPath>
				<g class="st2">
					<g>
						<path id="C0_0_8d7755de00_1_" class="st1" d="M193.5,163.6c0.5,0,0.9-0.2,1.3-0.5c0.3-0.3,0.5-0.8,0.5-1.3
							c0-0.5-0.2-0.9-0.5-1.3c-0.3-0.3-0.8-0.5-1.3-0.5s-0.9,0.2-1.3,0.5c-0.3,0.3-0.5,0.8-0.5,1.3c0,0.5,0.2,0.9,0.5,1.3
							C192.6,163.4,193,163.6,193.5,163.6z"/>
					</g>
				</g>
			</g>
			<g>
				<defs>
					<rect id="SVGID_5_" x="28.8" y="2.8" width="177.8" height="184.4"/>
				</defs>
				<clipPath id="SVGID_6_">
					<use xlink:href="#SVGID_5_"  style="overflow:visible;"/>
				</clipPath>
				<g class="st3">
					<g>
						<path id="C0_0_8d7755de00_2_" class="st1" d="M185.1,164c0.5,0,0.9-0.2,1.3-0.5c0.3-0.3,0.5-0.8,0.5-1.3
							c0-0.5-0.2-0.9-0.5-1.3c-0.3-0.3-0.8-0.5-1.3-0.5s-0.9,0.2-1.3,0.5c-0.3,0.3-0.5,0.8-0.5,1.3c0,0.5,0.2,0.9,0.5,1.3
							C184.2,163.8,184.6,164,185.1,164z"/>
					</g>
				</g>
			</g>
			<g>
				<defs>
					<rect id="SVGID_7_" x="28.8" y="2.8" width="177.8" height="184.4"/>
				</defs>
				<clipPath id="SVGID_8_">
					<use xlink:href="#SVGID_7_"  style="overflow:visible;"/>
				</clipPath>
				<g class="st4">
					<g>
						<path id="C0_0_8d7755de00_3_" class="st5" d="M118.2,180.7c0.5,0,0.9-0.2,1.3-0.5c0.3-0.3,0.5-0.8,0.5-1.3
							c0-0.5-0.2-0.9-0.5-1.3c-0.3-0.3-0.8-0.5-1.3-0.5c-0.5,0-0.9,0.2-1.3,0.5c-0.3,0.3-0.5,0.8-0.5,1.3c0,0.5,0.2,0.9,0.5,1.3
							C117.3,180.5,117.8,180.7,118.2,180.7z"/>
					</g>
				</g>
			</g>
			<g>
				<defs>
					<rect id="SVGID_9_" x="28.8" y="2.8" width="177.8" height="184.4"/>
				</defs>
				<clipPath id="SVGID_10_">
					<use xlink:href="#SVGID_9_"  style="overflow:visible;"/>
				</clipPath>
				<g class="st6">
					<g>
						<path id="C0_0_8d7755de00_4_" class="st5" d="M103.9,167.5c0.5,0,0.9-0.2,1.3-0.5c0.3-0.3,0.5-0.8,0.5-1.3s-0.2-0.9-0.5-1.3
							c-0.3-0.3-0.8-0.5-1.3-0.5c-0.5,0-0.9,0.2-1.3,0.5c-0.3,0.3-0.5,0.8-0.5,1.3s0.2,0.9,0.5,1.3
							C103,167.3,103.4,167.5,103.9,167.5z"/>
					</g>
				</g>
			</g>
			<g>
				<defs>
					<rect id="SVGID_11_" x="28.8" y="2.8" width="177.8" height="184.4"/>
				</defs>
				<clipPath id="SVGID_12_">
					<use xlink:href="#SVGID_11_"  style="overflow:visible;"/>
				</clipPath>
				<g class="st7">
					<g>
						<path id="C0_0_8d7755de00_5_" class="st5" d="M100.9,170.9c0.5,0,0.9-0.2,1.3-0.5c0.3-0.3,0.5-0.8,0.5-1.3
							c0-0.5-0.2-0.9-0.5-1.3c-0.3-0.3-0.8-0.5-1.3-0.5s-0.9,0.2-1.3,0.5c-0.3,0.3-0.5,0.8-0.5,1.3c0,0.5,0.2,0.9,0.5,1.3
							C99.9,170.7,100.4,170.9,100.9,170.9z"/>
					</g>
				</g>
			</g>
			<g>
				<defs>
					<rect id="SVGID_13_" x="28.8" y="2.8" width="177.8" height="184.4"/>
				</defs>
				<clipPath id="SVGID_14_">
					<use xlink:href="#SVGID_13_"  style="overflow:visible;"/>
				</clipPath>
				<g class="st8">
					<g>
						<path id="C0_0_8d7755de00_6_" class="st1" d="M124.7,116.5c0.5,0,0.9-0.2,1.3-0.5c0.3-0.3,0.5-0.8,0.5-1.3s-0.2-0.9-0.5-1.3
							c-0.3-0.3-0.8-0.5-1.3-0.5s-0.9,0.2-1.3,0.5c-0.3,0.3-0.5,0.8-0.5,1.3s0.2,0.9,0.5,1.3C123.8,116.3,124.2,116.5,124.7,116.5z"
							/>
					</g>
				</g>
			</g>
			<g>
				<defs>
					<rect id="SVGID_15_" x="28.8" y="2.8" width="177.8" height="184.4"/>
				</defs>
				<clipPath id="SVGID_16_">
					<use xlink:href="#SVGID_15_"  style="overflow:visible;"/>
				</clipPath>
				<g class="st9">
					<g>
						<path id="C0_0_8d7755de00_7_" class="st1" d="M120.1,102.9c0.5,0,0.9-0.2,1.3-0.5s0.5-0.8,0.5-1.3c0-0.5-0.2-0.9-0.5-1.3
							s-0.8-0.5-1.3-0.5c-0.5,0-0.9,0.2-1.3,0.5s-0.5,0.8-0.5,1.3c0,0.5,0.2,0.9,0.5,1.3S119.6,102.9,120.1,102.9z"/>
					</g>
				</g>
			</g>
			<g>
				<defs>
					<rect id="SVGID_17_" x="28.8" y="2.8" width="177.8" height="184.4"/>
				</defs>
				<clipPath id="SVGID_18_">
					<use xlink:href="#SVGID_17_"  style="overflow:visible;"/>
				</clipPath>
				<g class="st10">
					<g>
						<path id="C0_0_8d7755de00_8_" class="st1" d="M136.8,102.5c0.5,0,0.9-0.2,1.3-0.5c0.3-0.3,0.5-0.8,0.5-1.3
							c0-0.5-0.2-0.9-0.5-1.3c-0.3-0.3-0.8-0.5-1.3-0.5s-0.9,0.2-1.3,0.5c-0.3,0.3-0.5,0.8-0.5,1.3c0,0.5,0.2,0.9,0.5,1.3
							C135.9,102.3,136.4,102.5,136.8,102.5z"/>
					</g>
				</g>
			</g>
			<g>
				<defs>
					<rect id="SVGID_19_" x="28.8" y="2.8" width="177.8" height="184.4"/>
				</defs>
				<clipPath id="SVGID_20_">
					<use xlink:href="#SVGID_19_"  style="overflow:visible;"/>
				</clipPath>
				<g class="st11">
					<g>
						<path id="C0_0_8d7755de00_9_" class="st12" d="M93,53.8c0.5,0,0.9-0.2,1.3-0.5c0.3-0.3,0.5-0.8,0.5-1.3c0-0.5-0.2-0.9-0.5-1.3
							s-0.8-0.5-1.3-0.5s-0.9,0.2-1.3,0.5s-0.5,0.8-0.5,1.3c0,0.5,0.2,0.9,0.5,1.3C92.1,53.6,92.5,53.8,93,53.8z"/>
					</g>
				</g>
			</g>
			<g>
				<defs>
					<rect id="SVGID_21_" x="28.8" y="2.8" width="177.8" height="184.4"/>
				</defs>
				<clipPath id="SVGID_22_">
					<use xlink:href="#SVGID_21_"  style="overflow:visible;"/>
				</clipPath>
				<g class="st13">
					<g>
						<path id="C0_0_8d7755de00_10_" class="st12" d="M92.3,51.2c0.5,0,0.9-0.2,1.3-0.5s0.5-0.8,0.5-1.3c0-0.5-0.2-0.9-0.5-1.3
							c-0.3-0.3-0.8-0.5-1.3-0.5c-0.5,0-0.9,0.2-1.3,0.5c-0.3,0.3-0.5,0.8-0.5,1.3c0,0.5,0.2,0.9,0.5,1.3S91.8,51.2,92.3,51.2z"/>
					</g>
				</g>
			</g>
			<g>
				<defs>
					<rect id="SVGID_23_" x="28.8" y="2.8" width="177.8" height="184.4"/>
				</defs>
				<clipPath id="SVGID_24_">
					<use xlink:href="#SVGID_23_"  style="overflow:visible;"/>
				</clipPath>
				<g class="st14">
					<g>
						<path id="C0_0_8d7755de00_11_" class="st12" d="M122.1,37.7c0.5,0,0.9-0.2,1.3-0.5s0.5-0.8,0.5-1.3c0-0.5-0.2-0.9-0.5-1.3
							c-0.3-0.3-0.8-0.5-1.3-0.5c-0.5,0-0.9,0.2-1.3,0.5c-0.3,0.3-0.5,0.8-0.5,1.3c0,0.5,0.2,0.9,0.5,1.3S121.6,37.7,122.1,37.7z"/>
					</g>
				</g>
			</g>
			<g>
				<defs>
					<rect id="SVGID_25_" x="28.8" y="2.8" width="177.8" height="184.4"/>
				</defs>
				<clipPath id="SVGID_26_">
					<use xlink:href="#SVGID_25_"  style="overflow:visible;"/>
				</clipPath>
			</g>
			<g>
				<defs>
					<rect id="SVGID_27_" x="28.8" y="2.8" width="177.8" height="184.4"/>
				</defs>
				<clipPath id="SVGID_28_">
					<use xlink:href="#SVGID_27_"  style="overflow:visible;"/>
				</clipPath>
				<g class="st15">
					<g>
						<path id="C0_0_8d7755de00_13_" class="st5" d="M81.1,39c0.5,0,0.9-0.2,1.3-0.5s0.5-0.8,0.5-1.3c0-0.5-0.2-0.9-0.5-1.3
							c-0.3-0.3-0.8-0.5-1.3-0.5c-0.5,0-0.9,0.2-1.3,0.5c-0.3,0.3-0.5,0.8-0.5,1.3c0,0.5,0.2,0.9,0.5,1.3S80.6,39,81.1,39z"/>
					</g>
				</g>
			</g>
			<g>
				<defs>
					<rect id="SVGID_29_" x="28.8" y="2.8" width="177.8" height="184.4"/>
				</defs>
				<clipPath id="SVGID_30_">
					<use xlink:href="#SVGID_29_"  style="overflow:visible;"/>
				</clipPath>
				<g class="st16">
					<g>
						<path id="C0_0_8d7755de00_14_" class="st5" d="M87.1,21.4c0.5,0,0.9-0.2,1.3-0.5s0.5-0.8,0.5-1.3s-0.2-0.9-0.5-1.3
							c-0.3-0.3-0.8-0.5-1.3-0.5c-0.5,0-0.9,0.2-1.3,0.5c-0.3,0.3-0.5,0.8-0.5,1.3s0.2,0.9,0.5,1.3S86.7,21.4,87.1,21.4z"/>
					</g>
				</g>
			</g>
			<g>
				<defs>
					<rect id="SVGID_31_" x="28.8" y="2.8" width="177.8" height="184.4"/>
				</defs>
				<clipPath id="SVGID_32_">
					<use xlink:href="#SVGID_31_"  style="overflow:visible;"/>
				</clipPath>
				<g class="st17">
					<g>
						<path id="C0_0_8d7755de00_15_" class="st1" d="M140.1,67.4c0.5,0,0.9-0.2,1.3-0.5c0.3-0.3,0.5-0.8,0.5-1.3
							c0-0.5-0.2-0.9-0.5-1.3c-0.3-0.3-0.8-0.5-1.3-0.5c-0.5,0-0.9,0.2-1.3,0.5c-0.3,0.3-0.5,0.8-0.5,1.3c0,0.5,0.2,0.9,0.5,1.3
							C139.2,67.2,139.6,67.4,140.1,67.4z"/>
					</g>
				</g>
			</g>
			<g>
				<defs>
					<rect id="SVGID_33_" x="28.8" y="2.8" width="177.8" height="184.4"/>
				</defs>
				<clipPath id="SVGID_34_">
					<use xlink:href="#SVGID_33_"  style="overflow:visible;"/>
				</clipPath>
				<g class="st18">
					<g>
						<path id="C0_0_8d7755de00_16_" class="st1" d="M141.7,60.3c0.5,0,0.9-0.2,1.3-0.5c0.3-0.3,0.5-0.8,0.5-1.3
							c0-0.5-0.2-0.9-0.5-1.3c-0.3-0.3-0.8-0.5-1.3-0.5c-0.5,0-0.9,0.2-1.3,0.5c-0.3,0.3-0.5,0.8-0.5,1.3c0,0.5,0.2,0.9,0.5,1.3
							C140.7,60.1,141.2,60.3,141.7,60.3z"/>
					</g>
				</g>
			</g>
			<g>
				<defs>
					<rect id="SVGID_35_" x="28.8" y="2.8" width="177.8" height="184.4"/>
				</defs>
				<clipPath id="SVGID_36_">
					<use xlink:href="#SVGID_35_"  style="overflow:visible;"/>
				</clipPath>
				<g class="st19">
					<g>
						<path id="C0_0_8d7755de00_17_" class="st1" d="M148.6,51c0.5,0,0.9-0.2,1.3-0.5c0.3-0.3,0.5-0.8,0.5-1.3
							c0-0.5-0.2-0.9-0.5-1.3c-0.3-0.3-0.8-0.5-1.3-0.5s-0.9,0.2-1.3,0.5c-0.3,0.3-0.5,0.8-0.5,1.3c0,0.5,0.2,0.9,0.5,1.3
							C147.7,50.8,148.2,51,148.6,51z"/>
					</g>
				</g>
			</g>
			<g>
				<defs>
					<rect id="SVGID_37_" x="28.8" y="2.8" width="177.8" height="184.4"/>
				</defs>
				<clipPath id="SVGID_38_">
					<use xlink:href="#SVGID_37_"  style="overflow:visible;"/>
				</clipPath>
				<g class="st20">
					<g>
						<path id="C0_0_8d7755de00_18_" class="st5" d="M137.6,115.2c0.5,0,0.9-0.2,1.3-0.5c0.3-0.3,0.5-0.8,0.5-1.3
							c0-0.5-0.2-0.9-0.5-1.3c-0.3-0.3-0.8-0.5-1.3-0.5c-0.5,0-0.9,0.2-1.3,0.5c-0.3,0.3-0.5,0.8-0.5,1.3c0,0.5,0.2,0.9,0.5,1.3
							C136.7,115.1,137.1,115.2,137.6,115.2z"/>
					</g>
				</g>
			</g>
			<g>
				<defs>
					<rect id="SVGID_39_" x="28.8" y="2.8" width="177.8" height="184.4"/>
				</defs>
				<clipPath id="SVGID_40_">
					<use xlink:href="#SVGID_39_"  style="overflow:visible;"/>
				</clipPath>
				<g class="st21">
					<g>
						<path id="C0_0_8d7755de00_19_" class="st5" d="M122.1,105.4c0.5,0,0.9-0.2,1.3-0.5s0.5-0.8,0.5-1.3c0-0.5-0.2-0.9-0.5-1.3
							s-0.8-0.5-1.3-0.5c-0.5,0-0.9,0.2-1.3,0.5s-0.5,0.8-0.5,1.3c0,0.5,0.2,0.9,0.5,1.3S121.7,105.4,122.1,105.4z"/>
					</g>
				</g>
			</g>
			<g>
				<defs>
					<rect id="SVGID_41_" x="28.8" y="2.8" width="177.8" height="184.4"/>
				</defs>
				<clipPath id="SVGID_42_">
					<use xlink:href="#SVGID_41_"  style="overflow:visible;"/>
				</clipPath>
				<g class="st22">
					<g>
						<path id="C0_0_8d7755de00_20_" class="st5" d="M151.2,101.4c0.5,0,0.9-0.2,1.3-0.5c0.3-0.3,0.5-0.8,0.5-1.3
							c0-0.5-0.2-0.9-0.5-1.3c-0.3-0.3-0.8-0.5-1.3-0.5s-0.9,0.2-1.3,0.5c-0.3,0.3-0.5,0.8-0.5,1.3c0,0.5,0.2,0.9,0.5,1.3
							C150.3,101.2,150.7,101.4,151.2,101.4z"/>
					</g>
				</g>
			</g>
			<g>
				<defs>
					<rect id="SVGID_43_" x="28.8" y="2.8" width="177.8" height="184.4"/>
				</defs>
				<clipPath id="SVGID_44_">
					<use xlink:href="#SVGID_43_"  style="overflow:visible;"/>
				</clipPath>
				<g class="st23">
					<g>
						<path id="C0_0_8d7755de00_21_" class="st1" d="M36.8,156.4c0.5,0,0.9-0.2,1.3-0.5c0.3-0.3,0.5-0.8,0.5-1.3
							c0-0.5-0.2-0.9-0.5-1.3c-0.3-0.3-0.8-0.5-1.3-0.5c-0.5,0-0.9,0.2-1.3,0.5c-0.3,0.3-0.5,0.8-0.5,1.3c0,0.5,0.2,0.9,0.5,1.3
							C35.9,156.2,36.4,156.4,36.8,156.4z"/>
					</g>
				</g>
			</g>
			<g>
				<defs>
					<rect id="SVGID_45_" x="28.8" y="2.8" width="177.8" height="184.4"/>
				</defs>
				<clipPath id="SVGID_46_">
					<use xlink:href="#SVGID_45_"  style="overflow:visible;"/>
				</clipPath>
				<g class="st24">
					<g>
						<path id="C0_0_8d7755de00_22_" class="st1" d="M42.6,158.1c0.5,0,0.9-0.2,1.3-0.5c0.3-0.3,0.5-0.8,0.5-1.3
							c0-0.5-0.2-0.9-0.5-1.3c-0.3-0.3-0.8-0.5-1.3-0.5c-0.5,0-0.9,0.2-1.3,0.5c-0.3,0.3-0.5,0.8-0.5,1.3c0,0.5,0.2,0.9,0.5,1.3
							C41.6,157.9,42.1,158.1,42.6,158.1z"/>
					</g>
				</g>
			</g>
			<g>
				<defs>
					<rect id="SVGID_47_" x="28.8" y="2.8" width="177.8" height="184.4"/>
				</defs>
				<clipPath id="SVGID_48_">
					<use xlink:href="#SVGID_47_"  style="overflow:visible;"/>
				</clipPath>
				<g class="st25">
					<g>
						<path id="C0_0_8d7755de00_23_" class="st1" d="M76.7,143.4c0.5,0,0.9-0.2,1.3-0.5s0.5-0.8,0.5-1.3c0-0.5-0.2-0.9-0.5-1.3
							c-0.3-0.3-0.8-0.5-1.3-0.5c-0.5,0-0.9,0.2-1.3,0.5c-0.3,0.3-0.5,0.8-0.5,1.3c0,0.5,0.2,0.9,0.5,1.3S76.2,143.4,76.7,143.4z"/>
					</g>
				</g>
			</g>
			<g>
				<defs>
					<rect id="SVGID_49_" x="28.8" y="2.8" width="177.8" height="184.4"/>
				</defs>
				<clipPath id="SVGID_50_">
					<use xlink:href="#SVGID_49_"  style="overflow:visible;"/>
				</clipPath>
				<g class="st26">
					<g>
						<path id="C0_0_8d7755de00_24_" class="st12" d="M111.9,119.5c0.5,0,0.9-0.2,1.3-0.5s0.5-0.8,0.5-1.3c0-0.5-0.2-0.9-0.5-1.3
							s-0.8-0.5-1.3-0.5s-0.9,0.2-1.3,0.5s-0.5,0.8-0.5,1.3c0,0.5,0.2,0.9,0.5,1.3S111.5,119.5,111.9,119.5z"/>
					</g>
				</g>
			</g>
			<g>
				<defs>
					<rect id="SVGID_51_" x="28.8" y="2.8" width="177.8" height="184.4"/>
				</defs>
				<clipPath id="SVGID_52_">
					<use xlink:href="#SVGID_51_"  style="overflow:visible;"/>
				</clipPath>
				<g class="st27">
					<g>
						<path id="C0_0_8d7755de00_25_" class="st12" d="M93.8,123.5c0.5,0,0.9-0.2,1.3-0.5s0.5-0.8,0.5-1.3c0-0.5-0.2-0.9-0.5-1.3
							s-0.8-0.5-1.3-0.5s-0.9,0.2-1.3,0.5s-0.5,0.8-0.5,1.3c0,0.5,0.2,0.9,0.5,1.3S93.4,123.5,93.8,123.5z"/>
					</g>
				</g>
			</g>
			<g>
				<defs>
					<rect id="SVGID_53_" x="28.8" y="2.8" width="177.8" height="184.4"/>
				</defs>
				<clipPath id="SVGID_54_">
					<use xlink:href="#SVGID_53_"  style="overflow:visible;"/>
				</clipPath>
				<g class="st28">
					<g>
						<path id="C0_0_8d7755de00_26_" class="st12" d="M103.6,124.9c0.5,0,0.9-0.2,1.3-0.5s0.5-0.8,0.5-1.3c0-0.5-0.2-0.9-0.5-1.3
							s-0.8-0.5-1.3-0.5c-0.5,0-0.9,0.2-1.3,0.5s-0.5,0.8-0.5,1.3c0,0.5,0.2,0.9,0.5,1.3S103.2,124.9,103.6,124.9z"/>
					</g>
				</g>
			</g>
			<g>
				<defs>
					<rect id="SVGID_55_" x="28.8" y="2.8" width="177.8" height="184.4"/>
				</defs>
				<clipPath id="SVGID_56_">
					<use xlink:href="#SVGID_55_"  style="overflow:visible;"/>
				</clipPath>
				<g class="st29">
					<g>
						<path id="C0_0_8d7755de00_27_" class="st1" d="M63,168.6c0.5,0,0.9-0.2,1.3-0.5c0.3-0.3,0.5-0.8,0.5-1.3s-0.2-0.9-0.5-1.3
							c-0.3-0.3-0.8-0.5-1.3-0.5c-0.5,0-0.9,0.2-1.3,0.5c-0.3,0.3-0.5,0.8-0.5,1.3s0.2,0.9,0.5,1.3C62.1,168.4,62.5,168.6,63,168.6z
							"/>
					</g>
				</g>
			</g>
			<g>
				<defs>
					<rect id="SVGID_57_" x="28.8" y="2.8" width="177.8" height="184.4"/>
				</defs>
				<clipPath id="SVGID_58_">
					<use xlink:href="#SVGID_57_"  style="overflow:visible;"/>
				</clipPath>
				<g class="st30">
					<g>
						<path id="C0_0_8d7755de00_28_" class="st1" d="M68.3,164c0.5,0,0.9-0.2,1.3-0.5c0.3-0.3,0.5-0.8,0.5-1.3
							c0-0.5-0.2-0.9-0.5-1.3c-0.3-0.3-0.8-0.5-1.3-0.5s-0.9,0.2-1.3,0.5c-0.3,0.3-0.5,0.8-0.5,1.3c0,0.5,0.2,0.9,0.5,1.3
							C67.3,163.8,67.8,164,68.3,164z"/>
					</g>
				</g>
			</g>
			<g>
				<defs>
					<rect id="SVGID_59_" x="28.8" y="2.8" width="177.8" height="184.4"/>
				</defs>
				<clipPath id="SVGID_60_">
					<use xlink:href="#SVGID_59_"  style="overflow:visible;"/>
				</clipPath>
				<g class="st31">
					<g>
						<path id="C0_0_8d7755de00_29_" class="st1" d="M53.9,162.8c0.5,0,0.9-0.2,1.3-0.5c0.3-0.3,0.5-0.8,0.5-1.3
							c0-0.5-0.2-0.9-0.5-1.3c-0.3-0.3-0.8-0.5-1.3-0.5s-0.9,0.2-1.3,0.5c-0.3,0.3-0.5,0.8-0.5,1.3c0,0.5,0.2,0.9,0.5,1.3
							C53,162.6,53.5,162.8,53.9,162.8z"/>
					</g>
				</g>
			</g>
			<g>
				<defs>
					<rect id="SVGID_61_" x="28.8" y="2.8" width="177.8" height="184.4"/>
				</defs>
				<clipPath id="SVGID_62_">
					<use xlink:href="#SVGID_61_"  style="overflow:visible;"/>
				</clipPath>
				<g class="st32">
					<g>
						<path id="C0_0_8d7755de00_30_" class="st1" d="M173.8,143.8c0.5,0,0.9-0.2,1.3-0.5c0.3-0.3,0.5-0.8,0.5-1.3
							c0-0.5-0.2-0.9-0.5-1.3c-0.3-0.3-0.8-0.5-1.3-0.5c-0.5,0-0.9,0.2-1.3,0.5c-0.3,0.3-0.5,0.8-0.5,1.3c0,0.5,0.2,0.9,0.5,1.3
							C172.8,143.6,173.3,143.8,173.8,143.8z"/>
					</g>
				</g>
			</g>
			<g>
				<defs>
					<rect id="SVGID_63_" x="28.8" y="2.8" width="177.8" height="184.4"/>
				</defs>
				<clipPath id="SVGID_64_">
					<use xlink:href="#SVGID_63_"  style="overflow:visible;"/>
				</clipPath>
				<g class="st33">
					<g>
						<path id="C0_0_8d7755de00_31_" class="st1" d="M128.8,148.3c0.5,0,0.9-0.2,1.3-0.5c0.3-0.3,0.5-0.8,0.5-1.3
							c0-0.5-0.2-0.9-0.5-1.3c-0.3-0.3-0.8-0.5-1.3-0.5c-0.5,0-0.9,0.2-1.3,0.5c-0.3,0.3-0.5,0.8-0.5,1.3c0,0.5,0.2,0.9,0.5,1.3
							C127.9,148.1,128.4,148.3,128.8,148.3z"/>
					</g>
				</g>
			</g>
			<g>
				<defs>
					<rect id="SVGID_65_" x="28.8" y="2.8" width="177.8" height="184.4"/>
				</defs>
				<clipPath id="SVGID_66_">
					<use xlink:href="#SVGID_65_"  style="overflow:visible;"/>
				</clipPath>
				<g class="st34">
					<g>
						<path id="C0_0_8d7755de00_32_" class="st1" d="M145.1,142.9c0.5,0,0.9-0.2,1.3-0.5c0.3-0.3,0.5-0.8,0.5-1.3s-0.2-0.9-0.5-1.3
							c-0.3-0.3-0.8-0.5-1.3-0.5c-0.5,0-0.9,0.2-1.3,0.5c-0.3,0.3-0.5,0.8-0.5,1.3s0.2,0.9,0.5,1.3
							C144.1,142.7,144.6,142.9,145.1,142.9z"/>
					</g>
				</g>
			</g>
		</g>
		<g id="PathCollection_2">
		</g>
		<g id="PathCollection_3">
		</g>
		<g id="PathCollection_4">
		</g>
		<g id="matplotlib.axis_1">
			<g id="xtick_1">
				<g id="line2d_1">
					<g>
						<g>
							<path id="m3db5e86e09" class="st35" d="M45.9,187.3v3.1"/>
						</g>
					</g>
				</g>
				<g id="text_1">
					<text transform="matrix(1 0 0 1 40.7998 197.013)" class="st36 st37">−60</text>
				</g>
			</g>
			<g id="xtick_2">
				<g id="line2d_2">
					<g>
						<g>
							<path id="m3db5e86e09_1_" class="st35" d="M69,187.3v3.1"/>
						</g>
					</g>
				</g>
				<g id="text_2">
					<text transform="matrix(1 0 0 1 63.9531 197.013)" class="st36 st37">−40</text>
				</g>
			</g>
			<g id="xtick_3">
				<g id="line2d_3">
					<g>
						<g>
							<path id="m3db5e86e09_2_" class="st35" d="M92.2,187.3v3.1"/>
						</g>
					</g>
				</g>
				<g id="text_3">
					<text transform="matrix(1 0 0 1 87.1064 197.013)" class="st36 st37">−20</text>
				</g>
			</g>
			<g id="xtick_4">
				<g id="line2d_4">
					<g>
						<g>
							<path id="m3db5e86e09_3_" class="st35" d="M115.3,187.3v3.1"/>
						</g>
					</g>
				</g>
				<g id="text_4">
					<text transform="matrix(1 0 0 1 113.6797 197.013)" class="st36 st37">0</text>
				</g>
			</g>
			<g id="xtick_5">
				<g id="line2d_5">
					<g>
						<g>
							<path id="m3db5e86e09_4_" class="st35" d="M138.5,187.3v3.1"/>
						</g>
					</g>
				</g>
				<g id="text_5">
					<text transform="matrix(1 0 0 1 135.1641 197.013)" class="st36 st37">20</text>
				</g>
			</g>
			<g id="xtick_6">
				<g id="line2d_6">
					<g>
						<g>
							<path id="m3db5e86e09_5_" class="st35" d="M161.7,187.3v3.1"/>
						</g>
					</g>
				</g>
				<g id="text_6">
					<text transform="matrix(1 0 0 1 158.3164 197.013)" class="st36 st37">40</text>
				</g>
			</g>
			<g id="xtick_7">
				<g id="line2d_7">
					<g>
						<g>
							<path id="m3db5e86e09_6_" class="st35" d="M184.8,187.3v3.1"/>
						</g>
					</g>
				</g>
				<g id="text_7">
					<text transform="matrix(1 0 0 1 181.4688 197.013)" class="st36 st37">60</text>
				</g>
			</g>
		</g>
		<g id="matplotlib.axis_2">
			<g id="ytick_1">
				<g id="line2d_8">
					<g>
						<g>
							<path id="m7460a49ee4" class="st35" d="M28.8,177.7h-3.1"/>
						</g>
					</g>
				</g>
				<g id="text_9">
					<text transform="matrix(1 0 0 1 13.3779 179.9642)" class="st36 st37">−40</text>
				</g>
			</g>
			<g id="ytick_2">
				<g id="line2d_9">
					<g>
						<g>
							<path id="m7460a49ee4_1_" class="st35" d="M28.8,145.6h-3.1"/>
						</g>
					</g>
				</g>
				<g id="text_10">
					<text transform="matrix(1 0 0 1 13.3779 147.9212)" class="st36 st37">−20</text>
				</g>
			</g>
			<g id="ytick_3">
				<g id="line2d_10">
					<g>
						<g>
							<path id="m7460a49ee4_2_" class="st35" d="M28.8,113.6h-3.1"/>
						</g>
					</g>
				</g>
				<g id="text_11">
					<text transform="matrix(1 0 0 1 20.2188 115.8802)" class="st36 st37">0</text>
				</g>
			</g>
			<g id="ytick_4">
				<g id="line2d_11">
					<g>
						<g>
							<path id="m7460a49ee4_3_" class="st35" d="M28.8,81.6h-3.1"/>
						</g>
					</g>
				</g>
				<g id="text_12">
					<text transform="matrix(1 0 0 1 16.8818 83.8372)" class="st36 st37">20</text>
				</g>
			</g>
			<g id="ytick_5">
				<g id="line2d_12">
					<g>
						<g>
							<path id="m7460a49ee4_4_" class="st35" d="M28.8,49.5h-3.1"/>
						</g>
					</g>
				</g>
				<g id="text_13">
					<text transform="matrix(1 0 0 1 16.8818 51.7943)" class="st36 st37">40</text>
				</g>
			</g>
			<g id="ytick_6">
				<g id="line2d_13">
					<g>
						<g>
							<path id="m7460a49ee4_5_" class="st35" d="M28.8,17.5h-3.1"/>
						</g>
					</g>
				</g>
				<g id="text_14">
					<text transform="matrix(1 0 0 1 16.8818 19.7533)" class="st36 st37">60</text>
				</g>
			</g>
		</g>
		<g id="patch_3">
			<path class="st38" d="M28.8,187.3V2.8"/>
		</g>
		<g id="patch_4">
			<path class="st38" d="M206.5,187.3V2.8"/>
		</g>
		<g id="patch_5">
			<path class="st38" d="M28.8,187.3h177.8"/>
		</g>
		<g id="patch_6">
			<path class="st38" d="M28.8,2.8h177.8"/>
		</g>
	</g>
</g>
<text transform="matrix(1 0 0 1 126.2813 15.2293)" class="st36 st39">RL-</text>
<text transform="matrix(1 0 0 1 150.2813 15.146)" class="st36 st39">RL+/-</text>
<text transform="matrix(1 0 0 1 180.6979 15.146)" class="st36 st39">RL+</text>
<rect x="116.3" y="7.5" class="st40" width="84" height="10"/>
<g>
	<g>
		<path id="C0_0_8d7755de00_12_" class="st12" d="M121.6,14.7c0.5,0,0.9-0.2,1.3-0.5s0.5-0.8,0.5-1.3c0-0.5-0.2-0.9-0.5-1.3
			s-0.8-0.5-1.3-0.5c-0.5,0-0.9,0.2-1.3,0.5s-0.5,0.8-0.5,1.3c0,0.5,0.2,0.9,0.5,1.3S121.2,14.7,121.6,14.7z"/>
	</g>
</g>
<g>
	<g>
		<path id="C0_0_8d7755de00_33_" class="st5" d="M145.6,14.7c0.5,0,0.9-0.2,1.3-0.5s0.5-0.8,0.5-1.3c0-0.5-0.2-0.9-0.5-1.3
			s-0.8-0.5-1.3-0.5c-0.5,0-0.9,0.2-1.3,0.5c-0.3,0.3-0.5,0.8-0.5,1.3c0,0.5,0.2,0.9,0.5,1.3C144.7,14.5,145.2,14.7,145.6,14.7z"/>
	</g>
</g>
<g>
	<g>
		<path id="C0_0_8d7755de00_34_" class="st1" d="M176.3,14.7c0.5,0,0.9-0.2,1.3-0.5c0.3-0.3,0.5-0.8,0.5-1.3c0-0.5-0.2-0.9-0.5-1.3
			c-0.3-0.3-0.8-0.5-1.3-0.5s-0.9,0.2-1.3,0.5c-0.3,0.3-0.5,0.8-0.5,1.3c0,0.5,0.2,0.9,0.5,1.3C175.4,14.5,175.8,14.7,176.3,14.7z"
			/>
	</g>
</g>
<g id="text_4_1_">
	<text transform="matrix(1 0 0 1 83.1946 205.3333)" class="st36 st39">PC 1 (19.4% explained)</text>
</g>
<g id="text_4_2_">
	<text transform="matrix(4.489659e-11 -1 1 4.489659e-11 8.1943 135.3333)" class="st36 st39">PC 2 (15.5% explained)</text>
</g>
</svg>
